<svg width="394" height="304" viewBox="0 0 394 304" fill="none" xmlns="http://www.w3.org/2000/svg">
<g clip-path="url(#clip0)">
<path d="M194.599 244.959C169.695 244.959 145.562 236.324 126.311 220.525C107.06 204.726 93.883 182.741 89.0245 158.316C84.1661 133.891 87.9271 108.536 99.6667 86.5732C111.406 64.6101 130.398 47.3969 153.406 37.8667C176.414 28.3364 202.015 27.0788 225.847 34.308C249.678 41.5372 270.266 56.806 284.101 77.5127C297.937 98.2195 304.165 123.083 301.724 147.867C299.283 172.651 288.324 195.822 270.715 213.431C260.742 223.458 248.88 231.408 235.815 236.819C222.75 242.231 208.741 244.998 194.599 244.959ZM194.599 30.3735C135.631 30.3735 87.6569 78.3475 87.6569 137.316C87.6569 196.284 135.631 244.258 194.599 244.258C253.567 244.258 301.541 196.284 301.541 137.316C301.541 78.3475 253.567 30.3735 194.599 30.3735Z" fill="#3F3D56"/>
<path d="M203.667 233.073C201.674 240.442 194.846 245.006 194.846 245.006C194.846 245.006 191.25 237.622 193.244 230.254C195.237 222.885 202.065 218.321 202.065 218.321C202.065 218.321 205.66 225.705 203.667 233.073Z" fill="#2CC597"/>
<path d="M185.533 233.073C187.526 240.442 194.354 245.006 194.354 245.006C194.354 245.006 197.949 237.622 195.956 230.254C193.963 222.885 187.135 218.321 187.135 218.321C187.135 218.321 183.539 225.705 185.533 233.073Z" fill="#2CC597"/>
<path d="M188.462 231.489C193.932 236.814 194.6 244.999 194.6 244.999C194.6 244.999 186.4 244.551 180.93 239.227C175.46 233.902 174.792 225.717 174.792 225.717C174.792 225.717 182.992 226.165 188.462 231.489Z" fill="#3F3D56"/>
<path d="M200.737 231.489C195.268 236.814 194.6 244.999 194.6 244.999C194.6 244.999 202.8 244.551 208.27 239.227C213.739 233.902 214.407 225.717 214.407 225.717C214.407 225.717 206.207 226.165 200.737 231.489Z" fill="#3F3D56"/>
<path d="M185.533 41.9654C187.526 34.5968 194.354 30.0332 194.354 30.0332C194.354 30.0332 197.949 37.4165 195.956 44.7852C193.963 52.1538 187.135 56.7174 187.135 56.7174C187.135 56.7174 183.539 49.3341 185.533 41.9654Z" fill="#2CC597"/>
<path d="M203.667 41.9654C201.674 34.5968 194.846 30.0332 194.846 30.0332C194.846 30.0332 191.25 37.4165 193.244 44.7852C195.237 52.1538 202.065 56.7174 202.065 56.7174C202.065 56.7174 205.66 49.3341 203.667 41.9654Z" fill="#2CC597"/>
<path d="M200.737 43.5489C195.268 38.2243 194.6 30.0391 194.6 30.0391C194.6 30.0391 202.8 30.4868 208.27 35.8114C213.739 41.136 214.407 49.3212 214.407 49.3212C214.407 49.3212 206.207 48.8735 200.737 43.5489Z" fill="#3F3D56"/>
<path d="M188.462 43.5489C193.932 38.2243 194.6 30.0391 194.6 30.0391C194.6 30.0391 186.4 30.4868 180.93 35.8114C175.46 41.136 174.792 49.3212 174.792 49.3212C174.792 49.3212 182.992 48.8735 188.462 43.5489Z" fill="#3F3D56"/>
<path d="M144.488 4.44531H5.12793V146.158H144.488V4.44531Z" fill="#2CC597"/>
<path d="M139.222 8.04199H15.0775H8.04102V15.5812V140.731H15.0775V15.5812H139.222V8.04199Z" fill="#3F3D56"/>
<path opacity="0.3" d="M139.222 8.04199H15.0775H8.04102V15.5812V140.731H15.0775V15.5812H139.222V8.04199Z" fill="black"/>
<path opacity="0.1" d="M119.118 15.5811H113.589H15.0771V33.675H113.589V140.731H139.222V15.5811H119.118Z" fill="black"/>
<path d="M0 0V148.772H147.265V0H0ZM139.223 140.731H8.04175V8.04177H139.223V140.731Z" fill="#3F3D56"/>
<path d="M103.349 154.258C103.349 154.258 110.008 167.16 113.754 170.073C117.499 172.987 107.719 176.524 107.719 176.524L96.2734 158.628L103.349 154.258Z" fill="#A0616A"/>
<path d="M62.9772 122.835C62.9772 122.835 93.9836 130.951 96.6888 136.361C99.3941 141.772 107.718 154.882 107.718 154.882L95.4403 164.662L83.3707 146.558L50.0752 131.575L62.9772 122.835Z" fill="#2F2E41"/>
<path d="M106.678 171.322C106.678 171.322 103.764 168.824 102.932 170.489C102.1 172.154 99.6025 180.686 99.6025 180.686C99.6025 180.686 103.14 184.015 110.424 181.934C110.424 181.934 112.296 180.478 115.21 181.934C118.123 183.391 128.944 180.478 128.528 175.692C128.112 170.905 117.083 171.322 117.083 171.322C117.083 171.322 112.437 166.117 111.847 168.095C111.256 170.073 112.088 170.281 112.088 170.281C112.088 170.281 108.343 174.235 106.678 171.322Z" fill="#2F2E41"/>
<path d="M71.0927 166.951L69.0117 184.431H79.2084C79.2084 184.431 78.376 170.905 78.5842 169.24C78.7923 167.575 71.0927 166.951 71.0927 166.951Z" fill="#A0616A"/>
<path d="M76.9196 128.453C76.9196 128.453 82.5382 136.777 79.2086 137.401C75.8791 138.026 73.1738 128.453 73.1738 128.453H76.9196Z" fill="#A0616A"/>
<path d="M34.4683 127.621C34.4683 127.621 30.3064 139.899 46.746 143.228C63.1856 146.558 68.1799 149.263 68.1799 149.263L70.2609 170.489L84.6196 171.321C84.6196 171.321 91.4868 139.066 82.5386 134.904C73.5905 130.742 54.6537 125.956 54.6537 125.956L34.4683 127.621Z" fill="#2F2E41"/>
<path d="M70.2609 181.727C70.2609 181.727 73.1742 180.27 73.5904 180.27C73.5904 180.27 75.4195 176.051 78.771 176.496L86.0762 187.137C86.0762 187.137 97.1054 195.045 89.4058 197.126C81.7062 199.207 75.6714 197.542 75.6714 197.542L72.5499 195.253C72.5499 195.253 72.9661 192.964 70.2609 193.38C70.2609 193.38 64.6423 191.091 64.8504 189.426C65.0585 187.761 69.4786 180.515 69.4786 180.515L70.2609 181.727Z" fill="#2F2E41"/>
<path d="M72.0299 87.1458C76.6271 87.1458 80.3538 83.4191 80.3538 78.8219C80.3538 74.2248 76.6271 70.498 72.0299 70.498C67.4328 70.498 63.7061 74.2248 63.7061 78.8219C63.7061 83.4191 67.4328 87.1458 72.0299 87.1458Z" fill="#A0616A"/>
<path d="M65.2667 76.2207C65.2667 76.2207 57.7752 81.6312 56.3186 81.8393C54.8619 82.0474 63.1857 92.2441 63.1857 92.2441C63.1857 92.2441 67.1396 85.7931 69.6367 84.9607C72.1339 84.1284 65.2667 76.2207 65.2667 76.2207Z" fill="#A0616A"/>
<path d="M59.6482 83.0887C59.6482 83.0887 56.5267 78.9268 54.6539 78.9268C52.781 78.9268 35.9252 80.7996 34.4685 94.7421C33.0118 108.685 33.8442 133.032 33.8442 133.032C33.8442 133.032 32.5956 126.997 46.5381 129.494C46.5381 129.494 63.1858 125.957 66.0992 125.957C69.0125 125.957 70.2611 96.1988 70.2611 96.1988L65.523 88.8526C65.523 88.8526 63.3939 92.8692 59.6482 83.0887Z" fill="#D0CDE1"/>
<path d="M67.1396 94.5332L70.2611 96.198L74.0068 119.089L79.2092 130.95C79.2092 130.95 73.5906 129.016 73.1744 131.336L64.8506 119.297L67.1396 94.5332Z" fill="#D0CDE1"/>
<path d="M70.1584 71.996L74.6868 72.5617C74.6004 73.4832 74.6244 74.6248 75.4409 75.0607C75.8247 75.2656 76.3118 75.2551 76.652 75.5264C77.4702 76.1788 76.6699 77.5818 77.1318 78.5208L78.4562 78.8712C78.6153 79.1689 78.8318 79.4322 79.093 79.6459C79.3543 79.8597 79.6552 80.0196 79.9786 80.1166C80.3019 80.2136 80.6412 80.2457 80.9769 80.211C81.3127 80.1763 81.6383 80.0756 81.935 79.9146C82.8249 79.3802 83.2785 78.3592 83.6789 77.4014C84.1573 76.2572 84.6455 75.0278 84.4061 73.811C84.1488 72.5036 83.0807 71.4171 83.0322 70.0855C83.0105 69.4899 83.1363 68.7472 82.6341 68.4261C82.4031 68.3175 82.1543 68.2515 81.8998 68.2312C80.743 67.9896 80.0988 66.7922 79.236 65.9845C77.428 64.2918 74.6515 64.3362 72.1792 64.4839C71.4715 64.4864 70.7693 64.6088 70.1024 64.8459C69.3486 65.2239 68.6822 65.7554 68.1458 66.4061C66.82 67.8202 65.5291 69.3014 64.6544 71.0313C63.7798 72.7613 63.3489 74.7825 63.8243 76.6618C63.7774 76.481 65.3511 75.2977 65.5469 75.1081C66.1619 74.5125 66.2179 74.2281 66.5507 73.5428C67.3266 71.9454 68.4054 71.777 70.1584 71.996Z" fill="#2F2E41"/>
<path opacity="0.1" d="M56.8389 98.7998L57.4633 113.367L66.7196 124.222L58.2957 112.118L56.8389 98.7998Z" fill="black"/>
<path opacity="0.1" d="M40.1914 102.754L47.4747 119.61L56.839 127.309L46.8502 120.442L40.1914 102.754Z" fill="black"/>
<path d="M79.7529 116.415L84.1538 119.443C84.373 119.615 84.5261 119.858 84.5873 120.131C84.6485 120.403 84.6142 120.688 84.49 120.938L83.9014 122.152L84.0377 122.246L83.369 123.626L83.2327 123.533L78.3851 133.536C78.3348 133.668 78.2555 133.786 78.1532 133.883C78.0509 133.98 77.9281 134.052 77.794 134.095C77.6599 134.138 77.5178 134.15 77.3784 134.13C77.239 134.111 77.1057 134.06 76.9885 133.982L72.8528 131.137C72.6008 130.939 72.4248 130.659 72.3544 130.346C72.284 130.033 72.3234 129.706 72.4662 129.418L78.5866 116.788C78.6286 116.678 78.6948 116.579 78.7803 116.498C78.8657 116.418 78.9682 116.357 79.0803 116.321C79.1923 116.286 79.3109 116.275 79.4273 116.292C79.5438 116.308 79.6551 116.35 79.7529 116.415Z" fill="#3F3D56"/>
<path d="M72.9219 129.308L77.6585 132.566L83.8377 119.815L79.1007 116.557L72.9219 129.308Z" fill="white"/>
<path d="M70.8658 126.501C70.8658 126.501 79.1203 132.221 76.2437 134.01C73.3671 135.799 67.375 127.859 67.375 127.859L70.8658 126.501Z" fill="#A0616A"/>
<path d="M46.3304 84.1289C46.3304 84.1289 35.5094 87.2504 38.6308 96.8228C39.3838 99.1319 40.2942 101.611 41.2422 104.043C44.2243 111.692 47.579 118.881 47.579 118.881L56.9847 127.385L69.6372 130.951L71.0939 129.702C71.0939 129.702 71.5101 125.748 69.6372 125.332C67.7644 124.916 64.851 123.251 64.851 123.251L57.3595 112.222C57.3595 112.222 57.1514 84.7532 46.3304 84.1289Z" fill="#D0CDE1"/>
<path d="M252.007 248.039L388.049 248.039V109.7L252.007 109.7L252.007 248.039Z" fill="#2CC597"/>
<path d="M257.148 113.212H378.337H385.206V120.572V242.742H378.337V120.572H257.148V113.212Z" fill="#3F3D56"/>
<path opacity="0.3" d="M257.148 113.212H378.337H385.206V120.572V242.742H378.337V120.572H257.148V113.212Z" fill="black"/>
<path opacity="0.1" d="M276.774 120.571H282.171H378.337V138.234H282.171V242.741H257.148V120.571H276.774Z" fill="black"/>
<path d="M249.298 105.361V250.592H393.056V105.361H249.298ZM257.148 113.212H385.206V242.741H257.148V113.212Z" fill="#3F3D56"/>
<path d="M333.3 173.832C330.205 168.601 324.08 168.358 324.08 168.358C324.08 168.358 318.112 167.594 314.284 175.561C310.716 182.986 305.791 190.155 313.491 191.894L314.882 187.565L315.743 192.216C316.84 192.295 317.94 192.314 319.038 192.272C327.284 192.006 335.138 192.35 334.885 189.391C334.549 185.457 336.279 178.865 333.3 173.832Z" fill="#2F2E41"/>
<path d="M310.988 216.048L310.337 227.771L329.441 229.725L330.092 217.568L323.579 213.443L310.988 216.048Z" fill="#A0616A"/>
<path d="M362.329 241.773C361.756 236.235 339.012 233.721 333.546 233.196L331.502 232.004L330.851 225.057C330.851 225.057 310.662 223.321 309.142 223.104C307.623 222.887 306.32 225.709 306.32 226.36C306.32 226.831 306.036 230.192 304.895 232.184C302.432 234.163 294.923 240.391 294.923 242.75C294.923 245.572 300.893 281.066 300.893 281.066L301.544 288.447L307.623 289.533L307.188 266.521C307.188 266.521 309.359 253.279 306.32 249.588V248.069C306.32 248.069 315.234 245.746 318.376 243.218C319.286 243.022 321.844 242.54 323.257 242.959C323.451 243.073 323.674 243.191 323.923 243.31C323.955 243.338 323.985 243.369 324.013 243.401L324.037 243.364C328.101 245.266 338.527 247.666 342.791 246.983C346.079 246.481 349.441 247.093 352.343 248.72C349.955 251.759 351.691 260.443 351.691 260.443L351.908 279.112L354.948 282.803H359.072V272.6C359.072 272.6 362.98 248.069 362.329 241.773Z" fill="#2F2E41"/>
<path d="M322.168 188.152C326.124 188.152 329.332 184.945 329.332 180.988C329.332 177.032 326.124 173.824 322.168 173.824C318.211 173.824 315.004 177.032 315.004 180.988C315.004 184.945 318.211 188.152 322.168 188.152Z" fill="#A0616A"/>
<path d="M317.826 185.547C317.826 185.547 318.911 190.323 317.392 190.757C316.19 191.155 315.027 191.664 313.918 192.277L312.182 197.921V203.565L333.239 205.953L333.89 203.999V201.177L331.502 196.835L330.417 195.75C330.417 195.75 325.641 190.54 326.727 185.547H317.826Z" fill="#A0616A"/>
<path d="M336.605 202.806C336.605 202.806 337.256 210.404 336.605 213.877C335.953 217.351 336.17 222.561 336.17 222.561L331.395 221.692V209.97L332.48 203.674L336.605 202.806Z" fill="#A0616A"/>
<path d="M324.83 172.812C327.275 172.812 329.258 170.829 329.258 168.383C329.258 165.938 327.275 163.955 324.83 163.955C322.384 163.955 320.401 165.938 320.401 168.383C320.401 170.829 322.384 172.812 324.83 172.812Z" fill="#2F2E41"/>
<path d="M319.935 167.218C319.935 166.125 320.34 165.07 321.072 164.257C321.803 163.444 322.81 162.93 323.897 162.815C323.743 162.799 323.587 162.79 323.431 162.79C322.257 162.79 321.13 163.257 320.3 164.087C319.469 164.918 319.003 166.044 319.003 167.218C319.003 168.393 319.469 169.519 320.3 170.35C321.13 171.18 322.257 171.647 323.431 171.647C323.587 171.647 323.743 171.638 323.897 171.622C322.81 171.507 321.803 170.993 321.072 170.18C320.34 169.367 319.935 168.312 319.935 167.218Z" fill="#2F2E41"/>
<path d="M331.931 173.328L325.88 170.158L317.525 171.455L315.796 179.09L320.099 178.925L321.302 176.12V178.878L323.287 178.802L324.44 174.336L325.16 179.09L332.219 178.946L331.931 173.328Z" fill="#2F2E41"/>
<path d="M307.284 281.156C307.284 281.156 310.365 282.606 311.271 283.15C312.177 283.693 315.801 282.606 315.076 285.868C314.351 289.129 311.271 292.21 311.271 292.21C311.271 292.21 309.821 293.841 309.821 294.928C309.821 296.015 306.197 304.351 301.848 303.988C297.499 303.626 298.224 299.277 298.224 299.277L299.13 294.565C299.13 294.565 300.942 286.592 301.305 286.774C301.667 286.955 302.573 288.223 302.573 288.223C302.573 288.223 307.103 286.411 307.284 281.156Z" fill="#D0CDE1"/>
<path d="M352.463 275.729C352.463 275.729 349.383 277.179 348.477 277.723C347.571 278.266 343.947 277.179 344.671 280.441C345.396 283.703 348.477 286.783 348.477 286.783C348.477 286.783 349.926 288.414 349.926 289.501C349.926 290.588 353.55 298.924 357.899 298.561C362.248 298.199 361.524 293.85 361.524 293.85L360.617 289.139C360.617 289.139 358.805 281.166 358.443 281.347C358.081 281.528 357.175 282.796 357.175 282.796C357.175 282.796 352.644 280.984 352.463 275.729Z" fill="#D0CDE1"/>
<path d="M328.579 224.079V222.356H328.196V221.59C328.196 221.414 328.161 221.24 328.094 221.077C328.027 220.915 327.928 220.767 327.804 220.642C327.679 220.518 327.531 220.419 327.369 220.352C327.206 220.285 327.032 220.25 326.856 220.25H322.262C321.906 220.25 321.566 220.391 321.314 220.642C321.063 220.894 320.922 221.235 320.922 221.59V234.416C320.922 234.771 321.063 235.112 321.314 235.363C321.566 235.615 321.906 235.756 322.262 235.756H326.856C327.212 235.756 327.552 235.615 327.804 235.363C328.055 235.112 328.196 234.771 328.196 234.416V226.376H328.579V224.653H328.196V224.079H328.579Z" fill="#D0CDE1"/>
<path d="M324.75 224.845C325.173 224.845 325.516 224.502 325.516 224.079C325.516 223.656 325.173 223.313 324.75 223.313C324.327 223.313 323.984 223.656 323.984 224.079C323.984 224.502 324.327 224.845 324.75 224.845Z" fill="#3F3D56"/>
<path d="M305.561 199.115L301.653 215.18C301.653 215.18 300.134 218.653 303.607 220.824C307.08 222.995 314.896 225.817 314.896 225.817C314.896 225.817 321.842 235.369 322.711 231.461C323.579 227.554 317.501 222.561 317.501 222.561L306.863 215.831L310.988 204.542L305.561 199.115Z" fill="#A0616A"/>
<path d="M333.782 219.304C333.782 219.304 337.039 218.87 336.821 222.56C336.604 226.251 332.263 226.685 332.263 226.685C332.263 226.685 330.309 234.934 327.487 233.415C324.664 231.895 329.006 223.646 329.006 223.646L332.697 220.823L333.782 219.304Z" fill="#A0616A"/>
<path d="M312.833 197.704L316.307 190.54L309.36 192.928C309.36 192.928 305.452 194.882 305.235 199.441C305.018 203.999 310.228 206.387 310.228 206.387C310.228 206.387 311.097 212.9 310.662 213.768C310.228 214.637 310.662 218.11 310.662 218.11C310.662 218.11 319.02 215.831 323.145 218.653C327.27 221.475 330.634 219.847 330.634 219.847C330.634 219.847 330.417 214.42 332.154 213.551C333.891 212.683 335.41 208.558 333.891 205.953C333.891 205.953 337.364 206.387 337.147 203.131C336.93 199.875 335.193 197.053 332.371 195.75C329.549 194.448 329.237 194.239 329.237 194.239L333.24 201.611V203.565C333.24 203.565 326.154 199.043 319.144 198.666C316.857 198.561 314.611 199.3 312.833 200.743L312.833 200.743V197.704Z" fill="#2F2E41"/>
</g>
<defs>
<clipPath id="clip0">
<rect width="393.056" height="304" fill="white"/>
</clipPath>
</defs>
</svg>
