<svg width="400" height="270" viewBox="0 0 400 270" fill="none" xmlns="http://www.w3.org/2000/svg">
<g clip-path="url(#clip0)">
<path d="M258.638 61.1408C266.213 61.1408 272.353 55.0007 272.353 47.4264C272.353 39.8521 266.213 33.7119 258.638 33.7119C251.064 33.7119 244.924 39.8521 244.924 47.4264C244.924 55.0007 251.064 61.1408 258.638 61.1408Z" fill="#F2F2F2"/>
<path d="M311.422 143.596L76.7188 0L4.87059e-05 125.395L234.704 268.99L311.422 143.596Z" fill="#F2F2F2"/>
<path d="M290.567 183.371C288.424 178.442 285.124 174.114 278.524 170.471C275.112 168.542 271.448 167.1 267.638 166.185C270.202 164.994 272.56 163.403 274.624 161.471C277.658 158.758 279.958 155.324 281.309 151.485C282.554 147.584 283.063 143.486 282.809 139.399C282.338 132.199 280.924 125.213 277.152 120.199C273.381 115.184 268.066 111.327 261.038 108.627C255.638 106.57 250.109 105.284 241.538 104.813V77.4268L224.394 88.1412V104.856H210.68V87.284L193.108 77.4268V104.856H155.779L167.779 125.427C171.487 125.432 173.998 125.775 175.28 126.413C176.476 126.925 177.459 127.833 178.065 128.985C178.622 130.056 178.88 132.585 178.88 136.485V210.714C178.88 214.571 178.622 217.057 178.065 218.171C177.508 219.286 177.208 220.271 175.88 220.872C174.551 221.472 174.508 221.429 170.822 221.429H170.78L155.779 242H193.065V269.429H210.637V242H224.352V269.429H241.495V241.829C252.638 241.272 260.566 239.815 266.952 237.415C275.224 234.329 281.567 229.829 286.11 223.914C290.652 218 292.495 208.957 292.881 201.971C293.181 195.757 292.495 187.742 290.567 183.371ZM210.637 127.999H210.641V127.429H222.624C229.366 127.429 251.832 125.183 252.205 143.53C252.582 161.878 222.624 161.128 222.624 161.128H210.641V159.714H210.637V127.999ZM210.637 180.285H224.352C227.137 180.285 236.72 180.71 240.209 180.868C241.631 180.92 243.039 181.171 244.392 181.614C244.885 181.781 245.352 181.97 245.858 182.18C247.971 182.863 249.966 183.872 251.768 185.171C252.943 185.947 253.976 186.918 254.823 188.043C255.191 188.55 255.528 189.078 255.835 189.624C256.646 190.997 257.249 192.483 257.622 194.034C258.03 195.532 258.242 197.076 258.252 198.628C258.252 201.967 257.635 204.731 256.113 207.071C254.052 210.526 250.671 212.973 246.865 214.7C237.025 219.174 224.352 218.857 224.352 218.857H210.637V180.285Z" fill="#3F3D56"/>
<path opacity="0.3" d="M262.349 48.0031C262.219 47.6819 261.98 47.4168 261.674 47.2544C261.484 47.1428 261.278 47.059 261.064 47.0057C261.208 46.9361 261.34 46.8437 261.455 46.7321C261.627 46.573 261.755 46.3738 261.83 46.1525C261.9 45.9256 261.929 45.6881 261.914 45.4511C261.913 45.0576 261.803 44.672 261.597 44.3368C261.367 44.0305 261.053 43.7973 260.694 43.6652C260.345 43.5298 259.975 43.4549 259.601 43.4439V41.8545L258.64 42.4763V43.4464H257.871V42.4266L256.886 41.8545V43.4464H254.793L255.466 44.6402C255.608 44.6305 255.751 44.6499 255.886 44.6974C255.954 44.7278 256.009 44.7805 256.042 44.8467C256.083 44.9879 256.099 45.1353 256.088 45.282V49.5899C256.098 49.7357 256.083 49.8823 256.042 50.0227C256.011 50.0874 255.994 50.1446 255.92 50.1794C255.845 50.2142 255.843 50.2117 255.636 50.2117H255.634L254.793 51.4056H256.883V52.9975H257.868V51.4056H258.637V52.9975H259.598V51.3957C260.085 51.387 260.566 51.3005 261.025 51.1395C261.451 50.9873 261.824 50.7152 262.099 50.356C262.339 49.9738 262.47 49.5336 262.479 49.0825C262.504 48.7177 262.46 48.3515 262.349 48.0031ZM257.868 44.7895H257.869V44.7564H258.54C258.918 44.7564 260.178 44.6261 260.199 45.6909C260.22 46.7557 258.54 46.7122 258.54 46.7122H257.869V46.6301H257.868V44.7895ZM257.868 47.824H258.637C258.793 47.824 259.331 47.8486 259.526 47.8578C259.606 47.8608 259.685 47.8754 259.761 47.9011C259.788 47.9108 259.814 47.9217 259.843 47.9339C259.962 47.9738 260.074 48.0324 260.174 48.1075C260.24 48.1529 260.298 48.2093 260.345 48.2742C260.418 48.3797 260.471 48.4975 260.502 48.6219C260.525 48.709 260.537 48.7985 260.538 48.8885C260.546 49.06 260.504 49.2301 260.418 49.3785C260.294 49.5758 260.113 49.7303 259.899 49.8213C259.499 49.9852 259.07 50.0673 258.637 50.0626H257.868V47.824Z" fill="#2CC597"/>
<path d="M342.061 203.914C344.837 203.914 347.088 201.664 347.088 198.887C347.088 196.111 344.837 193.86 342.061 193.86C339.285 193.86 337.034 196.111 337.034 198.887C337.034 201.664 339.285 203.914 342.061 203.914Z" fill="#FF6584"/>
<path d="M381.689 253.608V196.372" stroke="#3F3D56" stroke-width="2" stroke-miterlimit="10"/>
<path d="M381.689 204.465C386.159 204.465 389.783 200.842 389.783 196.371C389.783 191.901 386.159 188.277 381.689 188.277C377.219 188.277 373.595 191.901 373.595 196.371C373.595 200.842 377.219 204.465 381.689 204.465Z" fill="#3F3D56"/>
<path d="M365.748 228.418C354.056 246.348 357.26 269.152 357.26 269.152C357.26 269.152 379.419 262.886 391.11 244.957C402.802 227.027 399.598 204.224 399.598 204.224C399.598 204.224 377.439 210.489 365.748 228.418Z" fill="#3F3D56"/>
<path d="M357.197 268.943C357.197 268.943 356.912 268.897 356.389 268.791C355.971 268.707 355.396 268.586 354.693 268.419C348.413 266.938 331.718 261.933 320.803 248.774C307.141 232.297 307.716 209.276 307.716 209.276C307.716 209.276 328.605 212.671 342.37 227.468C342.966 228.103 343.547 228.762 344.111 229.445C355.998 243.782 357.106 263.072 357.194 267.841C357.206 268.555 357.197 268.943 357.197 268.943Z" fill="#2CC597"/>
<path d="M348.772 228.418C360.464 246.348 357.26 269.152 357.26 269.152C357.26 269.152 335.101 262.886 323.41 244.957C311.719 227.027 314.922 204.224 314.922 204.224C314.922 204.224 337.081 210.489 348.772 228.418Z" stroke="#3F3D56" stroke-width="2" stroke-miterlimit="10"/>
<path opacity="0.1" d="M357.194 267.842C356.885 268.214 356.613 268.532 356.389 268.793C355.892 269.359 355.611 269.655 355.611 269.655C355.611 269.655 355.269 269.226 354.693 268.42C351.535 264.018 341.377 248.364 342.161 230.282C342.204 229.334 342.273 228.396 342.37 227.469C342.967 228.105 343.547 228.764 344.111 229.446C355.998 243.783 357.107 263.073 357.194 267.842Z" fill="black"/>
<path d="M374.53 231.588C373.606 252.973 357.732 269.655 357.732 269.655C357.732 269.655 343.356 251.666 344.28 230.281C345.204 208.897 361.078 192.215 361.078 192.215C361.078 192.215 375.454 210.204 374.53 231.588Z" fill="#2CC597"/>
<path d="M357.732 269.049L361.222 193.087" stroke="#3F3D56" stroke-width="2" stroke-miterlimit="10"/>
<path d="M24.6309 269.133H387.216" stroke="#3F3D56" stroke-width="2" stroke-miterlimit="10"/>
<path d="M101.639 176.494C111.753 176.494 119.952 168.295 119.952 158.181C119.952 148.067 111.753 139.868 101.639 139.868C91.5252 139.868 83.3262 148.067 83.3262 158.181C83.3262 168.295 91.5252 176.494 101.639 176.494Z" fill="#2CC597"/>
<path d="M70.5112 219.594C80.6252 219.594 88.8242 211.395 88.8242 201.281C88.8242 191.167 80.6252 182.968 70.5112 182.968C60.3973 182.968 52.1982 191.167 52.1982 201.281C52.1982 211.395 60.3973 219.594 70.5112 219.594Z" fill="#2CC597"/>
<path d="M32.2007 254.013C42.3147 254.013 50.5137 245.814 50.5137 235.7C50.5137 225.586 42.3147 217.387 32.2007 217.387C22.0867 217.387 13.8877 225.586 13.8877 235.7C13.8877 245.814 22.0867 254.013 32.2007 254.013Z" fill="#2CC597"/>
<path d="M32.1855 268.819V235.6" stroke="#3F3D56" stroke-width="2" stroke-miterlimit="10"/>
<path d="M32.1849 240.298C34.7794 240.298 36.8826 238.194 36.8826 235.6C36.8826 233.006 34.7794 230.902 32.1849 230.902C29.5905 230.902 27.4873 233.006 27.4873 235.6C27.4873 238.194 29.5905 240.298 32.1849 240.298Z" fill="#3F3D56"/>
<path d="M32.1853 256.073C32.1853 256.073 31.5142 241.64 17.7568 243.317L32.1853 256.073Z" fill="#3F3D56"/>
<path d="M101.651 269.051V158.248" stroke="#3F3D56" stroke-width="2" stroke-miterlimit="10"/>
<path d="M101.652 162.893C104.246 162.893 106.349 160.79 106.349 158.196C106.349 155.601 104.246 153.498 101.652 153.498C99.0573 153.498 96.9541 155.601 96.9541 158.196C96.9541 160.79 99.0573 162.893 101.652 162.893Z" fill="#3F3D56"/>
<path d="M87.223 243.059C89.8175 243.059 91.9207 240.956 91.9207 238.362C91.9207 235.767 89.8175 233.664 87.223 233.664C84.6286 233.664 82.5254 235.767 82.5254 238.362C82.5254 240.956 84.6286 243.059 87.223 243.059Z" fill="#3F3D56"/>
<path d="M101.651 182.192C101.651 182.192 100.98 167.758 87.2227 169.436L101.651 182.192Z" fill="#3F3D56"/>
<path d="M101.651 223.109C101.651 223.109 100.98 208.676 87.2227 210.353L101.651 223.109Z" fill="#3F3D56"/>
<path d="M101.651 267.761C101.651 267.761 104.671 239.705 87.2227 238.363" stroke="#3F3D56" stroke-width="2" stroke-miterlimit="10"/>
<path d="M116.081 243.059C118.676 243.059 120.779 240.956 120.779 238.362C120.779 235.767 118.676 233.664 116.081 233.664C113.487 233.664 111.384 235.767 111.384 238.362C111.384 240.956 113.487 243.059 116.081 243.059Z" fill="#3F3D56"/>
<path d="M101.653 267.761C101.653 267.761 98.6329 239.705 116.081 238.363" stroke="#3F3D56" stroke-width="2" stroke-miterlimit="10"/>
<path d="M116.368 198.995C118.962 198.995 121.065 196.892 121.065 194.297C121.065 191.703 118.962 189.6 116.368 189.6C113.773 189.6 111.67 191.703 111.67 194.297C111.67 196.892 113.773 198.995 116.368 198.995Z" fill="#3F3D56"/>
<path d="M101.939 222.198C101.939 222.198 98.919 195.639 116.367 194.297" stroke="#3F3D56" stroke-width="2" stroke-miterlimit="10"/>
<path d="M70.5293 268.895V201.26" stroke="#3F3D56" stroke-width="2" stroke-miterlimit="10"/>
<path d="M70.5287 205.958C73.1231 205.958 75.2263 203.855 75.2263 201.26C75.2263 198.666 73.1231 196.562 70.5287 196.562C67.9343 196.562 65.8311 198.666 65.8311 201.26C65.8311 203.855 67.9343 205.958 70.5287 205.958Z" fill="#3F3D56"/>
<path d="M70.5291 220.392C70.5291 220.392 69.858 205.958 56.1006 207.636L70.5291 220.392Z" fill="#3F3D56"/>
<path d="M70.5291 267.604C70.5291 267.604 73.549 239.848 56.1006 238.506" stroke="#3F3D56" stroke-width="2" stroke-miterlimit="10"/>
<path d="M56.1 243.204C58.6944 243.204 60.7976 241.101 60.7976 238.506C60.7976 235.912 58.6944 233.809 56.1 233.809C53.5056 233.809 51.4023 235.912 51.4023 238.506C51.4023 241.101 53.5056 243.204 56.1 243.204Z" fill="#3F3D56"/>
<path d="M328.497 166.142C332.757 166.142 336.211 162.688 336.211 158.427C336.211 154.167 332.757 150.713 328.497 150.713C324.236 150.713 320.782 154.167 320.782 158.427C320.782 162.688 324.236 166.142 328.497 166.142Z" fill="#F2F2F2"/>
<path opacity="0.1" d="M246.865 214.699C237.025 219.174 224.352 218.856 224.352 218.856H210.638V216.238C216.226 214.678 223.954 213.714 232.495 213.714C237.303 213.697 242.105 214.026 246.865 214.699Z" fill="black"/>
<path opacity="0.1" d="M263.353 222.285C263.353 227.021 249.535 230.857 232.495 230.857C215.455 230.857 201.638 227.021 201.638 222.285C201.638 219.924 205.075 217.785 210.638 216.238V218.856H224.352C224.352 218.856 237.025 219.174 246.865 214.699C256.667 216.131 263.353 218.989 263.353 222.285Z" fill="black"/>
<path d="M236.437 168.914H223.308V182.067H236.437V168.914Z" fill="#2F2E41"/>
<path d="M228.19 178.216C228.19 178.216 229.276 182.02 227.375 182.291C226.194 182.475 225.076 182.941 224.114 183.65L227.646 188.269H234.167L238.242 184.193C238.242 184.193 232.808 180.118 233.895 177.673C234.982 175.228 228.19 178.216 228.19 178.216Z" fill="#FFB9B9"/>
<path opacity="0.1" d="M228.19 178.216C228.19 178.216 229.276 182.02 227.375 182.291C226.194 182.475 225.076 182.941 224.114 183.65L227.646 188.269H234.167L238.242 184.193C238.242 184.193 232.808 180.118 233.895 177.673C234.982 175.228 228.19 178.216 228.19 178.216Z" fill="black"/>
<path d="M229.82 225.491L236.069 227.664L240.416 227.936L240.144 224.132L231.179 221.48L229.82 225.491Z" fill="#FFB9B9"/>
<path d="M237.835 224.676C237.835 224.676 237.835 228.479 238.378 228.479C238.922 228.479 246.257 227.664 248.431 228.479C250.604 229.294 253.865 226.306 252.234 224.676C250.604 223.045 247.945 220.6 246.286 221.144C244.627 221.687 237.835 223.045 237.835 223.045L237.835 224.676Z" fill="#2F2E41"/>
<path d="M217.866 221.143C217.866 221.143 214.606 227.663 216.779 228.206C218.953 228.75 221.398 227.935 221.67 227.663C221.941 227.391 225.745 226.305 226.288 226.848C226.832 227.391 226.832 224.675 226.832 224.675L217.866 221.143Z" fill="#2F2E41"/>
<path d="M220.582 212.178C220.582 212.178 215.42 219.242 219.223 221.143C223.027 223.045 241.23 223.045 242.589 221.143C243.947 219.242 244.491 213.265 242.589 212.721C240.687 212.178 220.582 212.178 220.582 212.178Z" fill="#2F2E41"/>
<path opacity="0.2" d="M220.582 212.178C220.582 212.178 215.42 219.242 219.223 221.143C223.027 223.045 241.23 223.045 242.589 221.143C243.947 219.242 244.491 213.265 242.589 212.721C240.687 212.178 220.582 212.178 220.582 212.178Z" fill="black"/>
<path d="M230.363 180.118C233.814 180.118 236.612 177.32 236.612 173.869C236.612 170.418 233.814 167.62 230.363 167.62C226.912 167.62 224.114 170.418 224.114 173.869C224.114 177.32 226.912 180.118 230.363 180.118Z" fill="#FFB9B9"/>
<path d="M220.582 183.649L226.016 182.562C226.016 182.562 227.374 186.91 231.721 186.094C236.068 185.279 237.155 182.562 237.155 182.562C237.155 182.562 240.415 183.921 240.687 183.921C240.959 183.921 244.491 185.279 244.491 186.094C244.491 186.91 240.415 195.06 240.415 195.06L240.959 209.731L220.854 209.188L222.212 194.788L220.582 183.649Z" fill="#2CC597"/>
<path d="M217.594 190.714C217.594 190.714 215.964 205.113 217.05 206.2C218.137 207.287 222.484 210.275 222.484 210.275V207.015L220.311 202.94L222.484 193.431L217.594 190.714Z" fill="#FFB9B9"/>
<path d="M245.714 190.306C245.714 190.306 244.763 205.113 244.763 205.656C244.763 206.199 242.318 208.101 241.503 208.101C240.688 208.101 240.145 206.743 240.145 206.743L242.046 204.569L240.688 193.43L245.714 190.306Z" fill="#FFB9B9"/>
<path d="M243.133 211.09C243.133 211.09 255.359 204.298 255.631 211.09C255.902 217.882 249.382 220.599 249.382 220.599C249.382 220.599 232.537 225.65 231.858 223.804C231.179 221.958 229.82 218.969 230.907 218.697C231.994 218.426 233.352 217.882 233.896 218.426C234.439 218.969 241.231 214.35 241.231 214.35L243.133 211.09Z" fill="#2F2E41"/>
<path opacity="0.2" d="M248.839 210.275C248.839 210.275 246.394 211.362 245.578 212.177C244.763 212.992 241.231 214.351 241.231 214.351" stroke="black" stroke-width="2" stroke-miterlimit="10"/>
<path d="M222.212 184.193L220.582 183.649C220.582 183.649 214.605 189.898 216.506 191.528C218.408 193.158 219.495 193.702 220.038 194.245C220.582 194.789 223.299 195.06 223.299 195.06L222.212 184.193Z" fill="#2CC597"/>
<path d="M242.046 185.552L244.491 186.095C244.491 186.095 246.393 190.17 246.936 190.714C247.48 191.257 246.121 190.986 245.306 192.072C244.491 193.159 243.676 195.061 242.046 195.061C240.416 195.061 238.242 192.344 238.242 192.344L242.046 185.552Z" fill="#2CC597"/>
<path d="M221.126 213.535C221.126 213.535 210.801 206.2 207.269 211.633C203.737 217.067 222.484 224.403 225.201 225.489C227.918 226.576 230.363 227.663 230.363 227.663C230.363 227.663 232.808 221.686 232.808 220.599C232.808 219.512 230.906 219.512 230.363 219.512C229.82 219.512 227.374 218.969 226.831 218.154C226.288 217.339 221.126 213.535 221.126 213.535Z" fill="#2F2E41"/>
<path opacity="0.2" d="M215.42 211.634C215.42 211.634 218.137 213.807 220.582 214.351C223.027 214.894 223.842 216.253 223.842 216.253" stroke="black" stroke-width="2" stroke-miterlimit="10"/>
<path d="M219.251 201.418L219.468 212.922C219.475 213.302 219.633 213.664 219.905 213.928C220.178 214.193 220.544 214.339 220.924 214.335L242.331 214.094C242.696 214.09 243.046 213.948 243.31 213.696C243.574 213.444 243.732 213.101 243.753 212.737L244.403 201.474C244.414 201.278 244.385 201.082 244.318 200.898C244.251 200.714 244.147 200.545 244.012 200.403C243.878 200.26 243.715 200.147 243.535 200.069C243.355 199.991 243.161 199.951 242.965 199.951H220.691C220.5 199.951 220.31 199.989 220.134 200.063C219.957 200.137 219.797 200.246 219.663 200.383C219.529 200.519 219.424 200.681 219.353 200.859C219.282 201.037 219.248 201.227 219.251 201.418Z" fill="#575A89"/>
<path d="M216.776 183.718C217.359 182.431 218.142 181.224 218.516 179.862C218.963 178.229 218.789 176.501 218.736 174.809C218.651 173.313 218.778 171.811 219.114 170.351C219.456 168.883 220.222 167.548 221.318 166.514C224.166 163.972 229.376 163.79 232.853 164.848C234.224 165.265 235.684 166.059 236.023 167.451C236.075 167.661 236.098 167.878 236.155 168.086C236.44 169.122 237.5 169.778 237.882 170.782C238.377 172.081 237.614 173.494 237.514 174.88C237.398 176.499 238.194 178.028 238.978 179.448C239.444 180.293 239.929 181.192 239.883 182.156C239.844 182.683 239.684 183.194 239.414 183.649C238.915 184.473 238.214 185.157 237.378 185.636C236.541 186.116 235.597 186.375 234.633 186.389C234.007 186.44 233.38 186.292 232.842 185.967C231.994 185.382 231.745 184.206 231.922 183.191C232.099 182.176 232.614 181.258 233.018 180.31C233.141 180.02 233.253 179.724 233.356 179.425C234.608 178.726 235.572 177.608 236.08 176.267C236.587 174.926 236.604 173.449 236.127 172.097C235.651 170.745 234.713 169.605 233.477 168.878C232.242 168.15 230.79 167.883 229.376 168.123C227.963 168.362 226.68 169.094 225.753 170.188C224.827 171.282 224.317 172.668 224.313 174.101C224.31 175.535 224.813 176.923 225.734 178.022C226.654 179.121 227.934 179.858 229.346 180.105C229.65 181.639 229.512 183.227 228.947 184.685C228.434 185.871 227.789 186.995 227.024 188.037C226.712 188.572 226.295 189.038 225.799 189.408C225.472 189.602 225.122 189.752 224.756 189.854C223.221 190.348 221.605 190.745 220.008 190.523C218.412 190.301 216.831 189.338 216.286 187.82C215.81 186.491 216.193 185.005 216.776 183.718Z" fill="#2F2E41"/>
<path d="M230.06 174.118C233.723 174.118 236.692 172.436 236.692 170.36C236.692 168.285 233.723 166.603 230.06 166.603C226.398 166.603 223.429 168.285 223.429 170.36C223.429 172.436 226.398 174.118 230.06 174.118Z" fill="#2F2E41"/>
<path opacity="0.3" d="M331.379 158.875C331.278 158.626 331.093 158.42 330.855 158.294C330.707 158.207 330.547 158.142 330.381 158.1C330.493 158.046 330.596 157.975 330.685 157.888C330.818 157.764 330.918 157.609 330.976 157.437C331.03 157.261 331.053 157.077 331.041 156.892C331.041 156.587 330.955 156.287 330.795 156.027C330.616 155.789 330.373 155.607 330.093 155.505C329.822 155.399 329.534 155.341 329.244 155.333V154.098L328.497 154.581V155.335H327.899V154.542L327.134 154.098V155.335H325.508L326.031 156.262C326.141 156.255 326.253 156.27 326.357 156.307C326.41 156.33 326.453 156.371 326.479 156.423C326.51 156.533 326.522 156.647 326.514 156.761V160.109C326.522 160.222 326.51 160.336 326.479 160.445C326.454 160.495 326.441 160.54 326.383 160.567C326.326 160.594 326.324 160.592 326.163 160.592H326.161L325.508 161.519H327.132V162.756H327.898V161.519H328.495V162.756H329.242V161.512C329.62 161.505 329.994 161.438 330.351 161.313C330.682 161.194 330.972 160.983 331.185 160.704C331.372 160.407 331.473 160.065 331.48 159.714C331.5 159.431 331.466 159.146 331.379 158.875ZM327.898 156.378H327.898V156.353H328.42C328.713 156.353 329.692 156.251 329.708 157.079C329.725 157.906 328.42 157.872 328.42 157.872H327.898V157.809H327.898V156.378ZM327.898 158.736H328.495C328.616 158.736 329.034 158.755 329.186 158.763C329.248 158.765 329.309 158.776 329.368 158.796C329.389 158.804 329.41 158.812 329.432 158.822C329.524 158.853 329.611 158.898 329.689 158.957C329.741 158.992 329.786 159.036 329.822 159.086C329.879 159.168 329.92 159.26 329.944 159.356C329.962 159.424 329.971 159.494 329.972 159.564C329.978 159.697 329.946 159.829 329.879 159.944C329.783 160.098 329.642 160.218 329.476 160.288C329.165 160.416 328.831 160.479 328.495 160.476H327.898V158.736Z" fill="#2CC597"/>
<path d="M27.6353 193.142C31.8958 193.142 35.3497 189.688 35.3497 185.427C35.3497 181.167 31.8958 177.713 27.6353 177.713C23.3747 177.713 19.9209 181.167 19.9209 185.427C19.9209 189.688 23.3747 193.142 27.6353 193.142Z" fill="#F2F2F2"/>
<path opacity="0.3" d="M30.52 185.876C30.419 185.627 30.2333 185.421 29.9954 185.295C29.8474 185.208 29.6877 185.143 29.5212 185.101C29.6334 185.047 29.7361 184.976 29.8255 184.889C29.9585 184.765 30.0586 184.61 30.1167 184.438C30.171 184.262 30.1931 184.078 30.1821 183.893C30.1811 183.588 30.0959 183.288 29.9357 183.028C29.7569 182.79 29.5131 182.608 29.2337 182.506C28.9624 182.4 28.6751 182.342 28.3842 182.334V181.099L27.6374 181.582V182.336H27.04V181.543L26.2746 181.099V182.336H24.6484L25.1712 183.263C25.282 183.256 25.3932 183.271 25.4979 183.308C25.5505 183.331 25.5933 183.372 25.6193 183.424C25.6511 183.533 25.6631 183.648 25.6547 183.762V187.11C25.6629 187.223 25.6508 187.337 25.6193 187.446C25.595 187.496 25.5819 187.541 25.524 187.568C25.4662 187.595 25.4643 187.593 25.3038 187.593H25.3019L24.6485 188.52H26.2727V189.757H27.0381V188.52H27.6356V189.757H28.3824V188.513C28.7603 188.506 29.1347 188.439 29.4913 188.314C29.8224 188.195 30.1122 187.984 30.3259 187.705C30.5121 187.408 30.6141 187.066 30.6208 186.715C30.6405 186.432 30.6063 186.147 30.52 185.876ZM27.0382 183.379H27.0383V183.354H27.5604C27.854 183.354 28.8327 183.252 28.8489 184.08C28.8654 184.907 27.5604 184.873 27.5604 184.873H27.0383V184.81H27.0381L27.0382 183.379ZM27.0382 185.737H27.6356C27.7569 185.737 28.1744 185.756 28.3264 185.764C28.3884 185.766 28.4498 185.777 28.5086 185.797C28.5301 185.805 28.5504 185.813 28.5724 185.823C28.6649 185.854 28.7518 185.899 28.8299 185.958C28.8813 185.993 28.9264 186.037 28.963 186.087C29.0196 186.169 29.0609 186.261 29.0849 186.357C29.1027 186.425 29.1119 186.495 29.1124 186.565C29.1185 186.698 29.0862 186.83 29.0192 186.945C28.9233 187.099 28.7827 187.219 28.6163 187.289C28.3052 187.417 27.9717 187.48 27.6356 187.477H27.0382L27.0382 185.737Z" fill="#2CC597"/>
</g>
<defs>
<clipPath id="clip0">
<rect width="400" height="269.698" fill="white"/>
</clipPath>
</defs>
</svg>
