<svg xmlns="http://www.w3.org/2000/svg" width="271.133" height="298.752" viewBox="0 0 271.133 298.752">
    <defs>
        <style>
            .cls-1{fill:#fff}.cls-2{fill:#ffc400}.cls-3{fill:#281a29}
        </style>
    </defs>
    <g id="Group_32" transform="translate(-472.062 -276.471)">
        <path id="Path_41" d="M743.188 398.006l-.068-.319c-.03-.262-.065-.519-.119-.771l-.041-.2-.2-.682-.054-.116c-.081-.23-.179-.465-.289-.714l-.2-.484-.2-.346a8.843 8.843 0 0 0-1.363-1.782l-5.561-5.569a8.769 8.769 0 0 0-7.513-4.227q-.418 0-.844.041l-16.734 1.6 16.563-90.648.03-.249a8.577 8.577 0 0 0 .057-1.131l-.005-.636-.065-.319a7.662 7.662 0 0 0-.124-.8l-.222-.811-.057-.13c-.1-.284-.211-.557-.325-.806l-.206-.46-.176-.3a8.789 8.789 0 0 0-1.374-1.8l-7.067-7.078-.051.051a8.807 8.807 0 0 0-6.486-2.845l-.46.011-157.188 11.961a72.9 72.9 0 0 0-65.952 58.744l-2.87 14.835a16.221 16.221 0 0 0 1.39 10.218l10.648 21.45a4.623 4.623 0 0 1 .381 2.978l-24.2 117.1a8.837 8.837 0 0 0 2.31 7.87l-.116.122.657.655.424.214 47.1 43.707c.13.122.26.235.384.338l-.005.014 2.924 2.715 3.832 3.5a8.859 8.859 0 0 0 11.311.536l64.792-49.07a2.3 2.3 0 0 1 1.147-.446l108.8-9.853a8.871 8.871 0 0 0 3.322-1.074 7.981 7.981 0 0 0 .8-.511 9.047 9.047 0 0 0 1.534-1.355 6.451 6.451 0 0 0 .787-.949l.244-.381.341-.622.124-.268a8.5 8.5 0 0 0 .468-1.29l.13-.511 19.511-106.876.068-.462a8.657 8.657 0 0 0 .059-1.131z" class="cls-1"/>
        <g id="Group_31" transform="translate(477.804 282.22)">
            <path id="Path_42" d="M474.48 513.374l-.06-.059.062.062zm216.68-129.1c.013.1.016.2.038.3.011.046.035.084.049.127a2.943 2.943 0 0 0 .2.522c.038.076.065.154.108.227a3.1 3.1 0 0 0 .481.641l7.067 7.078a3.107 3.107 0 0 1-.482-.641c-.043-.073-.07-.154-.108-.23a2.931 2.931 0 0 1-.2-.519 3.177 3.177 0 0 1-.086-.425c-.005-.062-.019-.122-.022-.184a3.157 3.157 0 0 1 .032-.711l18.583-101.707c.013-.065.022-.127.03-.192a2.762 2.762 0 0 0 .022-.471l-.005-.051c0-.054-.014-.1-.019-.154-.014-.114-.019-.23-.043-.341-.008-.038-.032-.07-.04-.108a2.92 2.92 0 0 0-.189-.5 2.473 2.473 0 0 0-.105-.227 3.029 3.029 0 0 0-.465-.617v-.005l-7.067-7.078a3.076 3.076 0 0 1 .468.622c.043.073.068.151.105.227a2.891 2.891 0 0 1 .187.5 2.523 2.523 0 0 1 .084.449c.005.051.019.1.022.154a3.047 3.047 0 0 1-.046.714l-18.587 101.703c-.008.051-.016.1-.022.154a2.826 2.826 0 0 0-.022.476.774.774 0 0 0 .011.081c.003.065.013.125.022.184zm42.254 10c0-.049-.014-.1-.019-.146a2.946 2.946 0 0 0-.043-.349c-.008-.038-.03-.07-.041-.105a2.764 2.764 0 0 0-.187-.492c-.035-.076-.062-.154-.1-.227a3.2 3.2 0 0 0-.463-.617h-.005l-7.067-7.078a3.036 3.036 0 0 1 .468.619c.041.073.068.151.1.227a3.186 3.186 0 0 1 .187.492 3.092 3.092 0 0 1 .084.452c.005.051.016.1.019.151a3.027 3.027 0 0 1-.046.711l-19.445 106.511a3.051 3.051 0 0 1-.316.879l-.073.13a3.085 3.085 0 0 1-.557.7c-.022.022-.051.038-.076.06a3.2 3.2 0 0 1-.657.433c-.07.035-.138.068-.208.1a3.164 3.164 0 0 1-.866.235l-108.71 9.84a8.092 8.092 0 0 0-4.087 1.579l-65.281 49.467a2.981 2.981 0 0 1-3.14.311l2.889 2.683 3.835 3.5a3.112 3.112 0 0 0 2.1.814 3.075 3.075 0 0 0 1.858-.619l64.8-49.078a8.069 8.069 0 0 1 4.087-1.579l108.709-9.845a3.139 3.139 0 0 0 1.16-.392 2.749 2.749 0 0 0 .287-.187 3.075 3.075 0 0 0 .668-.63c.046-.057.116-.087.157-.149s.059-.111.092-.165.049-.084.073-.127c.032-.062.073-.119.1-.184a2.823 2.823 0 0 0 .154-.433c.024-.087.043-.173.059-.262l19.449-106.518c.011-.062.022-.124.027-.187a2.837 2.837 0 0 0 .021-.476z" class="cls-2" transform="translate(-473.783 -277.899)"/>
            <path id="Path_43" d="M691.573 384.075l18.321-101.85a3.084 3.084 0 0 0-3.267-3.619L549.66 290.557a66.991 66.991 0 0 0-60.74 54.1l-2.867 14.835a10.37 10.37 0 0 0 .893 6.572l10.648 21.453a10.354 10.354 0 0 1 .866 6.694l-24.21 117.108a3.076 3.076 0 0 0 .92 2.88l47.761 44.323a3.078 3.078 0 0 0 3.957.195l65.245-49.517a7.913 7.913 0 0 1 4.084-1.58l108.826-9.88a3.081 3.081 0 0 0 2.753-2.521l19.186-106.673a3.08 3.08 0 0 0-3.327-3.611l-28.755 2.75a3.081 3.081 0 0 1-3.327-3.61z" class="cls-3" transform="translate(-474.185 -278.597)"/>
            <g id="Group_29" transform="translate(29.61 24.164)">
                <g id="Group_28" transform="translate(38.998 3.259)">
                    <g id="Group_27">
                        <path id="Path_44" d="M543.626 345.679a19.555 19.555 0 0 0-2.9-6.491 16.21 16.21 0 0 0-5.163-4.706 18.091 18.091 0 0 0-7.714-2.248 32.732 32.732 0 0 0 10.543-11.129A26.13 26.13 0 0 0 542 308.28a19.51 19.51 0 0 0-1.772-8.236 16.749 16.749 0 0 0-5.517-6.578 25.967 25.967 0 0 0-9.409-4.057 44.5 44.5 0 0 0-9.566-.644l-1.423 6.84a19.318 19.318 0 0 1 3.321.465 13.989 13.989 0 0 1 5.745 2.8 11.705 11.705 0 0 1 3.262 4.546 14.96 14.96 0 0 1 1.068 5.62 23.086 23.086 0 0 1-1.628 8.233 30.029 30.029 0 0 1-4.387 7.808 28.316 28.316 0 0 1-6.44 6.039 16.979 16.979 0 0 1-7.922 2.935l-.849.086-1.612 7.384a38.761 38.761 0 0 1 3.832-.747c1.231-.173 2.126-.292 2.694-.349a12.808 12.808 0 0 1 6.456.752 9.529 9.529 0 0 1 4.187 3.459 15.1 15.1 0 0 1 2.2 5.507 34.824 34.824 0 0 1 .641 6.867 55.807 55.807 0 0 1-.709 8.633 34.526 34.526 0 0 1-2.4 8.452 21.863 21.863 0 0 1-4.384 6.675 10.3 10.3 0 0 1-6.51 3.146 9.306 9.306 0 0 1-4.6-.657 16.782 16.782 0 0 1-4.879-3.459 24.318 24.318 0 0 0-1.839 8.392 8.849 8.849 0 0 0 1.342 5.171 8.18 8.18 0 0 0 3.4 2.832 13.171 13.171 0 0 0 4.528 1.093 28.08 28.08 0 0 0 4.738-.062 26.442 26.442 0 0 0 14.859-5.985 40.554 40.554 0 0 0 9.55-11.806 51.37 51.37 0 0 0 5.093-13.894 61.756 61.756 0 0 0 1.485-12.252 31.2 31.2 0 0 0-.929-7.61z" class="cls-1" transform="translate(-499.552 -288.736)"/>
                    </g>
                    <path id="Path_45" d="M538.528 349.188q0 7.213 2.545 9.288t7.641 1.55a25.56 25.56 0 0 0 7.638-1.918 31.8 31.8 0 0 0 6.367-3.7 41.683 41.683 0 0 0 5.661-5.109q2.686-2.892 5.38-6.142l4.812-.495a93.187 93.187 0 0 1-6.794 10.318 60.115 60.115 0 0 1-8.63 9.236 49.379 49.379 0 0 1-10.613 7.035 37.6 37.6 0 0 1-12.877 3.586q-10.1 1.039-16.16-3.573t-6.053-16.642a60.711 60.711 0 0 1 .849-9.423 79.812 79.812 0 0 1 2.618-11.024 65.557 65.557 0 0 1 4.741-11.311 50.312 50.312 0 0 1 7.216-10.294 38.1 38.1 0 0 1 9.9-7.808 33.362 33.362 0 0 1 12.874-3.87 21.733 21.733 0 0 1 7.714.338 10.793 10.793 0 0 1 4.812 2.548 8.924 8.924 0 0 1 2.4 4.068 19.217 19.217 0 0 1 .636 5.028 25.921 25.921 0 0 1-2.678 11.454 34.717 34.717 0 0 1-7.186 9.864 41.745 41.745 0 0 1-10.353 7.292 43.082 43.082 0 0 1-12.187 4.011q-.138 1.574-.208 2.991c-.046.955-.065 1.853-.065 2.702zm21.791-37.361a8.971 8.971 0 0 0-.784-4.141 2.524 2.524 0 0 0-2.756-1.268 8.413 8.413 0 0 0-5.233 3.075 34.47 34.47 0 0 0-4.812 7.04 62.7 62.7 0 0 0-4.033 9.5 93.424 93.424 0 0 0-2.9 10.575 21.433 21.433 0 0 0 7.852-3.056 27.734 27.734 0 0 0 6.58-5.747 27.04 27.04 0 0 0 4.46-7.568 23.124 23.124 0 0 0 1.626-8.41z" class="cls-1" transform="translate(-469.055 -271.72)"/>
                    <path id="Path_46" d="M559.12 360.757a21.616 21.616 0 0 0-.709 5.025 5.513 5.513 0 0 0 1.063 3.57q1.063 1.306 3.892 1.014c.471-.049 1.063-.133 1.769-.252a8.167 8.167 0 0 0 1.907-.549 35.874 35.874 0 0 1-3.391 7.632 20.014 20.014 0 0 1-3.819 4.638 11.657 11.657 0 0 1-3.962 2.318 19.1 19.1 0 0 1-3.824.817q-7.5.771-10.821-3.486t-3.325-11.047a35.776 35.776 0 0 1 .849-7.587l9.058-43.377-4.674.481 1.133-5.777 4.668-.479 4.246-19.963 20.942-4.985q-.706 2.909-1.417 6.513-.71 3.047-1.555 7.235t-1.836 9.1l8.487-.874-1.133 5.777-8.49.874z" class="cls-1" transform="translate(-434.189 -288.709)"/>
                </g>
                <path id="Path_47" d="M524.335 375.75l-20.041.617 15.354-73.484a35 35 0 0 0-19.809 32.739 25.881 25.881 0 0 0 .281 4.217 27.024 27.024 0 0 0 .568 2.7 6.7 6.7 0 0 0 .636 1.631 5.826 5.826 0 0 1 .495 1.012q-7.023.722-11.011-1.769t-3.987-9.7a28.1 28.1 0 0 1 4.4-14.746 52.959 52.959 0 0 1 11.462-13.134 68.022 68.022 0 0 1 15.9-9.842c5.893-2.632 11.868-7.843 17.715-8.444 1.039-.108 1.99.657 2.932.609s3.327 0 3.327 0z" class="cls-3" transform="translate(-482.254 -287.531)"/>
                <path id="Path_48" d="M517.818 396.9l-20.374 2.093 20.515-98.18a35 35 0 0 0-19.809 32.739 25.889 25.889 0 0 0 .281 4.216c.189 1.112.376 2.012.568 2.7a6.574 6.574 0 0 0 .638 1.631 5.987 5.987 0 0 1 .492 1.012q-7.023.722-11.011-1.769t-3.987-9.7a28.083 28.083 0 0 1 4.406-14.746A52.965 52.965 0 0 1 501 303.755a67.949 67.949 0 0 1 15.9-9.842 57.6 57.6 0 0 1 17.618-4.852c1.036-.105 2.029-.184 2.97-.233s1.888-.076 2.832-.081z" class="cls-2" transform="translate(-485.133 -285.459)"/>
            </g>
            <g id="Group_30" transform="translate(29.193 130.972)">
                <path id="Path_49" d="M551.053 332l-14.007 67.093a30.408 30.408 0 0 0 10.683-7.749q4.175-4.811 7.148-14.316l5.942-.614a54.862 54.862 0 0 1-5.025 12.26 38.959 38.959 0 0 1-6.3 8.29 33.446 33.446 0 0 1-6.932 5.309 45.725 45.725 0 0 1-6.791 3.175l-2.123 10.4a41.66 41.66 0 0 1-4.457 12.769 30.825 30.825 0 0 1-6.367 7.941 22.44 22.44 0 0 1-7.286 4.287 33.158 33.158 0 0 1-7.359 1.674A17.209 17.209 0 0 1 497 440.275q-4.669-2.913-4.665-9.85a15.475 15.475 0 0 1 2.12-8 26.108 26.108 0 0 1 5.444-6.5 40.073 40.073 0 0 1 7.43-5.077q4.1-2.191 8.068-3.873l1.7-7.814q-4.528 5.416-8.915 7.354a26.89 26.89 0 0 1-8.065 2.31 14.007 14.007 0 0 1-10.753-2.924q-4.386-3.578-4.384-12.5a47.208 47.208 0 0 1 1.131-9.312l9.62-46.406 20.377-2.1-10.188 49.156a15.135 15.135 0 0 0-.425 3.578 9.2 9.2 0 0 0 .919 4.222 3.005 3.005 0 0 0 3.327 1.569 9.5 9.5 0 0 0 6.718-4.014 27.241 27.241 0 0 0 4.316-8.722l9.9-47.285zm-50.936 95.649a4.6 4.6 0 0 0 1.206 2.991 3.88 3.88 0 0 0 3.605 1.182q2.26-.227 4.527-3.578a28.942 28.942 0 0 0 3.678-9.856l.847-4.19q-2.686 1.262-5.231 2.732a27.155 27.155 0 0 0-4.457 3.145 15.236 15.236 0 0 0-3.043 3.565 7.641 7.641 0 0 0-1.132 4.005z" class="cls-2" transform="translate(-484.979 -318.543)"/>
                <path id="Path_50" d="M548.855 330.28q17.834-1.834 18.11 20.352a6.5 6.5 0 0 0 1.56-.022 23.562 23.562 0 0 0 5.307-1.252 43.769 43.769 0 0 0 5.8-2.507 58.852 58.852 0 0 0 5.661-3.337q2.759-1.842 5.022-3.632l1.274 3.692A39.2 39.2 0 0 1 580.9 352.1a61.19 61.19 0 0 1-14.218 5.777 71.3 71.3 0 0 1-3.821 18.221 54.6 54.6 0 0 1-7.5 14.278A37.34 37.34 0 0 1 545.036 400a28.9 28.9 0 0 1-12.309 4.235 32.286 32.286 0 0 1-9.128-.262 15.108 15.108 0 0 1-11.814-9.609 26.538 26.538 0 0 1-1.7-10.159 60.413 60.413 0 0 1 .849-9.423 71.079 71.079 0 0 1 2.759-11.108 73.357 73.357 0 0 1 4.882-11.4 49.073 49.073 0 0 1 7.283-10.3 39.221 39.221 0 0 1 9.977-7.814 33.719 33.719 0 0 1 13.02-3.88zm-10.469 60.075a9.06 9.06 0 0 0 5.166-2.718 25.228 25.228 0 0 0 4.812-6.583 54.7 54.7 0 0 0 3.892-9.666 74.821 74.821 0 0 0 2.545-11.865 3.726 3.726 0 0 1-3.043-1.88 8.072 8.072 0 0 1-.779-3.67 9.643 9.643 0 0 1 1.206-5 7.093 7.093 0 0 1 3.178-2.948q-.28-4.349-1.482-6a3.962 3.962 0 0 0-3.892-1.369q-3.817.393-7.213 4.92a47.823 47.823 0 0 0-5.945 10.8 84.584 84.584 0 0 0-4.1 13.153 55.576 55.576 0 0 0-1.555 12.119 36.37 36.37 0 0 0 .352 5.693 7.972 7.972 0 0 0 1.2 3.343 3.806 3.806 0 0 0 2.264 1.534 9.832 9.832 0 0 0 3.394.137z" class="cls-2" transform="translate(-442.174 -321.707)"/>
                <path id="Path_51" d="M564.5 330.616l-10.189 49.154a15.01 15.01 0 0 0-.427 3.581 9.224 9.224 0 0 0 .92 4.219 3.006 3.006 0 0 0 3.329 1.566 9.693 9.693 0 0 0 6.932-4.246 28.725 28.725 0 0 0 4.384-9.366l9.623-46.406 20.374-2.1-10.188 49.154a20.64 20.64 0 0 0-.563 4.587c0 1.98.468 3.3 1.415 3.96a6.549 6.549 0 0 0 4.384.682 10.525 10.525 0 0 0 2.832-.576q.844-.369 1.839-.757-.568 7.7-5.236 11.649a18.931 18.931 0 0 1-10.472 4.541q-5.939.609-9.55-2.556t-4.314-9.461a39.791 39.791 0 0 1-5.447 7.565 28.015 28.015 0 0 1-5.52 4.6 22.589 22.589 0 0 1-5.306 2.456 26.649 26.649 0 0 1-4.809.987 14.036 14.036 0 0 1-10.753-2.924q-4.39-3.582-4.387-12.5a47.46 47.46 0 0 1 1.13-9.315l9.623-46.406z" class="cls-2" transform="translate(-402.493 -327.022)"/>
            </g>
        </g>
    </g>
</svg>
