<svg width="414" height="304" viewBox="0 0 414 304" fill="none" xmlns="http://www.w3.org/2000/svg">
<g clip-path="url(#clip0)">
<path opacity="0.2" d="M54.8421 154.016C49.392 155.662 44.2907 159.649 42.9292 165.18C41.3721 171.536 44.9629 177.944 45.482 184.47C47.1583 205.854 16.7379 220.941 21.0776 241.946C22.8007 250.297 29.7655 256.441 36.6282 261.517C47.6221 269.622 59.82 276.782 73.3284 278.803C93.8313 281.875 115.253 272.847 135.182 278.552C151.256 283.156 163.556 296.647 179.519 301.625C191.67 305.416 204.762 303.922 217.385 302.387C224.192 301.561 231.323 300.608 236.816 296.524C247.027 288.921 247.669 273.906 254.506 263.146C265.066 246.553 288.22 243.294 307.634 246.519C327.047 249.744 345.9 257.683 365.569 257.037C369.772 256.896 374.078 256.326 377.745 254.263C382.204 251.757 385.216 247.34 387.88 242.971C404.526 215.558 413.663 184.246 414.373 152.182C414.488 146.672 414.292 140.924 411.701 136.061C408.425 129.909 401.877 126.229 395.359 123.753C379.707 117.796 362.416 116.822 347.078 110.104C332.285 103.624 320.304 92.2601 307.421 82.5213C281.748 63.1511 251.991 49.8988 220.419 43.7747C213.02 42.3451 205.34 41.324 197.988 42.9748C189.517 44.8766 182.216 50.1566 175.652 55.8407C158.186 70.9616 144.189 89.618 128.094 106.19C116.991 117.618 104.9 128.044 91.9636 137.346C86.0071 141.639 79.6763 146.736 73.0391 149.91C66.9635 152.812 61.2666 152.08 54.8421 154.016Z" fill="#75818B"/>
<path d="M132.693 19.6309C132.693 19.6309 116.249 41.4697 128.013 66.925C139.777 92.3803 107.51 133.28 107.51 133.28" stroke="#535461" stroke-width="2" stroke-miterlimit="10"/>
<path d="M140.066 11.4579C138.76 17.0783 132.51 20.4266 132.51 20.4266C132.51 20.4266 128.383 14.6616 129.689 9.0413C130.995 3.42097 134.369 -0.595377 137.245 0.0725962C140.121 0.740569 141.372 5.83758 140.066 11.4579Z" fill="#2CC597"/>
<path d="M135.867 10.4777C136.278 8.71315 136.074 7.15796 135.413 7.00405C134.752 6.85013 133.883 8.15578 133.472 9.92029C133.061 11.6848 133.265 13.24 133.926 13.3939C134.588 13.5478 135.457 12.2422 135.867 10.4777Z" fill="#2CC597"/>
<path opacity="0.3" d="M135.867 10.4777C136.278 8.71315 136.074 7.15796 135.413 7.00405C134.752 6.85013 133.883 8.15578 133.472 9.92029C133.061 11.6848 133.265 13.24 133.926 13.3939C134.588 13.5478 135.457 12.2422 135.867 10.4777Z" fill="black"/>
<path d="M137.224 36.4272C131.795 38.3843 125.588 34.9551 125.588 34.9551C125.588 34.9551 128.183 28.3562 133.616 26.4034C139.049 24.4505 144.253 25.127 145.253 27.8754C146.253 30.6239 142.653 34.4701 137.224 36.4272Z" fill="#2CC597"/>
<path d="M135.699 32.0947C137.402 31.4788 138.595 30.462 138.364 29.8236C138.133 29.1853 136.566 29.1672 134.863 29.7831C133.16 30.3991 131.966 31.4159 132.197 32.0542C132.428 32.6926 133.996 32.7107 135.699 32.0947Z" fill="#2CC597"/>
<path opacity="0.3" d="M135.699 32.0947C137.402 31.4788 138.595 30.462 138.364 29.8236C138.133 29.1853 136.566 29.1672 134.863 29.7831C133.16 30.3991 131.966 31.4159 132.197 32.0542C132.428 32.6926 133.996 32.7107 135.699 32.0947Z" fill="black"/>
<path d="M135.96 56.3276C130.531 58.2847 124.323 54.8555 124.323 54.8555C124.323 54.8555 126.919 48.2566 132.352 46.3037C137.785 44.3509 142.988 45.0274 143.988 47.7758C144.988 50.5243 141.388 54.3747 135.96 56.3276Z" fill="#2CC597"/>
<path d="M134.498 52.2944C136.203 51.6807 137.398 50.6653 137.168 50.0264C136.938 49.3874 135.37 49.367 133.665 49.9806C131.961 50.5943 130.766 51.6098 130.996 52.2487C131.226 52.8876 132.794 52.9081 134.498 52.2944Z" fill="#2CC597"/>
<path opacity="0.3" d="M134.498 52.2944C136.203 51.6807 137.398 50.6653 137.168 50.0264C136.938 49.3874 135.37 49.367 133.665 49.9806C131.961 50.5943 130.766 51.6098 130.996 52.2487C131.226 52.8876 132.794 52.9081 134.498 52.2944Z" fill="black"/>
<path d="M142.304 79.6713C136.875 81.6285 130.668 78.1993 130.668 78.1993C130.668 78.1993 133.263 71.6004 138.696 69.6475C144.13 67.6946 149.333 68.3711 150.333 71.1196C151.333 73.8681 147.733 77.727 142.304 79.6713Z" fill="#2CC597"/>
<path d="M140.843 75.6499C142.548 75.0362 143.743 74.0208 143.513 73.3818C143.283 72.7429 141.715 72.7224 140.01 73.3361C138.306 73.9498 137.11 74.9652 137.34 75.6042C137.57 76.2431 139.139 76.2636 140.843 75.6499Z" fill="#2CC597"/>
<path opacity="0.3" d="M140.843 75.6499C142.548 75.0362 143.743 74.0208 143.513 73.3818C143.283 72.7429 141.715 72.7224 140.01 73.3361C138.306 73.9498 137.11 74.9652 137.34 75.6042C137.57 76.2431 139.139 76.2636 140.843 75.6499Z" fill="black"/>
<path d="M138.176 101.021C132.747 102.978 126.54 99.5489 126.54 99.5489C126.54 99.5489 129.135 92.95 134.568 90.9971C140.002 89.0442 145.205 89.7207 146.205 92.4692C147.205 95.2177 143.61 99.0681 138.176 101.021Z" fill="#2CC597"/>
<path d="M136.727 96.6358C138.43 96.0198 139.624 95.003 139.393 94.3647C139.162 93.7263 137.594 93.7082 135.891 94.3242C134.188 94.9401 132.995 95.9569 133.226 96.5953C133.457 97.2336 135.024 97.2517 136.727 96.6358Z" fill="#2CC597"/>
<path opacity="0.3" d="M136.727 96.6358C138.43 96.0198 139.624 95.003 139.393 94.3647C139.162 93.7263 137.594 93.7082 135.891 94.3242C134.188 94.9401 132.995 95.9569 133.226 96.5953C133.457 97.2336 135.024 97.2517 136.727 96.6358Z" fill="black"/>
<path d="M112.713 42.0819C116.721 46.2344 123.805 45.911 123.805 45.911C123.805 45.911 124.388 38.8441 120.38 34.6916C116.372 30.5391 111.407 28.8288 109.288 30.8625C107.169 32.8962 108.705 37.9294 112.713 42.0819Z" fill="#2CC597"/>
<path d="M118.977 40.6083C119.466 40.1367 118.842 38.6977 117.584 37.3943C116.325 36.0908 114.909 35.4166 114.421 35.8882C113.932 36.3599 114.556 37.7988 115.814 39.1022C117.073 40.4057 118.489 41.0799 118.977 40.6083Z" fill="#2CC597"/>
<path opacity="0.3" d="M118.977 40.6083C119.466 40.1367 118.842 38.6977 117.584 37.3943C116.325 36.0908 114.909 35.4166 114.421 35.8882C113.932 36.3599 114.556 37.7988 115.814 39.1022C117.073 40.4057 118.489 41.0799 118.977 40.6083Z" fill="black"/>
<path d="M110.41 108.025C114.418 112.178 121.502 111.854 121.502 111.854C121.502 111.854 122.085 104.787 118.077 100.635C114.069 96.4825 109.104 94.7721 106.986 96.8058C104.867 98.8395 106.403 103.873 110.41 108.025Z" fill="#2CC597"/>
<path d="M116.67 106.558C117.158 106.086 116.534 104.647 115.276 103.343C114.018 102.04 112.602 101.366 112.113 101.837C111.625 102.309 112.249 103.748 113.507 105.051C114.765 106.355 116.181 107.029 116.67 106.558Z" fill="#2CC597"/>
<path opacity="0.3" d="M116.67 106.558C117.158 106.086 116.534 104.647 115.276 103.343C114.018 102.04 112.602 101.366 112.113 101.837C111.625 102.309 112.249 103.748 113.507 105.051C114.765 106.355 116.181 107.029 116.67 106.558Z" fill="black"/>
<path d="M115.725 65.3896C120.89 67.9679 127.455 65.2875 127.455 65.2875C127.455 65.2875 125.647 58.4333 120.486 55.855C115.325 53.2767 110.07 53.3023 108.756 55.9571C107.441 58.612 110.56 62.8113 115.725 65.3896Z" fill="#2CC597"/>
<path d="M121.123 61.8975C121.427 61.2899 120.358 60.1416 118.737 59.3326C117.116 58.5237 115.556 58.3605 115.253 58.9682C114.95 59.5758 116.018 60.7241 117.639 61.533C119.26 62.342 120.82 62.5052 121.123 61.8975Z" fill="#2CC597"/>
<path opacity="0.3" d="M121.123 61.8975C121.427 61.2899 120.358 60.1416 118.737 59.3326C117.116 58.5237 115.556 58.3605 115.253 58.9682C114.95 59.5758 116.018 60.7241 117.639 61.533C119.26 62.342 120.82 62.5052 121.123 61.8975Z" fill="black"/>
<path d="M117.891 88.6064C123.057 91.1847 129.621 88.5043 129.621 88.5043C129.621 88.5043 127.813 81.6501 122.652 79.0718C117.492 76.4935 112.237 76.5191 110.922 79.1739C109.608 81.8288 112.748 86.0536 117.891 88.6064Z" fill="#2CC597"/>
<path d="M123.291 85.1182C123.595 84.5106 122.526 83.3623 120.905 82.5533C119.284 81.7444 117.724 81.5812 117.421 82.1889C117.118 82.7965 118.186 83.9448 119.807 84.7537C121.428 85.5627 122.988 85.7259 123.291 85.1182Z" fill="#2CC597"/>
<path opacity="0.3" d="M123.291 85.1182C123.595 84.5106 122.526 83.3623 120.905 82.5533C119.284 81.7444 117.724 81.5812 117.421 82.1889C117.118 82.7965 118.186 83.9448 119.807 84.7537C121.428 85.5627 122.988 85.7259 123.291 85.1182Z" fill="black"/>
<path d="M53.4925 66.5723C53.4925 66.5723 83.5257 96.6055 66.5711 141.172C49.6165 185.739 95.6343 259.85 95.6343 259.85C95.6343 259.85 95.1408 259.778 94.2261 259.616C32.5343 248.729 1.90114 178.179 36.1932 125.771C48.9273 106.285 59.4149 83.429 53.4925 66.5723Z" fill="#2CC597"/>
<path d="M0 188.045C0 188.045 34.2708 182.587 37.3937 213.301C40.5166 244.015 103.293 248.273 103.293 248.273C103.293 248.273 102.868 248.554 102.115 249.056C50.2809 283.093 0.731794 270.729 8.19862 225.55C10.9811 208.748 10.7514 191.879 0 188.045Z" fill="#2CC597"/>
<g opacity="0.3">
<path opacity="0.3" d="M0 188.045C0 188.045 34.2708 182.587 37.3937 213.301C40.5166 244.015 103.293 248.273 103.293 248.273C103.293 248.273 102.868 248.554 102.115 249.056C50.2809 283.093 0.731794 270.729 8.19862 225.55C10.9811 208.748 10.7514 191.879 0 188.045Z" fill="white"/>
</g>
<path d="M44.8185 187.667C50.0232 187.667 54.2424 176.659 54.2424 163.08C54.2424 149.5 50.0232 138.492 44.8185 138.492C39.6138 138.492 35.3945 149.5 35.3945 163.08C35.3945 176.659 39.6138 187.667 44.8185 187.667Z" fill="#2CC597"/>
<path opacity="0.3" d="M44.8185 187.667C50.0232 187.667 54.2424 176.659 54.2424 163.08C54.2424 149.5 50.0232 138.492 44.8185 138.492C39.6138 138.492 35.3945 149.5 35.3945 163.08C35.3945 176.659 39.6138 187.667 44.8185 187.667Z" fill="black"/>
<path d="M43.9566 252.376C46.4372 249.895 43.9723 243.408 38.4511 237.887C32.9298 232.366 26.443 229.901 23.9623 232.381C21.4817 234.862 23.9466 241.349 29.4678 246.87C34.9891 252.391 41.4759 254.856 43.9566 252.376Z" fill="#2CC597"/>
<path opacity="0.3" d="M43.9566 252.376C46.4372 249.895 43.9723 243.408 38.4511 237.887C32.9298 232.366 26.443 229.901 23.9623 232.381C21.4817 234.862 23.9466 241.349 29.4678 246.87C34.9891 252.391 41.4759 254.856 43.9566 252.376Z" fill="black"/>
<path d="M307.987 112.943H84.9006C82.2048 112.943 79.6195 114.014 77.7134 115.92C75.8072 117.827 74.7363 120.412 74.7363 123.108V253.864C74.7363 256.56 75.8072 259.145 77.7134 261.052C79.6195 262.958 82.2048 264.029 84.9006 264.029H307.987C310.682 264.029 313.268 262.958 315.174 261.052C317.08 259.145 318.151 256.56 318.151 253.864V123.108C318.151 120.412 317.08 117.827 315.174 115.92C313.268 114.014 310.682 112.943 307.987 112.943Z" fill="url(#paint0_linear)"/>
<path d="M304.727 114.721H88.1553C82.3255 114.721 77.5996 119.447 77.5996 125.276V251.693C77.5996 257.523 82.3255 262.249 88.1553 262.249H304.727C310.557 262.249 315.283 257.523 315.283 251.693V125.276C315.283 119.447 310.557 114.721 304.727 114.721Z" fill="#75818B"/>
<path d="M315.283 140.539H77.5996V167.586H315.283V140.539Z" fill="#75818B"/>
<path opacity="0.3" d="M315.283 140.539H77.5996V167.586H315.283V140.539Z" fill="black"/>
<path d="M292.747 187.666H100.141V200.779H292.747V187.666Z" fill="#D6D6E3"/>
<path d="M116.122 252.417C126.533 252.417 134.974 243.977 134.974 233.565C134.974 223.153 126.533 214.713 116.122 214.713C105.71 214.713 97.2695 223.153 97.2695 233.565C97.2695 243.977 105.71 252.417 116.122 252.417Z" fill="#75818B"/>
<path opacity="0.3" d="M116.122 252.417C126.533 252.417 134.974 243.977 134.974 233.565C134.974 223.153 126.533 214.713 116.122 214.713C105.71 214.713 97.2695 223.153 97.2695 233.565C97.2695 243.977 105.71 252.417 116.122 252.417Z" fill="black"/>
<path d="M301.771 78.3444C302.076 79.3066 302.722 80.124 303.588 80.6419C307.498 83.2245 315.999 82.6756 317.02 82.6756C317.237 82.6756 317.522 83.0628 317.837 83.7137C319.339 86.8111 321.666 95.8904 321.823 97.9326C322.032 100.405 324.329 111.973 328.09 116.283C328.205 116.415 328.32 116.538 328.431 116.653C332.119 120.359 336.446 116.283 336.446 116.283L337.067 114.126C336.893 114.977 336.697 115.968 336.502 117.078C336.404 117.636 336.306 118.227 336.212 118.835C335.652 122.264 335.357 125.73 335.332 129.204C335.322 130.465 335.376 131.726 335.493 132.982C335.527 133.331 335.566 133.676 335.612 134.012C335.804 135.541 335.898 137.082 335.893 138.624C335.859 147.78 333.523 159.169 333.523 159.169L333.613 159.139C333.557 159.424 333.523 159.565 333.523 159.565L333.659 159.522C333.594 159.945 333.532 160.377 333.472 160.82C332.681 166.564 332.226 173.711 332.009 177.838C331.896 180.015 331.993 182.198 332.298 184.356L336.451 213.59V227.205C336.437 229.268 336.688 231.324 337.199 233.323C338.552 238.466 337.438 256.421 336.812 264.939C336.638 267.262 336.502 268.887 336.463 269.355V269.495L336.582 269.449C336.582 269.546 336.582 269.597 336.582 269.597C336.76 269.522 336.945 269.467 337.136 269.436C335.489 271.989 332.507 276.209 330.213 276.92C328.862 277.331 327.66 278.128 326.754 279.213L326.695 279.294L326.61 279.413C326.326 279.792 326.154 280.243 326.112 280.715C326.079 280.634 326.053 280.55 326.035 280.464C325.861 281.412 326.431 282.28 328.222 282.702C329.266 282.901 330.329 282.986 331.392 282.957C337.604 282.957 348.627 281.047 349.844 278.992V271.903L350.044 271.967V272.031L350.806 272.282L352.895 265.27C355.401 263.415 353.32 230.217 352.895 222.588C352.512 215.636 356.813 187.981 357.575 183.11L357.473 182.986L357.587 182.276C357.741 182.387 357.883 182.512 358.013 182.65C358.263 182.947 358.481 183.27 358.664 183.612C359.023 184.221 359.332 184.858 359.587 185.518C363.791 196.001 365.684 225.979 365.684 228.668V256.859C365.675 259.641 366.062 262.41 366.833 265.083C367.219 266.49 367.517 267.92 367.726 269.363C367.815 269.929 367.892 270.491 367.964 271.027C368.037 271.563 368.109 272.176 368.164 272.678C368.164 272.81 368.194 272.937 368.207 273.056C368.22 273.176 368.207 273.171 368.207 273.231C368.322 274.341 368.381 275.069 368.381 275.069C368.397 275.008 368.426 274.951 368.466 274.903L368.488 275.171C368.518 275.069 368.575 274.978 368.654 274.907C368.827 274.737 369.015 274.584 369.215 274.448V278.03L369.113 277.953V278.57C373.444 281.838 380.494 282.825 385.906 282.787C389.416 282.787 392.258 282.361 393.245 281.868C394.658 281.174 393.883 279.557 392.599 278.319C391.603 277.358 390.305 276.618 389.484 276.711C388.114 276.86 383.43 271.555 380.975 268.649L381.251 268.525L381.643 268.355V221.35C381.643 221.35 382.273 202.792 384.149 184.437C385.039 175.185 383.944 165.85 380.937 157.055L380.877 156.88L381.447 156.97C382.051 157.063 382.375 157.118 382.375 157.118C382.375 157.118 382.375 156.974 382.336 156.693H382.375C382.375 156.693 381.643 148.733 381.634 138.734C381.634 127.4 382.592 113.581 386.553 105.761C388.833 101.26 389.595 97.6773 389.531 94.8523C389.63 92.3665 388.915 89.9162 387.493 87.8747C386.897 87.0529 386.086 86.4112 385.149 86.0197L385.068 85.9729H385.025C384.341 85.6961 383.611 85.5517 382.872 85.5475H374.316C373.326 85.5483 372.353 85.2917 371.491 84.8029L368.143 82.9054C367.028 80.4675 366.867 77.4467 367.105 74.6131C367.105 74.3876 367.147 74.1622 367.169 73.9409L367.411 73.6856C367.598 73.4857 367.773 73.2602 367.943 73.0687C367.939 73.2366 367.926 73.4042 367.905 73.5708C367.862 73.8388 367.79 73.9962 367.675 74.0303C369.505 73.792 371.547 73.4304 372.67 72.0178C372.717 71.9625 372.759 71.903 372.802 71.8434C373.134 71.3061 373.409 70.7357 373.623 70.1416C373.78 69.7356 373.991 69.3522 374.248 69.0013C374.529 68.6354 374.895 68.3376 375.197 67.9887L375.248 67.9292C376.325 66.6528 376.384 64.8233 376.397 63.1555C376.418 59.1051 376.299 54.6463 373.589 51.6085C371.338 49.0813 367.747 48.124 364.339 48.0134C360.932 47.9027 357.532 48.5154 354.128 48.5324C351.814 48.5324 349.023 48.4941 347.747 50.4087C347.121 51.349 347.044 52.5785 346.364 53.4805C345.972 53.9996 345.372 54.4463 345.338 55.093C345.334 55.3914 345.411 55.6854 345.56 55.9439V55.9737C346.385 57.599 348.138 58.6116 349.967 58.9307C349.658 59.3029 349.374 59.6952 349.116 60.1049C348 61.8905 347.41 63.9552 347.415 66.0614C347.415 66.3081 347.415 66.5507 347.44 66.7932C347.63 69.6538 348.905 72.3339 351.006 74.2855C350.971 74.5238 350.937 74.7621 350.899 74.9961L350.976 75.0641C351.217 75.2825 351.468 75.4896 351.729 75.6853L351.822 75.7576C351.822 75.9065 351.822 76.0554 351.822 76.1831C351.822 76.4299 351.822 76.6809 351.797 76.9234C351.771 77.1659 351.797 77.3148 351.771 77.5105L351.716 77.4637L347.559 73.992L340.875 67.8058C340.875 67.8058 324.163 55.6419 323.325 61.4239C323.224 62.4508 323.507 63.4787 324.121 64.3085C327.188 68.9886 337.735 72.9709 337.735 72.9709C337.735 72.9709 344.024 79.6208 348.232 86.7898C348.083 86.8707 347.934 86.9472 347.776 87.0196C344.032 88.7597 338.569 88.0237 338.569 88.0237C332.26 89.0065 331.69 95.9202 331.724 98.7155C331.724 98.8474 331.724 98.975 331.724 99.0899C331.724 99.2048 331.724 99.2303 331.724 99.2941L323.351 79.6336L323.325 79.574C323.052 78.9339 322.622 78.3731 322.074 77.9432C321.527 77.5134 320.88 77.2285 320.194 77.1148C314.595 76.1746 300.601 74.2132 301.771 78.3444ZM336.825 269.376C336.947 269.347 337.071 269.324 337.195 269.308L337.157 269.368L336.825 269.376Z" fill="url(#paint1_linear)"/>
<path d="M378.659 265.355C378.659 265.355 386.59 275.324 388.424 275.12C390.257 274.916 394.525 278.983 392.087 280.225C389.649 281.468 375.613 282.259 368.687 276.971V269.002L378.659 265.355Z" fill="#ACA9C9"/>
<path d="M338.585 265.963C338.585 265.963 333.905 274.302 330.654 275.323C327.404 276.344 324.553 280.003 328.825 281.02C333.097 282.037 348.354 279.799 349.775 277.357V266.571L338.585 265.963Z" fill="#ACA9C9"/>
<path d="M332.711 184.041L336.753 212.879V226.285C336.74 228.319 336.986 230.346 337.484 232.318C338.803 237.394 337.718 255.102 337.106 263.505C336.906 266.245 336.753 267.997 336.753 267.997C339.395 266.776 350.584 270.639 350.584 270.639L351.716 266.789L352.618 263.726C355.06 261.896 353.043 229.149 352.618 221.605C352.341 216.453 354.639 199.749 356.111 189.738C356.536 186.909 356.881 184.633 357.09 183.263C357.221 182.412 357.294 181.94 357.294 181.94C357.742 182.305 358.115 182.755 358.391 183.263C358.742 183.864 359.042 184.493 359.289 185.143C363.382 195.486 365.246 225.056 365.246 227.689V255.497C365.237 258.241 365.614 260.972 366.365 263.611C366.868 265.536 367.237 267.493 367.467 269.469C367.756 271.678 367.892 273.456 367.892 273.456C368.096 272.235 380.707 266.742 380.707 266.742V220.367C380.707 220.367 381.315 202.072 383.149 183.956C383.937 175.716 383.143 167.4 380.809 159.458C380.303 157.727 379.796 156.259 379.358 155.097C378.614 153.119 378.082 152.025 378.082 152.025H336.54C335.842 152.157 335.263 153.561 334.74 155.693C334.4 157.122 334.102 158.875 333.842 160.798C333.072 166.461 332.63 173.511 332.417 177.587C332.31 179.743 332.408 181.904 332.711 184.041Z" fill="#618FD8"/>
<g opacity="0.1">
<path opacity="0.1" d="M379.974 266.873V220.498C379.974 220.498 380.583 202.204 382.416 184.087C384.25 165.971 377.311 152.152 377.311 152.152H378.124C378.124 152.152 385.037 165.984 383.229 184.087C381.421 202.191 380.787 220.498 380.787 220.498V266.873C380.787 266.873 368.176 272.366 367.972 273.587C367.972 273.587 367.972 273.315 367.908 272.847C370.657 270.937 379.974 266.873 379.974 266.873Z" fill="black"/>
<path opacity="0.1" d="M337.972 267.87C337.589 267.878 337.209 267.956 336.854 268.1V267.896C337.225 267.858 337.599 267.85 337.972 267.87Z" fill="black"/>
<path opacity="0.1" d="M351.906 263.827C354.348 261.997 352.332 229.25 351.906 221.706C351.481 214.163 356.586 182.045 356.586 182.045C356.854 182.251 357.09 182.495 357.288 182.768C356.54 187.567 352.353 214.852 352.723 221.706C353.149 229.233 355.165 261.98 352.723 263.827L350.69 270.741L349.949 270.494L351.906 263.827Z" fill="black"/>
</g>
<path d="M341.024 101.816L336.769 116.869C336.769 116.869 332.293 121.124 328.635 116.869C324.976 112.614 322.721 101.208 322.499 98.7657C322.278 96.3236 319.04 83.7129 317.819 83.7129C316.598 83.7129 304.396 84.5256 302.971 79.4583C301.831 75.3824 315.454 77.331 320.908 78.2458C321.58 78.3601 322.212 78.6424 322.745 79.0664C323.278 79.4904 323.696 80.0423 323.959 80.6709L332.323 100.646C332.323 100.646 336.752 95.5109 341.024 101.816Z" fill="#F7C4A7"/>
<path d="M368.483 66.832C368.483 66.832 363.194 81.6806 369.908 86.9691C376.622 92.2575 345.899 93.6828 345.899 93.6828L350.069 89.7175C350.069 89.7175 353.017 78.0216 350.984 68.2573L368.483 66.832Z" fill="#F7C4A7"/>
<path opacity="0.1" d="M361.973 86.9688C361.973 86.9688 367.363 85.6456 367.363 84.2246L372.141 86.9688H384.144C384.144 86.9688 392.891 91.8489 385.569 106.497C378.247 121.146 381.501 157.127 381.501 157.127C381.501 157.127 355.468 152.447 333.905 159.569C333.905 159.569 337.16 143.5 335.939 134.348C334.718 125.196 337.973 112.382 337.973 112.382L339.802 104.651C339.802 104.651 339.7 97.4181 332.174 101.09C332.174 101.09 331.055 90.615 338.785 89.394C338.785 89.394 347.72 90.615 350.379 86.1392C350.379 86.1562 356.28 89.6152 361.973 86.9688Z" fill="black"/>
<path d="M361.973 86.5645C361.973 86.5645 367.364 85.2414 367.364 83.8203L370.865 85.8327C371.702 86.3121 372.649 86.5644 373.614 86.5645H382.008C382.885 86.562 383.751 86.7683 384.533 87.1663C385.315 87.5643 385.991 88.1426 386.505 88.8535C388.432 91.5637 390.16 96.9075 385.569 106.093C378.247 120.738 381.502 156.723 381.502 156.723C381.502 156.723 355.468 152.043 333.905 159.165C333.905 159.165 337.16 143.095 335.939 133.944C334.718 124.792 337.973 112.007 337.973 112.007L339.802 104.276C339.802 104.276 339.7 97.0436 332.174 100.715C332.174 100.715 331.085 90.5298 338.466 89.0748C338.671 89.0291 338.882 89.0148 339.092 89.0322C340.67 89.1981 348.026 89.73 350.383 85.7434C350.379 85.7476 356.28 89.2066 361.973 86.5645Z" fill="#E14B5A"/>
<path opacity="0.1" d="M382.519 105.072C382.519 105.072 376.009 109.139 365.432 105.072C365.432 105.072 353.838 100.817 350.175 92.4612C346.512 84.1051 368.683 93.8864 368.683 93.8864C368.683 93.8864 373.363 93.8864 374.784 92.8696C376.205 91.8527 386.178 100.596 382.519 105.072Z" fill="black"/>
<path d="M382.519 104.259C382.519 104.259 376.01 108.327 365.433 104.259C365.433 104.259 353.839 100.005 350.176 91.6487C346.512 83.2926 337.973 74.141 337.973 74.141C337.973 74.141 323.125 68.4441 323.933 62.7514C324.742 57.0588 341.02 69.0567 341.02 69.0567L347.529 75.1578L368.683 93.057C368.683 93.057 373.363 93.057 374.784 92.0401C376.205 91.0233 386.178 99.7835 382.519 104.259Z" fill="#F7C4A7"/>
<path opacity="0.1" d="M350.788 68.8647L368.279 67.4395C367.38 70.1285 366.768 72.9052 366.454 75.7232C364.42 77.8316 361.64 79.0575 358.712 79.1371C355.784 79.2167 352.942 78.1435 350.797 76.1486C351.242 73.7409 351.239 71.2715 350.788 68.8647Z" fill="black"/>
<path d="M358.621 78.527C364.798 78.527 369.806 73.5191 369.806 67.3416C369.806 61.1641 364.798 56.1562 358.621 56.1562C352.443 56.1562 347.436 61.1641 347.436 67.3416C347.436 73.5191 352.443 78.527 358.621 78.527Z" fill="#F7C4A7"/>
<path opacity="0.1" d="M364.76 69.7722C364.105 68.6915 365.437 67.2833 364.998 66.1005C364.594 65.0113 362.986 64.8241 362.446 63.8072C362.02 62.9861 362.446 61.9778 362.275 61.0715C362.033 59.9015 360.774 59.174 359.578 59.1144C358.383 59.0548 357.23 59.5016 356.094 59.8845C354.243 60.5099 352.294 60.9907 350.354 60.7695C348.414 60.5482 346.478 59.4931 345.614 57.7614C345.473 57.5092 345.399 57.2252 345.397 56.9361C345.431 56.2979 346.019 55.8596 346.397 55.3491C347.061 54.4599 347.138 53.2473 347.742 52.3198C348.976 50.4308 351.686 50.4776 353.941 50.4691C357.259 50.4691 360.561 49.8479 363.879 49.9585C367.198 50.0691 370.687 51.0094 372.886 53.5026C375.524 56.5021 375.643 60.8928 375.622 64.8922C375.622 66.5387 375.554 68.3299 374.503 69.602C374.197 69.9722 373.822 70.2785 373.529 70.6572C372.891 71.5081 372.721 72.5972 372.121 73.4609C371.057 74.9968 368.981 75.3713 367.13 75.618C367.675 75.5457 367.224 71.8995 367.13 71.5634C366.773 69.8871 366.385 69.9211 364.76 69.7722Z" fill="black"/>
<path d="M364.76 69.3679C364.105 68.2872 365.437 66.879 364.998 65.6962C364.594 64.607 362.986 64.4198 362.446 63.4029C362.02 62.5818 362.446 61.5735 362.275 60.6672C362.033 59.4972 360.774 58.7697 359.578 58.7101C358.383 58.6506 357.23 59.0973 356.094 59.4802C354.243 60.1056 352.294 60.5864 350.354 60.3652C348.414 60.1439 346.478 59.0888 345.614 57.3572C345.473 57.1049 345.399 56.8209 345.397 56.5318C345.431 55.8936 346.019 55.4553 346.397 54.9448C347.061 54.0556 347.138 52.843 347.742 51.9155C348.976 50.0265 351.686 50.0733 353.941 50.0648C357.259 50.0648 360.561 49.4436 363.879 49.5542C367.198 49.6648 370.687 50.6051 372.886 53.0983C375.524 56.0978 375.643 60.4885 375.622 64.4879C375.622 66.1344 375.554 67.9256 374.503 69.1977C374.197 69.5679 373.822 69.8742 373.529 70.2529C372.891 71.1038 372.721 72.193 372.121 73.0567C371.057 74.5926 368.981 74.967 367.13 75.2137C367.675 75.1414 367.224 71.4952 367.13 71.1591C366.773 69.4615 366.385 69.5126 364.76 69.3679Z" fill="#281C1C"/>
<path opacity="0.1" d="M382.416 105.582C382.416 105.582 376.923 91.3416 372.652 90.9375C368.38 90.5333 380.787 90.9375 380.787 90.9375L384.854 98.2596L382.416 105.582Z" fill="black"/>
<path d="M382.825 105.582C382.825 105.582 377.333 91.3416 373.061 90.9375C368.789 90.5333 381.196 90.9375 381.196 90.9375L385.263 98.2596L382.825 105.582Z" fill="#E14B5A"/>
<path d="M367.449 269.504C367.739 271.712 367.875 273.49 367.875 273.49C368.079 272.269 380.69 266.777 380.69 266.777V263.471C380.368 263.459 380.047 263.474 379.728 263.517C377.282 263.845 375.014 265.032 372.921 266.3C371.153 267.46 369.326 268.53 367.449 269.504Z" fill="#618FD8"/>
<path opacity="0.3" d="M367.449 269.504C367.739 271.712 367.875 273.49 367.875 273.49C368.079 272.269 380.69 266.777 380.69 266.777V263.471C380.368 263.459 380.047 263.474 379.728 263.517C377.282 263.845 375.014 265.032 372.921 266.3C371.153 267.46 369.326 268.53 367.449 269.504Z" fill="black"/>
<path d="M336.752 267.998C339.394 266.777 350.584 270.64 350.584 270.64L351.715 266.79C349.763 266.394 347.822 265.901 345.916 265.313C345.026 265.056 344.156 264.734 343.313 264.352C342.749 264.051 342.17 263.781 341.577 263.543C340.117 263.041 338.598 263.254 337.101 263.505C336.905 266.245 336.752 267.998 336.752 267.998Z" fill="#618FD8"/>
<path opacity="0.3" d="M336.752 267.998C339.394 266.777 350.584 270.64 350.584 270.64L351.715 266.79C349.763 266.394 347.822 265.901 345.916 265.313C345.026 265.056 344.156 264.734 343.313 264.352C342.749 264.051 342.17 263.781 341.577 263.543C340.117 263.041 338.598 263.254 337.101 263.505C336.905 266.245 336.752 267.998 336.752 267.998Z" fill="black"/>
<path opacity="0.4" d="M391.977 279.591C392.147 279.518 392.298 279.407 392.419 279.267C392.54 279.127 392.627 278.961 392.674 278.782C392.75 279.063 392.721 279.362 392.593 279.622C392.464 279.883 392.245 280.088 391.977 280.199C389.534 281.42 375.503 282.233 368.576 276.944V276.336C375.503 281.624 389.534 280.812 391.977 279.591Z" fill="white"/>
<path opacity="0.4" d="M328.719 280.403C332.974 281.42 348.248 279.182 349.669 276.74V277.349C348.244 279.791 332.991 282.029 328.719 281.012C326.975 280.586 326.418 279.735 326.592 278.804C326.728 279.493 327.366 280.063 328.719 280.403Z" fill="white"/>
<path opacity="0.1" d="M353.532 132.229C353.532 132.229 349.056 130.804 347.835 132.229C346.614 133.654 336.178 136.994 336.178 136.994" fill="black"/>
<path d="M302.889 76.3398H324.651V75.8804H302.889V76.3398Z" fill="#2CC597"/>
<path d="M302.889 76.8008H324.651V76.3413H302.889V76.8008Z" fill="#2CC597"/>
<path opacity="0.1" d="M302.889 76.8008H324.651V76.3413H302.889V76.8008Z" fill="black"/>
<path d="M302.889 77.2598H324.651V76.8003H302.889V77.2598Z" fill="#2CC597"/>
<path d="M302.889 77.7148H324.651V77.2553H302.889V77.7148Z" fill="#2CC597"/>
<path opacity="0.1" d="M302.889 77.7148H324.651V77.2553H302.889V77.7148Z" fill="black"/>
<path d="M302.889 78.1738H324.651V77.7143H302.889V78.1738Z" fill="#2CC597"/>
<path d="M302.889 78.6289H324.651V78.1694H302.889V78.6289Z" fill="#2CC597"/>
<path opacity="0.1" d="M302.889 78.6289H324.651V78.1694H302.889V78.6289Z" fill="black"/>
<path d="M302.889 79.0879H324.651V78.6284H302.889V79.0879Z" fill="#2CC597"/>
<path d="M302.889 79.5449H324.651V79.0854H302.889V79.5449Z" fill="#2CC597"/>
<path opacity="0.1" d="M302.889 79.5449H324.651V79.0854H302.889V79.5449Z" fill="black"/>
<path d="M302.889 72.6816H324.651V72.2221H302.889V72.6816Z" fill="#2CC597"/>
<path d="M318.283 61.8031L335.015 75.7188L335.308 75.3655L318.577 61.4498L318.283 61.8031Z" fill="#2CC597"/>
<path d="M303.028 54.4808L319.76 68.3965L320.054 68.0432L303.322 54.1275L303.028 54.4808Z" fill="#2CC597"/>
<path d="M302.889 73.1367H324.651V72.6772H302.889V73.1367Z" fill="#2CC597"/>
<path opacity="0.1" d="M302.889 73.1367H324.651V72.6772H302.889V73.1367Z" fill="black"/>
<path d="M302.889 73.5996H324.651V73.1401H302.889V73.5996Z" fill="#2CC597"/>
<path d="M302.889 74.0547H324.651V73.5952H302.889V74.0547Z" fill="#2CC597"/>
<path opacity="0.1" d="M302.889 74.0547H324.651V73.5952H302.889V74.0547Z" fill="black"/>
<path d="M302.889 74.5117H324.651V74.0522H302.889V74.5117Z" fill="#2CC597"/>
<path d="M302.889 74.9707H324.651V74.5112H302.889V74.9707Z" fill="#2CC597"/>
<path opacity="0.1" d="M302.889 74.9707H324.651V74.5112H302.889V74.9707Z" fill="black"/>
<path d="M302.889 75.4258H324.651V74.9663H302.889V75.4258Z" fill="#2CC597"/>
<path d="M302.889 75.8848H324.651V75.4253H302.889V75.8848Z" fill="#2CC597"/>
<path opacity="0.1" d="M302.889 75.8848H324.651V75.4253H302.889V75.8848Z" fill="black"/>
<path d="M300.13 93.7259L307.928 95.1738L310.75 79.9767L302.953 78.5287L300.13 93.7259Z" fill="#2CC597"/>
<path d="M307.147 87.1962C307.475 85.4288 307.025 83.8632 306.143 83.6994C305.26 83.5355 304.279 84.8353 303.951 86.6027C303.622 88.37 304.072 89.9356 304.954 90.0995C305.837 90.2634 306.818 88.9635 307.147 87.1962Z" fill="#2CC597"/>
<path opacity="0.1" d="M307.147 87.1962C307.475 85.4288 307.025 83.8632 306.143 83.6994C305.26 83.5355 304.279 84.8353 303.951 86.6027C303.622 88.37 304.072 89.9356 304.954 90.0995C305.837 90.2634 306.818 88.9635 307.147 87.1962Z" fill="black"/>
<path d="M301.465 125.802L309.263 127.25L312.085 112.053L304.288 110.605L301.465 125.802Z" fill="#2CC597"/>
<path d="M308.478 119.27C308.806 117.503 308.356 115.937 307.474 115.774C306.591 115.61 305.61 116.91 305.282 118.677C304.954 120.444 305.403 122.01 306.285 122.174C307.168 122.338 308.149 121.038 308.478 119.27Z" fill="#2CC597"/>
<path opacity="0.1" d="M308.478 119.27C308.806 117.503 308.356 115.937 307.474 115.774C306.591 115.61 305.61 116.91 305.282 118.677C304.954 120.444 305.403 122.01 306.285 122.174C307.168 122.338 308.149 121.038 308.478 119.27Z" fill="black"/>
<path d="M273.264 46.9588L269.489 53.9336L283.083 61.2901L286.858 54.3152L273.264 46.9588Z" fill="#2CC597"/>
<path d="M282.36 55.9854C282.791 55.1955 281.858 53.8557 280.276 52.9928C278.694 52.13 277.063 52.0709 276.632 52.8608C276.201 53.6507 277.134 54.9905 278.716 55.8533C280.298 56.7161 281.929 56.7753 282.36 55.9854Z" fill="#2CC597"/>
<path opacity="0.1" d="M282.36 55.9854C282.791 55.1955 281.858 53.8557 280.276 52.9928C278.694 52.13 277.063 52.0709 276.632 52.8608C276.201 53.6507 277.134 54.9905 278.716 55.8533C280.298 56.7161 281.929 56.7753 282.36 55.9854Z" fill="black"/>
<path d="M243.414 184.605L239.64 191.58L253.234 198.937L257.008 191.962L243.414 184.605Z" fill="#2CC597"/>
<path d="M251.142 193.413C251.569 192.623 250.634 191.29 249.053 190.434C247.472 189.579 245.844 189.525 245.417 190.315C244.99 191.104 245.925 192.438 247.506 193.293C249.087 194.149 250.715 194.202 251.142 193.413Z" fill="#2CC597"/>
<path opacity="0.1" d="M251.142 193.413C251.569 192.623 250.634 191.29 249.053 190.434C247.472 189.579 245.844 189.525 245.417 190.315C244.99 191.104 245.925 192.438 247.506 193.293C249.087 194.149 250.715 194.202 251.142 193.413Z" fill="black"/>
<path d="M225.151 71.0135L221.377 77.9883L234.971 85.3447L238.746 78.3699L225.151 71.0135Z" fill="#2CC597"/>
<path d="M232.876 79.8152C233.303 79.0258 232.367 77.6923 230.787 76.8368C229.206 75.9812 227.578 75.9277 227.15 76.7171C226.723 77.5065 227.659 78.84 229.239 79.6955C230.82 80.551 232.448 80.6046 232.876 79.8152Z" fill="#2CC597"/>
<path opacity="0.1" d="M232.876 79.8152C233.303 79.0258 232.367 77.6923 230.787 76.8368C229.206 75.9812 227.578 75.9277 227.15 76.7171C226.723 77.5065 227.659 78.84 229.239 79.6955C230.82 80.551 232.448 80.6046 232.876 79.8152Z" fill="black"/>
<path d="M248.041 46.9569L244.267 53.9316L257.861 61.2881L261.635 54.3133L248.041 46.9569Z" fill="#2CC597"/>
<path d="M255.765 55.7586C256.192 54.9691 255.257 53.6356 253.676 52.7801C252.095 51.9246 250.467 51.871 250.04 52.6605C249.613 53.4499 250.548 54.7834 252.129 55.6389C253.71 56.4944 255.338 56.548 255.765 55.7586Z" fill="#2CC597"/>
<path opacity="0.1" d="M255.765 55.7586C256.192 54.9691 255.257 53.6356 253.676 52.7801C252.095 51.9246 250.467 51.871 250.04 52.6605C249.613 53.4499 250.548 54.7834 252.129 55.6389C253.71 56.4944 255.338 56.548 255.765 55.7586Z" fill="black"/>
<path d="M270.893 75.3431L263.01 76.2051L264.69 91.5705L272.573 90.7085L270.893 75.3431Z" fill="#2CC597"/>
<path d="M268.041 86.7064C268.933 86.6089 269.498 85.0812 269.303 83.2943C269.107 81.5074 268.226 80.1379 267.333 80.2355C266.441 80.333 265.876 81.8607 266.072 83.6476C266.267 85.4345 267.149 86.804 268.041 86.7064Z" fill="#2CC597"/>
<path opacity="0.1" d="M268.041 86.7064C268.933 86.6089 269.498 85.0812 269.303 83.2943C269.107 81.5074 268.226 80.1379 267.333 80.2355C266.441 80.333 265.876 81.8607 266.072 83.6476C266.267 85.4345 267.149 86.804 268.041 86.7064Z" fill="black"/>
<path d="M324.944 159.482L317.061 160.344L318.741 175.709L326.624 174.847L324.944 159.482Z" fill="#2CC597"/>
<path d="M322.097 170.843C322.989 170.746 323.554 169.218 323.358 167.431C323.163 165.644 322.281 164.275 321.389 164.372C320.497 164.47 319.932 165.997 320.127 167.784C320.323 169.571 321.204 170.941 322.097 170.843Z" fill="#2CC597"/>
<path opacity="0.1" d="M322.097 170.843C322.989 170.746 323.554 169.218 323.358 167.431C323.163 165.644 322.281 164.275 321.389 164.372C320.497 164.47 319.932 165.997 320.127 167.784C320.323 169.571 321.204 170.941 322.097 170.843Z" fill="black"/>
<path d="M240.024 107.984L236.25 114.959L249.844 122.315L253.619 115.341L240.024 107.984Z" fill="#2CC597"/>
<path d="M247.746 116.79C248.173 116 247.238 114.667 245.657 113.811C244.076 112.956 242.448 112.902 242.021 113.692C241.593 114.481 242.529 115.815 244.11 116.67C245.69 117.526 247.318 117.579 247.746 116.79Z" fill="#2CC597"/>
<path opacity="0.1" d="M247.746 116.79C248.173 116 247.238 114.667 245.657 113.811C244.076 112.956 242.448 112.902 242.021 113.692C241.593 114.481 242.529 115.815 244.11 116.67C245.69 117.526 247.318 117.579 247.746 116.79Z" fill="black"/>
<path d="M205.719 98.1853L201.944 105.16L215.538 112.517L219.313 105.542L205.719 98.1853Z" fill="#2CC597"/>
<path d="M214.573 107.456C215.004 106.666 214.071 105.326 212.489 104.464C210.907 103.601 209.275 103.542 208.845 104.331C208.414 105.121 209.347 106.461 210.929 107.324C212.51 108.187 214.142 108.246 214.573 107.456Z" fill="#2CC597"/>
<path opacity="0.1" d="M214.573 107.456C215.004 106.666 214.071 105.326 212.489 104.464C210.907 103.601 209.275 103.542 208.845 104.331C208.414 105.121 209.347 106.461 210.929 107.324C212.51 108.187 214.142 108.246 214.573 107.456Z" fill="black"/>
<path d="M194.732 263.14L190.958 270.115L204.552 277.472L208.327 270.497L194.732 263.14Z" fill="#2CC597"/>
<path d="M202.457 271.944C202.884 271.155 201.948 269.821 200.368 268.966C198.787 268.11 197.159 268.057 196.732 268.846C196.304 269.635 197.24 270.969 198.821 271.824C200.401 272.68 202.029 272.734 202.457 271.944Z" fill="#2CC597"/>
<path opacity="0.1" d="M202.457 271.944C202.884 271.155 201.948 269.821 200.368 268.966C198.787 268.11 197.159 268.057 196.732 268.846C196.304 269.635 197.24 270.969 198.821 271.824C200.401 272.68 202.029 272.734 202.457 271.944Z" fill="black"/>
<path d="M184.842 265.827L183.396 273.625L198.593 276.444L200.04 268.647L184.842 265.827Z" fill="#2CC597"/>
<path opacity="0.05" d="M184.842 265.827L183.396 273.625L198.593 276.444L200.04 268.647L184.842 265.827Z" fill="black"/>
<path d="M194.903 271.83C195.067 270.947 193.767 269.966 191.999 269.638C190.232 269.31 188.666 269.76 188.503 270.642C188.339 271.525 189.639 272.506 191.406 272.834C193.174 273.162 194.739 272.712 194.903 271.83Z" fill="#2CC597"/>
<path opacity="0.1" d="M194.903 271.83C195.067 270.947 193.767 269.966 191.999 269.638C190.232 269.31 188.666 269.76 188.503 270.642C188.339 271.525 189.639 272.506 191.406 272.834C193.174 273.162 194.739 272.712 194.903 271.83Z" fill="black"/>
<path d="M186.265 270.503L184.818 278.301L200.016 281.12L201.463 273.323L186.265 270.503Z" fill="#2CC597"/>
<path d="M196.322 276.505C196.486 275.623 195.186 274.642 193.418 274.314C191.651 273.986 190.085 274.435 189.921 275.318C189.758 276.201 191.058 277.182 192.825 277.51C194.593 277.838 196.158 277.388 196.322 276.505Z" fill="#2CC597"/>
<path opacity="0.1" d="M196.322 276.505C196.486 275.623 195.186 274.642 193.418 274.314C191.651 273.986 190.085 274.435 189.921 275.318C189.758 276.201 191.058 277.182 192.825 277.51C194.593 277.838 196.158 277.388 196.322 276.505Z" fill="black"/>
<path d="M210.768 283.187L206.993 290.162L220.587 297.519L224.362 290.544L210.768 283.187Z" fill="#2CC597"/>
<path d="M218.496 291.991C218.923 291.202 217.988 289.868 216.407 289.013C214.826 288.157 213.198 288.103 212.771 288.893C212.343 289.682 213.279 291.016 214.86 291.871C216.441 292.727 218.068 292.78 218.496 291.991Z" fill="#2CC597"/>
<path opacity="0.1" d="M218.496 291.991C218.923 291.202 217.988 289.868 216.407 289.013C214.826 288.157 213.198 288.103 212.771 288.893C212.343 289.682 213.279 291.016 214.86 291.871C216.441 292.727 218.068 292.78 218.496 291.991Z" fill="black"/>
<path d="M200.879 285.87L199.433 293.668L214.63 296.487L216.077 288.69L200.879 285.87Z" fill="#2CC597"/>
<path opacity="0.05" d="M200.879 285.87L199.433 293.668L214.63 296.487L216.077 288.69L200.879 285.87Z" fill="black"/>
<path d="M210.936 291.871C211.1 290.988 209.8 290.007 208.032 289.679C206.265 289.351 204.699 289.801 204.536 290.683C204.372 291.566 205.672 292.547 207.439 292.875C209.207 293.203 210.772 292.753 210.936 291.871Z" fill="#2CC597"/>
<path opacity="0.1" d="M210.936 291.871C211.1 290.988 209.8 290.007 208.032 289.679C206.265 289.351 204.699 289.801 204.536 290.683C204.372 291.566 205.672 292.547 207.439 292.875C209.207 293.203 210.772 292.753 210.936 291.871Z" fill="black"/>
<path d="M202.303 290.55L200.856 298.348L216.054 301.167L217.501 293.37L202.303 290.55Z" fill="#2CC597"/>
<path d="M212.363 296.552C212.527 295.67 211.227 294.688 209.459 294.361C207.692 294.033 206.126 294.482 205.962 295.365C205.799 296.247 207.099 297.229 208.866 297.557C210.634 297.884 212.199 297.435 212.363 296.552Z" fill="#2CC597"/>
<path opacity="0.1" d="M212.363 296.552C212.527 295.67 211.227 294.688 209.459 294.361C207.692 294.033 206.126 294.482 205.962 295.365C205.799 296.247 207.099 297.229 208.866 297.557C210.634 297.884 212.199 297.435 212.363 296.552Z" fill="black"/>
<path d="M234.826 270.267L231.052 277.242L244.646 284.599L248.42 277.624L234.826 270.267Z" fill="#2CC597"/>
<path d="M242.547 279.069C242.975 278.28 242.039 276.946 240.458 276.091C238.877 275.235 237.25 275.182 236.822 275.971C236.395 276.76 237.33 278.094 238.911 278.949C240.492 279.805 242.12 279.859 242.547 279.069Z" fill="#2CC597"/>
<path opacity="0.1" d="M242.547 279.069C242.975 278.28 242.039 276.946 240.458 276.091C238.877 275.235 237.25 275.182 236.822 275.971C236.395 276.76 237.33 278.094 238.911 278.949C240.492 279.805 242.12 279.859 242.547 279.069Z" fill="black"/>
<path d="M224.937 272.952L223.49 280.75L238.688 283.569L240.135 275.772L224.937 272.952Z" fill="#2CC597"/>
<path opacity="0.05" d="M224.937 272.952L223.49 280.75L238.688 283.569L240.135 275.772L224.937 272.952Z" fill="black"/>
<path d="M234.993 278.955C235.156 278.072 233.856 277.091 232.089 276.763C230.322 276.435 228.756 276.885 228.592 277.767C228.429 278.65 229.729 279.631 231.496 279.959C233.263 280.287 234.829 279.837 234.993 278.955Z" fill="#2CC597"/>
<path opacity="0.1" d="M234.993 278.955C235.156 278.072 233.856 277.091 232.089 276.763C230.322 276.435 228.756 276.885 228.592 277.767C228.429 278.65 229.729 279.631 231.496 279.959C233.263 280.287 234.829 279.837 234.993 278.955Z" fill="black"/>
<path d="M226.36 277.634L224.913 285.432L240.111 288.251L241.557 280.454L226.36 277.634Z" fill="#2CC597"/>
<path d="M236.42 283.634C236.584 282.752 235.284 281.771 233.517 281.443C231.749 281.115 230.184 281.564 230.02 282.447C229.856 283.329 231.156 284.311 232.924 284.639C234.691 284.967 236.257 284.517 236.42 283.634Z" fill="#2CC597"/>
<path opacity="0.1" d="M236.42 283.634C236.584 282.752 235.284 281.771 233.517 281.443C231.749 281.115 230.184 281.564 230.02 282.447C229.856 283.329 231.156 284.311 232.924 284.639C234.691 284.967 236.257 284.517 236.42 283.634Z" fill="black"/>
</g>
<defs>
<linearGradient id="paint0_linear" x1="196.444" y1="264.029" x2="196.444" y2="112.943" gradientUnits="userSpaceOnUse">
<stop stop-color="#808080" stop-opacity="0.25"/>
<stop offset="0.54" stop-color="#808080" stop-opacity="0.12"/>
<stop offset="1" stop-color="#808080" stop-opacity="0.1"/>
</linearGradient>
<linearGradient id="paint1_linear" x1="-273358" y1="178098" x2="-273358" y2="48356.3" gradientUnits="userSpaceOnUse">
<stop stop-color="#808080" stop-opacity="0.25"/>
<stop offset="0.54" stop-color="#808080" stop-opacity="0.12"/>
<stop offset="1" stop-color="#808080" stop-opacity="0.1"/>
</linearGradient>
<clipPath id="clip0">
<rect width="414.398" height="304" fill="white"/>
</clipPath>
</defs>
</svg>
