<svg width="371" height="304" viewBox="0 0 371 304" fill="none" xmlns="http://www.w3.org/2000/svg">
<g clip-path="url(#clip0)">
<path d="M54.4525 259.255C77.8716 247.115 126.284 226.748 187.392 226.748C248.5 226.748 296.912 247.115 320.331 259.255C343.13 271.074 361.466 285.009 370.104 296.379C373.252 292.094 368.631 215.856 355.843 185.621C337.096 141.189 305.655 103.276 265.458 76.6318C225.262 49.9878 178.097 35.7971 129.872 35.8374C112.718 35.7905 95.7263 39.1464 79.8786 45.7107C64.031 52.275 49.6427 61.9174 37.5467 74.0798C37.0329 74.5935 36.5239 75.1108 36.0198 75.6316C8.95559 103.589 -3.68148 142.486 0.932362 181.123C4.21722 208.63 12.3128 266.166 23.7515 278.366C33.4377 271.155 43.7068 264.763 54.4525 259.255Z" fill="#F2F2F2"/>
<path d="M190.113 245.616C211.601 245.616 229.021 241.982 229.021 237.5C229.021 233.017 211.601 229.383 190.113 229.383C168.625 229.383 151.205 233.017 151.205 237.5C151.205 241.982 168.625 245.616 190.113 245.616Z" fill="#F2F2F2"/>
<path d="M229.639 54.1117C193.973 54.1085 166.034 47.6426 166.035 39.3913C166.036 34.4444 175.936 30.0314 193.197 27.2844C193.258 27.2742 193.322 27.2764 193.382 27.2907C193.443 27.305 193.501 27.3312 193.552 27.3678C193.602 27.4044 193.645 27.4506 193.678 27.5039C193.711 27.5572 193.733 27.6164 193.743 27.6782C193.752 27.74 193.75 27.8031 193.735 27.8639C193.721 27.9247 193.694 27.982 193.657 28.0326C193.62 28.0831 193.574 28.1259 193.52 28.1584C193.467 28.1909 193.408 28.2125 193.346 28.2219C177.086 30.8098 166.985 35.0897 166.984 39.3914C166.984 46.853 195.676 53.1593 229.639 53.1623C263.602 53.1654 292.296 46.8643 292.296 39.4027C292.297 35.0829 282.132 30.7908 265.768 28.2016C265.707 28.192 265.648 28.1703 265.594 28.1378C265.541 28.1053 265.494 28.0626 265.458 28.0121C265.421 27.9617 265.394 27.9044 265.38 27.8437C265.365 27.783 265.363 27.72 265.372 27.6583C265.382 27.5966 265.404 27.5375 265.437 27.4842C265.469 27.431 265.512 27.3847 265.563 27.3481C265.613 27.3115 265.671 27.2852 265.731 27.2707C265.792 27.2562 265.855 27.2539 265.917 27.2639C283.285 30.0121 293.246 34.4366 293.246 39.4028C293.245 47.654 265.306 54.1149 229.639 54.1117Z" fill="#3F3D56"/>
<path d="M198.084 56.8801C201.311 62.4064 205.932 66.9884 211.485 70.1678C217.039 73.3472 223.33 75.0124 229.729 74.9969C236.128 74.9813 242.411 73.2856 247.949 70.0792C253.487 66.8729 258.086 62.2684 261.286 56.7266C240.237 57.9358 219.138 57.9871 198.084 56.8801Z" fill="#2CC597"/>
<path d="M264.784 46.5789C266.34 41.1244 266.606 35.3827 265.559 29.808C264.512 24.2334 262.182 18.9789 258.754 14.4604C255.325 9.94191 250.892 6.28345 245.805 3.77457C240.718 1.26569 235.116 -0.0247429 229.444 0.00539895C223.772 0.0355408 218.185 1.38543 213.125 3.94824C208.065 6.51104 203.671 10.2164 200.291 14.7711C196.91 19.3258 194.636 24.6047 193.649 30.1902C192.661 35.7756 192.988 41.5142 194.601 46.9519C217.913 49.8632 241.505 49.7378 264.784 46.5789Z" fill="#2CC597"/>
<path d="M238.187 20.4102C240.546 20.4102 242.459 18.4976 242.459 16.1382C242.459 13.7788 240.546 11.8662 238.187 11.8662C235.828 11.8662 233.915 13.7788 233.915 16.1382C233.915 18.4976 235.828 20.4102 238.187 20.4102Z" fill="white"/>
<path d="M215.875 40.8201C219.807 40.8201 222.995 37.6323 222.995 33.7001C222.995 29.7678 219.807 26.5801 215.875 26.5801C211.943 26.5801 208.755 29.7678 208.755 33.7001C208.755 37.6323 211.943 40.8201 215.875 40.8201Z" fill="white"/>
<path d="M229.643 71.6749C232.002 71.6749 233.915 69.7622 233.915 67.4029C233.915 65.0435 232.002 63.1309 229.643 63.1309C227.284 63.1309 225.371 65.0435 225.371 67.4029C225.371 69.7622 227.284 71.6749 229.643 71.6749Z" fill="white"/>
<path d="M191.215 241.806C205.792 241.806 217.609 239.847 217.609 237.43C217.609 235.014 205.792 233.055 191.215 233.055C176.638 233.055 164.821 235.014 164.821 237.43C164.821 239.847 176.638 241.806 191.215 241.806Z" fill="#E6E6E6"/>
<path d="M103.25 288.061C127.774 288.061 147.655 283.913 147.655 278.797C147.655 273.681 127.774 269.533 103.25 269.533C78.7249 269.533 58.8438 273.681 58.8438 278.797C58.8438 283.913 78.7249 288.061 103.25 288.061Z" fill="#F2F2F2"/>
<path d="M284.097 304C320.665 304 350.309 297.815 350.309 290.187C350.309 282.558 320.665 276.374 284.097 276.374C247.53 276.374 217.886 282.558 217.886 290.187C217.886 297.815 247.53 304 284.097 304Z" fill="#F2F2F2"/>
<path d="M103.115 284.142C121.914 284.142 137.154 281.616 137.154 278.499C137.154 275.383 121.914 272.856 103.115 272.856C84.3158 272.856 69.0762 275.383 69.0762 278.499C69.0762 281.616 84.3158 284.142 103.115 284.142Z" fill="#E6E6E6"/>
<path d="M284.111 298.957C316.252 298.957 342.307 294.638 342.307 289.309C342.307 283.981 316.252 279.662 284.111 279.662C251.971 279.662 225.916 283.981 225.916 289.309C225.916 294.638 251.971 298.957 284.111 298.957Z" fill="#E6E6E6"/>
<path d="M27.4291 154.741C29.2642 154.741 30.7518 153.253 30.7518 151.418C30.7518 149.583 29.2642 148.096 27.4291 148.096C25.5941 148.096 24.1064 149.583 24.1064 151.418C24.1064 153.253 25.5941 154.741 27.4291 154.741Z" fill="white"/>
<path d="M260.016 203.157C261.851 203.157 263.339 201.669 263.339 199.834C263.339 197.999 261.851 196.512 260.016 196.512C258.181 196.512 256.693 197.999 256.693 199.834C256.693 201.669 258.181 203.157 260.016 203.157Z" fill="white"/>
<path d="M146.539 93.5477C146.539 101.937 154.296 100.668 163.864 100.668C173.433 100.668 181.19 101.937 181.19 93.5477C181.19 85.1589 177.401 70.2891 163.864 70.2891C149.862 70.2891 146.539 85.1589 146.539 93.5477Z" fill="#2F2E41"/>
<path d="M125.309 164.583C124.962 163.923 124.764 163.195 124.728 162.45C124.693 161.706 124.821 160.963 125.104 160.273C125.387 159.583 125.818 158.964 126.366 158.459C126.914 157.954 127.567 157.575 128.277 157.349L148.126 115.36L157.205 121.727L134.84 160.998C135.14 162.217 134.983 163.503 134.398 164.614C133.813 165.724 132.841 166.582 131.666 167.024C130.492 167.465 129.196 167.461 128.024 167.011C126.852 166.561 125.886 165.697 125.309 164.583V164.583Z" fill="#FFB8B8"/>
<path d="M142.317 120.935C142.223 120.621 142.197 120.289 142.242 119.964C142.288 119.638 142.403 119.327 142.579 119.05L148.751 109.375C149.437 107.84 150.703 106.64 152.273 106.038C153.842 105.435 155.586 105.48 157.123 106.162C158.659 106.843 159.863 108.107 160.47 109.674C161.076 111.242 161.036 112.986 160.359 114.525L157.25 125.61C157.162 125.926 157.006 126.22 156.793 126.47C156.581 126.721 156.317 126.923 156.02 127.063C155.722 127.202 155.398 127.276 155.069 127.279C154.741 127.282 154.416 127.214 154.116 127.08L143.574 122.366C143.274 122.232 143.006 122.035 142.789 121.788C142.573 121.541 142.411 121.25 142.317 120.935Z" fill="#2CC597"/>
<path d="M197.384 245.725L191.916 247.716L181.634 227.572L189.704 224.634L197.384 245.725Z" fill="#FFB8B8"/>
<path d="M187.442 247.576L197.987 243.736L200.405 250.376L183.219 256.633C182.902 255.761 182.759 254.835 182.8 253.908C182.84 252.981 183.063 252.071 183.455 251.23C183.847 250.389 184.401 249.633 185.085 249.006C185.769 248.379 186.57 247.893 187.442 247.576Z" fill="#2F2E41"/>
<path d="M182.456 232.983L161.624 196.528C161.423 196.175 161.319 195.775 161.323 195.369C161.328 194.963 161.44 194.565 161.649 194.217L171.029 178.583C171.252 178.212 171.575 177.912 171.961 177.717C172.347 177.523 172.781 177.442 173.211 177.483C173.641 177.525 174.051 177.688 174.393 177.954C174.734 178.219 174.993 178.576 175.14 178.982L192.876 228.095C193.071 228.63 193.059 229.218 192.842 229.744C192.625 230.271 192.219 230.696 191.704 230.938L185.42 233.915C185.116 234.058 184.785 234.133 184.449 234.133C184.045 234.133 183.648 234.027 183.298 233.825C182.948 233.624 182.658 233.333 182.456 232.983Z" fill="#2F2E41"/>
<path d="M163.124 100.212C169.563 100.212 174.782 94.9925 174.782 88.5538C174.782 82.1151 169.563 76.8955 163.124 76.8955C156.685 76.8955 151.466 82.1151 151.466 88.5538C151.466 94.9925 156.685 100.212 163.124 100.212Z" fill="#FFB8B8"/>
<path d="M146.543 141.361C137.362 121.003 146.617 109.625 151.023 105.679C152.292 104.54 153.937 103.911 155.642 103.912H172.065C173.244 103.912 174.404 104.214 175.434 104.788C176.464 105.362 177.33 106.19 177.95 107.193C178.57 108.197 178.924 109.342 178.977 110.52C179.03 111.698 178.781 112.87 178.253 113.925L167.274 135.882L146.632 141.559L146.543 141.361Z" fill="#2CC597"/>
<path d="M159.819 251.23L154 251.229L151.231 228.783L159.82 228.784L159.819 251.23Z" fill="#FFB8B8"/>
<path d="M149.843 249.566H161.066V256.633H142.776C142.776 254.759 143.521 252.961 144.846 251.636C146.171 250.311 147.969 249.566 149.843 249.566Z" fill="#2F2E41"/>
<path d="M157.353 242.661L148.036 241.586C147.734 241.551 147.443 241.456 147.178 241.308C146.913 241.159 146.681 240.959 146.494 240.72C146.308 240.48 146.171 240.206 146.091 239.913C146.012 239.62 145.992 239.314 146.031 239.013L154.347 176.405C154.376 176.187 154.364 175.965 154.312 175.751L145.954 141.269C145.875 140.951 145.866 140.62 145.928 140.298C145.99 139.976 146.121 139.672 146.312 139.406C147.608 137.619 152.049 133.455 165.258 133.376H165.272C165.712 133.376 166.143 133.503 166.513 133.74C166.883 133.978 167.177 134.317 167.36 134.718L169.122 138.594C169.253 138.882 169.458 139.129 169.716 139.312C172.142 141.029 183.891 150.665 176.992 171.821C170.211 192.615 161.524 232.984 159.851 240.865C159.744 241.378 159.464 241.837 159.058 242.167C158.652 242.497 158.145 242.677 157.621 242.676C157.532 242.676 157.442 242.671 157.353 242.661Z" fill="#2F2E41"/>
<path d="M203.699 91.4798C203.722 91.7415 203.765 92.001 203.828 92.2559L188 109.68L182.409 108.475L179.488 116.674L189.178 119.769C189.961 120.019 190.803 120.008 191.579 119.739C192.356 119.469 193.023 118.955 193.483 118.273L208.444 96.0609C209.455 96.1059 210.456 95.842 211.313 95.3044C212.17 94.7669 212.844 93.9811 213.243 93.0516C213.643 92.122 213.75 91.0928 213.551 90.1009C213.351 89.1089 212.854 88.2012 212.127 87.4984C211.399 86.7957 210.474 86.3312 209.476 86.1668C208.477 86.0024 207.452 86.1458 206.538 86.5781C205.623 87.0103 204.861 87.7108 204.354 88.5864C203.847 89.462 203.619 90.4712 203.699 91.4798H203.699Z" fill="#FFB8B8"/>
<path d="M187.521 110.419L183.851 120.563C183.747 120.852 183.582 121.115 183.366 121.334C183.151 121.553 182.892 121.723 182.605 121.832C182.318 121.942 182.011 121.988 181.705 121.968C181.398 121.948 181.1 121.863 180.83 121.717L171.361 116.616C169.887 116.074 168.688 114.969 168.027 113.544C167.366 112.119 167.298 110.49 167.836 109.014C168.375 107.538 169.477 106.337 170.9 105.673C172.324 105.008 173.953 104.936 175.43 105.471L185.937 107.599C186.238 107.66 186.522 107.785 186.77 107.965C187.018 108.146 187.224 108.378 187.375 108.646C187.525 108.913 187.616 109.21 187.641 109.516C187.666 109.822 187.625 110.13 187.521 110.419V110.419Z" fill="#2CC597"/>
<path d="M177.392 87.8511H172.781L170.747 82.1551L170.34 87.8511H168.136L166.949 84.5284L166.712 87.8511H150.336C150.336 84.578 151.636 81.4389 153.951 79.1244C156.265 76.81 159.404 75.5098 162.677 75.5098H165.051C168.324 75.5098 171.463 76.81 173.777 79.1244C176.092 81.4389 177.392 84.578 177.392 87.8511Z" fill="#2F2E41"/>
<path d="M54.2482 209.802H52.5869V208.141C52.5869 207.574 52.3619 207.031 51.9613 206.63C51.5607 206.23 51.0174 206.005 50.4509 206.005C49.8844 206.005 49.3411 206.23 48.9405 206.63C48.54 207.031 48.3149 207.574 48.3149 208.141V209.802H46.6536C46.0871 209.802 45.5438 210.027 45.1432 210.428C44.7426 210.828 44.5176 211.372 44.5176 211.938C44.5176 212.505 44.7426 213.048 45.1432 213.449C45.5438 213.849 46.0871 214.074 46.6536 214.074H48.3149V215.736C48.3149 216.302 48.54 216.845 48.9405 217.246C49.3411 217.646 49.8844 217.872 50.4509 217.872C51.0174 217.872 51.5607 217.646 51.9613 217.246C52.3619 216.845 52.5869 216.302 52.5869 215.736V214.074H54.2482C54.8147 214.074 55.358 213.849 55.7586 213.449C56.1592 213.048 56.3842 212.505 56.3842 211.938C56.3842 211.372 56.1592 210.828 55.7586 210.428C55.358 210.027 54.8147 209.802 54.2482 209.802Z" fill="white"/>
<path d="M298.777 169.057H297.913V168.193C297.913 167.898 297.796 167.616 297.588 167.407C297.379 167.199 297.097 167.082 296.802 167.082C296.508 167.082 296.225 167.199 296.017 167.407C295.808 167.616 295.691 167.898 295.691 168.193V169.057H294.828C294.533 169.057 294.25 169.174 294.042 169.382C293.834 169.59 293.717 169.873 293.717 170.167C293.717 170.462 293.834 170.744 294.042 170.953C294.25 171.161 294.533 171.278 294.828 171.278H295.691V172.142C295.691 172.437 295.808 172.719 296.017 172.927C296.225 173.136 296.508 173.253 296.802 173.253C297.097 173.253 297.379 173.136 297.588 172.927C297.796 172.719 297.913 172.437 297.913 172.142V171.278H298.777C299.071 171.278 299.354 171.161 299.562 170.953C299.77 170.744 299.887 170.462 299.887 170.167C299.887 169.873 299.77 169.59 299.562 169.382C299.354 169.174 299.071 169.057 298.777 169.057Z" fill="#FF6584"/>
<path d="M46.7289 111.622H45.865V110.758C45.865 110.612 45.8363 110.468 45.7804 110.333C45.7246 110.198 45.6428 110.076 45.5397 109.973C45.4365 109.87 45.3141 109.788 45.1793 109.732C45.0446 109.676 44.9001 109.647 44.7543 109.647C44.6084 109.647 44.464 109.676 44.3292 109.732C44.1945 109.788 44.072 109.87 43.9689 109.973C43.8657 110.076 43.7839 110.198 43.7281 110.333C43.6723 110.468 43.6436 110.612 43.6436 110.758V111.622H42.7797C42.4851 111.622 42.2026 111.739 41.9943 111.947C41.786 112.156 41.6689 112.438 41.6689 112.733C41.6689 113.027 41.786 113.31 41.9943 113.518C42.2026 113.727 42.4851 113.844 42.7797 113.844H43.6436V114.707C43.6436 114.853 43.6723 114.998 43.7281 115.132C43.7839 115.267 43.8657 115.39 43.9689 115.493C44.072 115.596 44.1945 115.678 44.3292 115.734C44.464 115.789 44.6084 115.818 44.7543 115.818C44.9001 115.818 45.0446 115.789 45.1793 115.734C45.3141 115.678 45.4365 115.596 45.5397 115.493C45.6428 115.39 45.7246 115.267 45.7804 115.132C45.8363 114.998 45.865 114.853 45.865 114.707V113.844H46.7289C47.0235 113.844 47.306 113.727 47.5143 113.518C47.7226 113.31 47.8396 113.027 47.8396 112.733C47.8396 112.438 47.7226 112.156 47.5143 111.947C47.306 111.739 47.0235 111.622 46.7289 111.622Z" fill="#2CC597"/>
<path d="M110.809 111.622H109.945V110.758C109.945 110.464 109.828 110.181 109.62 109.973C109.411 109.764 109.129 109.647 108.834 109.647C108.54 109.647 108.257 109.764 108.049 109.973C107.841 110.181 107.724 110.464 107.724 110.758V111.622H106.86C106.565 111.622 106.283 111.739 106.074 111.947C105.866 112.156 105.749 112.438 105.749 112.733C105.749 113.027 105.866 113.31 106.074 113.518C106.283 113.727 106.565 113.844 106.86 113.844H107.724V114.707C107.724 115.002 107.841 115.285 108.049 115.493C108.257 115.701 108.54 115.818 108.834 115.818C109.129 115.818 109.411 115.701 109.62 115.493C109.828 115.285 109.945 115.002 109.945 114.707V113.844H110.809C111.104 113.844 111.386 113.727 111.594 113.518C111.803 113.31 111.92 113.027 111.92 112.733C111.92 112.438 111.803 112.156 111.594 111.947C111.386 111.739 111.104 111.622 110.809 111.622Z" fill="white"/>
<path d="M331.529 225.542H330.665V224.678C330.665 224.384 330.548 224.101 330.339 223.893C330.131 223.684 329.849 223.567 329.554 223.567C329.259 223.567 328.977 223.684 328.769 223.893C328.56 224.101 328.443 224.384 328.443 224.678V225.542H327.579C327.285 225.542 327.002 225.659 326.794 225.867C326.586 226.076 326.469 226.358 326.469 226.653C326.469 226.947 326.586 227.23 326.794 227.438C327.002 227.646 327.285 227.763 327.579 227.763H328.443V228.627C328.443 228.922 328.56 229.204 328.769 229.413C328.977 229.621 329.259 229.738 329.554 229.738C329.849 229.738 330.131 229.621 330.339 229.413C330.548 229.204 330.665 228.922 330.665 228.627V227.763H331.529C331.823 227.763 332.106 227.646 332.314 227.438C332.522 227.23 332.639 226.947 332.639 226.653C332.639 226.358 332.522 226.076 332.314 225.867C332.106 225.659 331.823 225.542 331.529 225.542Z" fill="white"/>
<path d="M231.849 132.982H230.985V132.119C230.985 131.824 230.868 131.541 230.66 131.333C230.451 131.125 230.169 131.008 229.874 131.008C229.58 131.008 229.297 131.125 229.089 131.333C228.881 131.541 228.764 131.824 228.764 132.119V132.982H227.9C227.605 132.982 227.323 133.099 227.114 133.308C226.906 133.516 226.789 133.799 226.789 134.093C226.789 134.388 226.906 134.67 227.114 134.879C227.323 135.087 227.605 135.204 227.9 135.204H228.764V136.068C228.764 136.362 228.881 136.645 229.089 136.853C229.297 137.061 229.58 137.178 229.874 137.178C230.169 137.178 230.451 137.061 230.66 136.853C230.868 136.645 230.985 136.362 230.985 136.068V135.204H231.849C232.144 135.204 232.426 135.087 232.634 134.879C232.843 134.67 232.96 134.388 232.96 134.093C232.96 133.799 232.843 133.516 232.634 133.308C232.426 133.099 232.144 132.982 231.849 132.982Z" fill="white"/>
<path d="M79.4808 156.716H78.6169V155.852C78.6169 155.557 78.4999 155.275 78.2916 155.067C78.0833 154.858 77.8008 154.741 77.5062 154.741C77.2116 154.741 76.9291 154.858 76.7208 155.067C76.5125 155.275 76.3955 155.557 76.3955 155.852V156.716H75.5316C75.237 156.716 74.9545 156.833 74.7462 157.041C74.5379 157.249 74.4209 157.532 74.4209 157.827C74.4209 158.121 74.5379 158.404 74.7462 158.612C74.9545 158.82 75.237 158.937 75.5316 158.937H76.3955V159.801C76.3955 160.096 76.5125 160.378 76.7208 160.587C76.9291 160.795 77.2116 160.912 77.5062 160.912C77.8008 160.912 78.0833 160.795 78.2916 160.587C78.4999 160.378 78.6169 160.096 78.6169 159.801V158.937H79.4808C79.7754 158.937 80.0579 158.82 80.2662 158.612C80.4745 158.404 80.5916 158.121 80.5916 157.827C80.5916 157.532 80.4745 157.249 80.2662 157.041C80.0579 156.833 79.7754 156.716 79.4808 156.716Z" fill="white"/>
<path d="M82.3295 77.9209H81.4656V77.057C81.4656 76.7624 81.3486 76.4799 81.1403 76.2716C80.932 76.0633 80.6494 75.9463 80.3549 75.9463C80.0603 75.9463 79.7778 76.0633 79.5695 76.2716C79.3612 76.4799 79.2441 76.7624 79.2441 77.057V77.9209H78.3802C78.0857 77.9209 77.8031 78.0379 77.5948 78.2462C77.3865 78.4545 77.2695 78.737 77.2695 79.0316C77.2695 79.3262 77.3865 79.6087 77.5948 79.817C77.8031 80.0253 78.0857 80.1423 78.3802 80.1423H79.2441V81.0062C79.2441 81.3008 79.3612 81.5833 79.5695 81.7916C79.7778 81.9999 80.0603 82.117 80.3549 82.117C80.6494 82.117 80.932 81.9999 81.1403 81.7916C81.3486 81.5833 81.4656 81.3008 81.4656 81.0062V80.1423H82.3295C82.6241 80.1423 82.9066 80.0253 83.1149 79.817C83.3232 79.6087 83.4402 79.3262 83.4402 79.0316C83.4402 78.737 83.3232 78.4545 83.1149 78.2462C82.9066 78.0379 82.6241 77.9209 82.3295 77.9209Z" fill="white"/>
</g>
<defs>
<clipPath id="clip0">
<rect width="371.057" height="304" fill="white"/>
</clipPath>
</defs>
</svg>
