<svg width="400" height="207" viewBox="0 0 400 207" fill="none" xmlns="http://www.w3.org/2000/svg">
<g clip-path="url(#clip0)">
<path d="M252.808 114.938H119.063V206.055H252.808V114.938Z" fill="#2CC597"/>
<path d="M260.268 104.279H128.656C128.232 104.28 127.826 104.449 127.526 104.748C127.226 105.048 127.057 105.455 127.057 105.879V194.864C127.057 195.074 127.098 195.282 127.178 195.476C127.259 195.67 127.377 195.846 127.525 195.995C127.674 196.143 127.85 196.261 128.044 196.341C128.238 196.422 128.446 196.463 128.656 196.463H260.268C260.478 196.463 260.686 196.422 260.88 196.341C261.074 196.261 261.25 196.143 261.399 195.994C261.547 195.846 261.665 195.67 261.745 195.476C261.826 195.282 261.867 195.074 261.867 194.864V105.879C261.866 105.455 261.698 105.048 261.398 104.748C261.098 104.449 260.692 104.28 260.268 104.279ZM260.801 194.864C260.801 194.934 260.787 195.003 260.761 195.068C260.734 195.133 260.695 195.192 260.645 195.241C260.596 195.291 260.537 195.33 260.472 195.357C260.407 195.383 260.338 195.397 260.268 195.397H128.656C128.586 195.397 128.516 195.383 128.452 195.357C128.387 195.33 128.328 195.291 128.278 195.241C128.229 195.192 128.19 195.133 128.163 195.068C128.136 195.003 128.123 194.934 128.123 194.864V105.879C128.123 105.737 128.179 105.602 128.279 105.502C128.379 105.402 128.515 105.346 128.656 105.345H260.268C260.409 105.346 260.545 105.402 260.645 105.502C260.744 105.602 260.801 105.737 260.801 105.879V194.864Z" fill="#3F3D56"/>
<path d="M193.417 167.156H134.762C134.332 167.156 133.983 167.505 133.983 167.934V173.305C133.983 173.735 134.332 174.083 134.762 174.083H193.417C193.847 174.083 194.195 173.735 194.195 173.305V167.934C194.195 167.505 193.847 167.156 193.417 167.156Z" fill="#3F3D56"/>
<path d="M249.076 161.295H229.897C229.687 161.295 229.479 161.336 229.285 161.417C229.091 161.497 228.915 161.615 228.766 161.763C228.618 161.912 228.5 162.088 228.42 162.282C228.339 162.476 228.298 162.684 228.298 162.894V177.813C228.298 178.023 228.339 178.231 228.42 178.425C228.5 178.619 228.618 178.795 228.766 178.943C228.915 179.092 229.091 179.21 229.285 179.29C229.479 179.37 229.687 179.412 229.897 179.412H249.076C249.286 179.412 249.494 179.37 249.688 179.29C249.882 179.21 250.059 179.092 250.207 178.943C250.356 178.795 250.473 178.619 250.554 178.425C250.634 178.231 250.675 178.023 250.675 177.813V162.894C250.675 162.684 250.634 162.476 250.554 162.282C250.473 162.088 250.356 161.912 250.207 161.763C250.059 161.615 249.882 161.497 249.688 161.417C249.494 161.336 249.286 161.295 249.076 161.295ZM249.609 177.813C249.609 177.954 249.553 178.089 249.453 178.189C249.353 178.289 249.218 178.345 249.076 178.346H229.897C229.756 178.345 229.62 178.289 229.52 178.189C229.42 178.089 229.364 177.954 229.364 177.813V162.894C229.364 162.824 229.377 162.755 229.404 162.69C229.431 162.625 229.47 162.566 229.52 162.517C229.569 162.467 229.628 162.428 229.693 162.401C229.758 162.375 229.827 162.361 229.897 162.361H249.076C249.146 162.361 249.216 162.375 249.28 162.401C249.345 162.428 249.404 162.467 249.454 162.517C249.503 162.566 249.542 162.625 249.569 162.69C249.596 162.755 249.61 162.824 249.609 162.894V177.813Z" fill="#3F3D56"/>
<path d="M245.246 164.738H233.727C233.298 164.738 232.949 165.087 232.949 165.516V166.665C232.949 167.095 233.298 167.443 233.727 167.443H245.246C245.676 167.443 246.024 167.095 246.024 166.665V165.516C246.024 165.087 245.676 164.738 245.246 164.738Z" fill="#3F3D56"/>
<path d="M245.246 169H233.727C233.298 169 232.949 169.348 232.949 169.778V170.927C232.949 171.357 233.298 171.705 233.727 171.705H245.246C245.676 171.705 246.024 171.357 246.024 170.927V169.778C246.024 169.348 245.676 169 245.246 169Z" fill="#3F3D56"/>
<path d="M245.246 173.264H233.727C233.298 173.264 232.949 173.612 232.949 174.042V175.191C232.949 175.62 233.298 175.969 233.727 175.969H245.246C245.676 175.969 246.024 175.62 246.024 175.191V174.042C246.024 173.612 245.676 173.264 245.246 173.264Z" fill="#3F3D56"/>
<path d="M162.512 110.674H136.36C135.93 110.674 135.582 111.022 135.582 111.452V121.618C135.582 122.048 135.93 122.396 136.36 122.396H162.512C162.942 122.396 163.29 122.048 163.29 121.618V111.452C163.29 111.022 162.942 110.674 162.512 110.674Z" fill="#3F3D56"/>
<path d="M151.567 116.535C151.567 118.595 150.613 120.265 149.436 120.265C148.259 120.265 147.305 118.595 147.305 116.535C147.305 114.475 149.436 112.805 149.436 112.805C149.436 112.805 151.567 114.475 151.567 116.535Z" fill="#2CC597"/>
<path d="M350.972 62.9727H350.194V149.983H261.866V150.761H350.972V62.9727Z" fill="#3F3D56"/>
<path d="M119.064 150.761H29.958V62.9727H30.7362V149.983H119.064V150.761Z" fill="#3F3D56"/>
<path d="M399.751 14.712H399.252V13.8393H399.626C399.692 13.8393 399.756 13.813 399.803 13.7662C399.849 13.7195 399.876 13.6561 399.876 13.5899V9.10151C399.876 9.03538 399.849 8.97195 399.803 8.92519C399.756 8.87843 399.692 8.85216 399.626 8.85216H399.252V6.30311C399.252 5.58998 399.112 4.88383 398.839 4.22499C398.566 3.56614 398.166 2.9675 397.662 2.46324C397.157 1.95899 396.559 1.55899 395.9 1.28609C395.241 1.0132 394.535 0.872743 393.822 0.87275H393.268V0.249355C393.268 0.183222 393.241 0.119798 393.195 0.0730349C393.148 0.0262718 393.084 1.03195e-06 393.018 0H388.53C388.464 1.03195e-06 388.4 0.0262718 388.354 0.0730349C388.307 0.119798 388.28 0.183222 388.28 0.249355V0.87275H307.184C306.471 0.872743 305.765 1.0132 305.106 1.28609C304.447 1.55899 303.849 1.95899 303.344 2.46324C302.84 2.9675 302.44 3.56614 302.167 4.22499C301.894 4.88383 301.754 5.58998 301.754 6.30311V121.866C301.754 122.579 301.894 123.285 302.167 123.944C302.44 124.603 302.84 125.202 303.344 125.706C303.849 126.21 304.447 126.61 305.106 126.883C305.765 127.156 306.471 127.296 307.184 127.296H393.822C394.535 127.296 395.241 127.156 395.9 126.883C396.559 126.61 397.157 126.21 397.662 125.706C398.166 125.202 398.566 124.603 398.839 123.944C399.112 123.285 399.252 122.579 399.252 121.866V19.6992H399.751C399.817 19.6991 399.88 19.6729 399.927 19.6261C399.974 19.5793 400 19.5159 400 19.4498V14.9614C400 14.9286 399.994 14.8962 399.981 14.866C399.969 14.8357 399.95 14.8082 399.927 14.7851C399.904 14.7619 399.877 14.7435 399.846 14.731C399.816 14.7185 399.784 14.712 399.751 14.712Z" fill="#3F3D56"/>
<path d="M394.771 4.42578H306.982C306.573 4.42578 306.241 4.75762 306.241 5.16695V122.131C306.241 122.541 306.573 122.873 306.982 122.873H394.771C395.18 122.873 395.512 122.541 395.512 122.131V5.16695C395.512 4.75762 395.18 4.42578 394.771 4.42578Z" fill="#D0CDE1"/>
<path d="M355.162 62.4746H341.404C340.974 62.4746 340.626 62.823 340.626 63.2528V66.2345C340.626 66.6643 340.974 67.0128 341.404 67.0128H355.162C355.591 67.0128 355.94 66.6643 355.94 66.2345V63.2528C355.94 62.823 355.591 62.4746 355.162 62.4746Z" fill="#3F3D56"/>
<path d="M373.676 27.1426H322.891C322.461 27.1426 322.112 27.491 322.112 27.9208V28.3093C322.112 28.7391 322.461 29.0875 322.891 29.0875H373.676C374.106 29.0875 374.454 28.7391 374.454 28.3093V27.9208C374.454 27.491 374.106 27.1426 373.676 27.1426Z" fill="#3F3D56"/>
<path d="M373.676 33.3008H322.891C322.461 33.3008 322.112 33.6492 322.112 34.079V34.4675C322.112 34.8973 322.461 35.2457 322.891 35.2457H373.676C374.106 35.2457 374.454 34.8973 374.454 34.4675V34.079C374.454 33.6492 374.106 33.3008 373.676 33.3008Z" fill="#3F3D56"/>
<path d="M373.676 39.459H322.891C322.461 39.459 322.112 39.8074 322.112 40.2372V40.6257C322.112 41.0555 322.461 41.4039 322.891 41.4039H373.676C374.106 41.4039 374.454 41.0555 374.454 40.6257V40.2372C374.454 39.8074 374.106 39.459 373.676 39.459Z" fill="#3F3D56"/>
<path d="M373.676 45.6191H322.891C322.461 45.6191 322.112 45.9676 322.112 46.3974V46.7858C322.112 47.2156 322.461 47.5641 322.891 47.5641H373.676C374.106 47.5641 374.454 47.2156 374.454 46.7858V46.3974C374.454 45.9676 374.106 45.6191 373.676 45.6191Z" fill="#3F3D56"/>
<path d="M373.676 51.7773H322.891C322.461 51.7773 322.112 52.1258 322.112 52.5556V52.944C322.112 53.3738 322.461 53.7223 322.891 53.7223H373.676C374.106 53.7223 374.454 53.3738 374.454 52.944V52.5556C374.454 52.1258 374.106 51.7773 373.676 51.7773Z" fill="#3F3D56"/>
<path d="M346.43 118.195C355.408 118.195 362.686 110.917 362.686 101.938C362.686 92.9601 355.408 85.6816 346.43 85.6816C337.451 85.6816 330.173 92.9601 330.173 101.938C330.173 110.917 337.451 118.195 346.43 118.195Z" fill="#2CC597"/>
<path d="M351.221 114.477C347.19 114.477 343.249 113.282 339.897 111.042C336.546 108.803 333.933 105.619 332.39 101.895C330.848 98.1707 330.444 94.0725 331.231 90.1188C332.017 86.165 333.958 82.5332 336.809 79.6827C339.659 76.8322 343.291 74.891 347.245 74.1045C351.199 73.3181 355.297 73.7217 359.021 75.2644C362.745 76.8071 365.929 79.4195 368.168 82.7714C370.408 86.1232 371.603 90.0639 371.603 94.0951C371.597 99.499 369.448 104.68 365.627 108.501C361.806 112.322 356.625 114.471 351.221 114.477ZM351.221 74.4541C347.336 74.4541 343.539 75.606 340.309 77.7642C337.079 79.9224 334.562 82.9899 333.075 86.5788C331.589 90.1678 331.2 94.1169 331.957 97.9269C332.715 101.737 334.586 105.237 337.333 107.983C340.08 110.73 343.579 112.601 347.389 113.359C351.199 114.117 355.148 113.728 358.737 112.241C362.326 110.755 365.394 108.237 367.552 105.007C369.71 101.777 370.862 97.9798 370.862 94.0951C370.856 88.8878 368.785 83.8954 365.103 80.2133C361.421 76.5311 356.428 74.4599 351.221 74.4541Z" fill="#3F3D56"/>
<path d="M60.5032 34.2079H59.8365V15.9438C59.8365 14.5556 59.5631 13.1811 59.0318 11.8986C58.5006 10.616 57.722 9.45073 56.7404 8.46914C55.7588 7.48756 54.5935 6.70892 53.311 6.17769C52.0285 5.64646 50.6539 5.37304 49.2657 5.37305H10.5708C9.18261 5.37304 7.80803 5.64646 6.52552 6.17769C5.24301 6.70892 4.0777 7.48756 3.09611 8.46914C2.11452 9.45073 1.33588 10.6161 0.804652 11.8986C0.273421 13.1811 -1.53295e-06 14.5556 0 15.9438V116.142C-1.53296e-06 117.53 0.27342 118.905 0.804652 120.187C1.33588 121.47 2.11452 122.635 3.09611 123.617C4.0777 124.598 5.24302 125.377 6.52553 125.908C7.80804 126.439 9.18262 126.713 10.5708 126.713H49.2657C50.6539 126.713 52.0285 126.439 53.311 125.908C54.5935 125.377 55.7588 124.598 56.7404 123.617C57.722 122.635 58.5006 121.47 59.0318 120.187C59.5631 118.905 59.8365 117.53 59.8365 116.142V47.2086H60.5032V34.2079Z" fill="#3F3D56"/>
<path d="M57.5856 16.5648V116.617C57.586 118.711 56.7546 120.719 55.2744 122.199C53.7942 123.68 51.7864 124.512 49.6926 124.513H10.8109C8.71722 124.512 6.70941 123.68 5.22919 122.199C3.74898 120.719 2.91761 118.711 2.91797 116.617V16.5648C2.91819 14.4715 3.74984 12.4641 5.23001 10.9839C6.71018 9.50374 8.71765 8.67209 10.8109 8.67188H15.5282C15.296 9.24132 15.2075 9.85911 15.2703 10.4708C15.3332 11.0826 15.5455 11.6694 15.8886 12.1798C16.2317 12.6901 16.695 13.1083 17.2378 13.3974C17.7805 13.6865 18.386 13.8376 19.001 13.8376H41.1691C41.784 13.8376 42.3895 13.6865 42.9323 13.3974C43.4751 13.1083 43.9384 12.6901 44.2815 12.1798C44.6246 11.6694 44.8369 11.0826 44.8997 10.4708C44.9626 9.85911 44.874 9.24132 44.6419 8.67188H49.6927C51.7859 8.6721 53.7934 9.50375 55.2736 10.9839C56.7537 12.4641 57.5854 14.4715 57.5856 16.5648Z" fill="#D0CDE1"/>
<path d="M34.6815 67.6172H25.8222C25.3924 67.6172 25.0439 67.9656 25.0439 68.3954V69.9256C25.0439 70.3554 25.3924 70.7038 25.8222 70.7038H34.6815C35.1113 70.7038 35.4598 70.3554 35.4598 69.9256V68.3954C35.4598 67.9656 35.1113 67.6172 34.6815 67.6172Z" fill="#3F3D56"/>
<path d="M47.3901 43.584H13.1126C12.7473 43.584 12.4512 43.8801 12.4512 44.2454C12.4512 44.6107 12.7473 44.9068 13.1126 44.9068H47.3901C47.7553 44.9068 48.0515 44.6107 48.0515 44.2454C48.0515 43.8801 47.7553 43.584 47.3901 43.584Z" fill="#3F3D56"/>
<path d="M47.3901 47.7734H13.1126C12.7473 47.7734 12.4512 48.0696 12.4512 48.4349C12.4512 48.8002 12.7473 49.0963 13.1126 49.0963H47.3901C47.7553 49.0963 48.0515 48.8002 48.0515 48.4349C48.0515 48.0696 47.7553 47.7734 47.3901 47.7734Z" fill="#3F3D56"/>
<path d="M47.3901 51.9629H13.1126C12.7473 51.9629 12.4512 52.259 12.4512 52.6243C12.4512 52.9896 12.7473 53.2857 13.1126 53.2857H47.3901C47.7553 53.2857 48.0515 52.9896 48.0515 52.6243C48.0515 52.259 47.7553 51.9629 47.3901 51.9629Z" fill="#3F3D56"/>
<path d="M47.3901 56.1523H13.1126C12.7473 56.1523 12.4512 56.4485 12.4512 56.8138C12.4512 57.1791 12.7473 57.4752 13.1126 57.4752H47.3901C47.7553 57.4752 48.0515 57.1791 48.0515 56.8138C48.0515 56.4485 47.7553 56.1523 47.3901 56.1523Z" fill="#3F3D56"/>
<path d="M47.3901 60.3418H13.1126C12.7473 60.3418 12.4512 60.6379 12.4512 61.0032C12.4512 61.3685 12.7473 61.6646 13.1126 61.6646H47.3901C47.7553 61.6646 48.0515 61.3685 48.0515 61.0032C48.0515 60.6379 47.7553 60.3418 47.3901 60.3418Z" fill="#3F3D56"/>
<path d="M27.1889 110.962C33.3807 110.962 38.4002 105.942 38.4002 99.7504C38.4002 93.5585 33.3807 88.5391 27.1889 88.5391C20.997 88.5391 15.9775 93.5585 15.9775 99.7504C15.9775 105.942 20.997 110.962 27.1889 110.962Z" fill="#2CC597"/>
<path d="M30.4939 108.398C27.7138 108.398 24.9962 107.574 22.6846 106.029C20.373 104.484 18.5714 102.289 17.5075 99.7207C16.4436 97.1522 16.1652 94.326 16.7076 91.5993C17.25 88.8726 18.5887 86.368 20.5545 84.4022C22.5203 82.4364 25.0249 81.0976 27.7516 80.5553C30.4783 80.0129 33.3046 80.2912 35.873 81.3551C38.4415 82.419 40.6368 84.2207 42.1813 86.5322C43.7259 88.8438 44.5503 91.5615 44.5503 94.3415C44.5461 98.0682 43.0638 101.641 40.4286 104.276C37.7934 106.911 34.2206 108.394 30.4939 108.398ZM30.4939 80.7963C27.8149 80.7963 25.1961 81.5907 22.9686 83.0791C20.7411 84.5675 19.0049 86.6829 17.9797 89.158C16.9545 91.6331 16.6863 94.3566 17.2089 96.9841C17.7316 99.6116 19.0216 102.025 20.916 103.919C22.8103 105.814 25.2238 107.104 27.8514 107.627C30.4789 108.149 33.2024 107.881 35.6774 106.856C38.1525 105.831 40.268 104.094 41.7564 101.867C43.2447 99.6394 44.0391 97.0205 44.0391 94.3415C44.0351 90.7504 42.6067 87.3074 40.0674 84.7681C37.528 82.2287 34.0851 80.8003 30.4939 80.7963Z" fill="#3F3D56"/>
<path d="M68.2905 145.99H57.3955V156.885H68.2905V145.99Z" fill="#D0CDE1"/>
<path d="M74.9055 150.659H61.6758V137.43H74.9055V150.659ZM62.251 150.084H74.3303V138.005H62.251V150.084Z" fill="#3F3D56"/>
<path d="M312.261 145.99H301.366V156.885H312.261V145.99Z" fill="#D0CDE1"/>
<path d="M318.876 150.659H305.646V137.43H318.876V150.659ZM306.222 150.084H318.301V138.005H306.222V150.084Z" fill="#3F3D56"/>
</g>
<defs>
<clipPath id="clip0">
<rect width="400" height="206.054" fill="white"/>
</clipPath>
</defs>
</svg>
