<svg width="378" height="263" viewBox="0 0 378 263" fill="none" xmlns="http://www.w3.org/2000/svg">
<g clip-path="url(#clip0)">
<path d="M263.462 126.09C263.462 126.09 248.256 122.57 250.181 130.051C252.106 137.532 264.81 132.691 264.81 132.691L263.462 126.09Z" fill="#FFB8B8"/>
<path d="M296.267 86.5757C296.456 86.3789 296.689 86.2439 296.939 86.1849C297.19 86.1259 297.45 86.145 297.692 86.2403C297.934 86.3356 298.149 86.5036 298.314 86.7265C298.48 86.9495 298.59 87.2193 298.633 87.5077L299.153 90.9584C299.153 90.9584 301.503 104.761 299.491 113.528C297.479 122.296 296.051 133.845 290.615 135.075C285.963 136.128 268.275 134.461 263.267 133.958C262.907 133.921 262.572 133.73 262.33 133.421C262.089 133.113 261.959 132.711 261.967 132.298L262.061 127.261C262.068 126.865 262.202 126.485 262.437 126.192C262.671 125.9 262.991 125.716 263.337 125.674L283.588 123.205C283.904 123.167 284.2 123.009 284.429 122.756C284.658 122.504 284.806 122.171 284.85 121.811C285.332 117.872 286.889 105.662 288.437 99.2419C289.687 94.0542 293.793 89.1562 296.267 86.5757Z" fill="#575A89"/>
<path d="M378 254.187H238.246V254.947H378V254.187Z" fill="#3F3D56"/>
<path d="M283.109 233.781V244.343L288.306 245.663L291.771 243.682L291.386 235.321L283.109 233.781Z" fill="#FFB8B8"/>
<path d="M313.808 233.781V244.343L319.005 245.663L322.469 243.682L322.084 235.321L313.808 233.781Z" fill="#FFB8B8"/>
<path d="M293.503 147.969C293.503 147.969 286.573 164.031 286.766 176.573C286.882 184.143 286.56 191.714 285.804 199.236L282.339 236.861L293.503 237.521L298.7 197.036L308.709 165.791L312.558 202.977L313.521 240.382H323.145C323.145 240.382 327.572 204.957 325.069 197.036C325.069 197.036 330.844 152.589 326.224 150.389C321.605 148.189 293.503 147.969 293.503 147.969Z" fill="#2F2E41"/>
<path d="M286.573 241.483C286.573 241.483 284.648 233.341 281.953 237.522C279.258 241.703 271.559 248.744 271.559 248.744C271.559 248.744 260.01 255.785 270.597 257.545C281.183 259.305 282.338 255.345 282.338 255.345C282.338 255.345 284.07 254.244 285.61 254.905C287.15 255.565 293.887 255.345 294.272 252.704C294.657 250.064 292.155 235.542 291.385 238.182C290.615 240.822 286.573 241.483 286.573 241.483Z" fill="#2F2E41"/>
<path d="M321.99 241.263C321.99 241.263 321.99 238.842 318.333 238.622C314.676 238.402 314.098 241.263 314.098 241.263C314.098 241.263 313.136 242.363 312.943 245.663C312.751 248.964 312.943 257.545 312.943 257.545C312.943 257.545 311.211 264.146 319.103 262.826C326.995 261.506 324.107 254.685 324.107 254.685L321.99 241.263Z" fill="#2F2E41"/>
<path d="M307.938 65.8975L306.975 78.2192L305.243 82.8398L309.863 90.3209L321.219 78.2192C321.219 78.2192 319.102 71.6183 320.449 67.8777L307.938 65.8975Z" fill="#FFB8B8"/>
<path d="M333.73 87.0204L333.641 88.1052L330.265 129.266C330.265 129.266 330.132 131.181 329.886 133.733C329.47 138.05 328.731 144.191 327.763 145.989C326.223 148.849 327.378 151.27 327.378 151.27C318.524 157.21 292.347 148.629 292.347 148.629L298.314 121.345C298.314 121.345 292.924 92.9613 293.502 90.3209C294.079 87.6805 306.205 78.2192 306.205 78.2192L306.563 79.3193C311.731 87.2405 316.984 80.4195 318.524 78.8793L321.604 75.7988L333.73 87.0204Z" fill="#575A89"/>
<path d="M294.148 162.516C275.797 165.362 258.29 166.404 242.091 164.652C236.339 163.985 230.633 162.865 225.016 161.3C214.716 158.513 202.072 158.513 188.181 159.997C179.735 160.857 171.411 162.875 163.387 166.008C152.622 170.268 140.829 169.899 128.326 166.333C123.195 164.806 118.25 162.555 113.604 159.632C104.464 154.017 93.6457 156.05 81.8555 162.516V112.307C92.8629 106.827 103.586 105.942 113.969 110.562C117.754 112.29 121.667 113.624 125.662 114.549C140.091 117.773 154.986 117.004 169.103 112.307C188.192 104.913 208.16 107.211 228.382 112.307C250.911 117.746 272.869 118.067 294.148 112.307V162.516Z" fill="#3F3D56"/>
<path d="M139.754 254.187H0V254.947H139.754V254.187Z" fill="#3F3D56"/>
<path d="M172.966 18.9486L183.475 12.0127L177.407 -0.000599396L166.898 6.93528L172.966 18.9486Z" fill="#FF6584"/>
<path d="M134.034 79.429L144.543 72.4932L138.476 60.4799L127.967 67.4157L134.034 79.429Z" fill="#3F3D56"/>
<path d="M240.846 63.4525L251.355 56.5166L245.288 44.5033L234.779 51.4392L240.846 63.4525Z" fill="#D0CDE1"/>
<path d="M59.5116 161.127L65.866 194.756L46.5674 244.258L57.8641 249.908L79.5159 193.142L65.6747 143.288L57.4375 145.71L59.5116 161.127Z" fill="#2F2E41"/>
<path d="M53.8633 151.88C53.8633 151.88 56.2168 156.723 61.3944 160.758C66.5721 164.794 77.398 191.428 77.398 191.428L65.6307 245.235L81.8696 250.347L90.8128 187.123L72.4557 139.773L53.8633 151.88Z" fill="#2F2E41"/>
<path d="M47.9801 242.375C47.9801 242.375 45.6266 245.334 46.568 247.487C47.5094 249.639 47.9801 255.289 47.9801 255.289H50.0982V248.832L56.9233 256.096C56.9233 256.096 72.6916 257.71 72.4562 256.096C72.2209 254.482 63.0423 250.715 63.0423 250.715L58.5707 242.913L47.9801 242.375Z" fill="#2F2E41"/>
<path d="M68.69 243.082C68.69 243.082 66.3365 246.041 67.2779 248.194C68.2193 250.346 68.69 255.996 68.69 255.996H70.8081V249.539L77.6332 256.803C77.6332 256.803 93.4015 258.417 93.1661 256.803C92.9308 255.189 83.7523 251.422 83.7523 251.422L79.2806 243.62L68.69 243.082Z" fill="#2F2E41"/>
<path d="M63.0428 78.1644C67.982 78.1644 71.986 73.5873 71.986 67.9411C71.986 62.2949 67.982 57.7178 63.0428 57.7178C58.1036 57.7178 54.0996 62.2949 54.0996 67.9411C54.0996 73.5873 58.1036 78.1644 63.0428 78.1644Z" fill="#A0616A"/>
<path d="M55.7459 68.4795C55.7459 68.4795 55.0399 78.7028 50.5683 82.4693C46.0967 86.2358 46.0967 89.4642 46.0967 89.4642L64.2184 98.8804L59.9822 88.6571C59.9822 88.6571 58.8054 88.119 60.6882 85.4287C62.571 82.7383 64.2184 76.2815 64.2184 76.2815L55.7459 68.4795Z" fill="#A0616A"/>
<path d="M74.2209 140.984C69.3243 145.871 63.6512 149.635 57.5108 152.073L53.2394 153.768C53.2394 153.768 44.207 141.237 48.7681 131.364C49.7051 129.277 51.045 127.461 52.6866 126.053L52.5924 125.582L50.3025 114.162L50.0978 113.139L43.2727 111.256C43.2727 111.256 43.2515 111.264 43.2115 111.275C42.7008 111.428 39.2388 112.155 41.8606 102.916C43.6047 96.7685 44.8693 90.9153 45.5815 87.3376C45.6801 86.8379 45.8661 86.3663 46.1283 85.9509C46.3905 85.5356 46.7235 85.1852 47.1073 84.9209C47.4911 84.6565 47.9177 84.4836 48.3614 84.4126C48.8051 84.3416 49.2568 84.374 49.6893 84.5078C51.8748 85.1928 54.5897 86.4938 56.2168 88.9261C59.2763 93.4997 59.8943 88.7239 59.8943 88.7239C59.8943 88.7239 68.4549 99.6875 67.9842 104.53C67.9033 105.829 67.938 107.135 68.0877 108.426V108.431C68.1442 109.007 68.2125 109.607 68.2902 110.22C68.8738 114.751 70.0035 120.016 70.4177 121.867C70.4483 121.999 70.4742 122.114 70.4953 122.211C70.5448 122.434 70.573 122.555 70.573 122.555L74.2209 140.984Z" fill="#575A89"/>
<path opacity="0.2" d="M62.1002 127.397L60.2175 134.661C60.2175 134.661 52.997 132.557 48.7678 131.363C49.7048 129.276 51.0448 127.46 52.6863 126.052L52.5922 125.581L50.3023 114.161L50.0975 113.139L43.2724 111.255C43.2724 111.255 43.2512 111.263 43.2113 111.274L42.8018 107.758C42.8018 107.758 54.5691 108.565 55.2752 111.793C55.9812 115.022 54.5691 118.25 53.8631 118.788C53.157 119.326 53.8631 118.788 55.2752 119.595C56.6873 120.402 54.8045 119.595 53.8631 121.21C52.9217 122.824 54.0984 121.479 54.3338 122.286C54.5691 123.093 54.3338 122.017 54.0984 123.362C53.8631 124.707 55.0398 123.631 55.2752 123.631C55.5105 123.631 62.1002 127.397 62.1002 127.397Z" fill="black"/>
<path d="M59.9834 126.052L75.281 130.626C75.281 130.626 83.5181 120.941 87.9897 123.9C92.4613 126.86 79.9879 133.585 79.9879 133.585L75.5163 134.662L59.2773 132.509L59.9834 126.052Z" fill="#A0616A"/>
<path d="M42.8018 106.682L43.7431 114.753C43.7431 114.753 43.0371 114.753 43.7431 116.636C44.4492 118.519 43.7431 122.286 43.7431 122.286C43.7431 122.286 42.3311 122.555 43.5078 123.362C44.6845 124.169 45.8613 126.321 45.3906 127.128C44.9199 127.935 43.9785 129.011 46.0966 129.55C48.2147 130.088 60.2175 133.585 60.2175 133.585L62.1002 126.321C62.1002 126.321 55.5105 122.555 55.2752 122.555C55.0398 122.555 53.8631 123.631 54.0984 122.286C54.3338 120.94 54.5691 122.017 54.3338 121.209C54.0984 120.402 52.9217 121.748 53.8631 120.133C54.8045 118.519 56.6873 119.326 55.2752 118.519C53.8631 117.712 53.157 118.25 53.8631 117.712C54.5691 117.174 55.9812 113.946 55.2752 110.717C54.5691 107.489 42.8018 106.682 42.8018 106.682Z" fill="#575A89"/>
<path d="M60.98 86.0076L61.6892 84.7186C62.0215 84.1144 62.1304 83.384 61.9917 82.6882C61.853 81.9923 61.4782 81.3879 60.9497 81.0079L55.5462 77.1231C55.0177 76.7431 54.3788 76.6187 53.77 76.7772C53.1613 76.9357 52.6325 77.3642 52.3002 77.9683L51.5909 79.2574C51.1915 79.2551 50.7982 79.3692 50.448 79.5889C50.0979 79.8086 49.8025 80.1267 49.5898 80.5132L47.8448 83.6849C47.5124 84.2891 47.4035 85.0194 47.5422 85.7153C47.6809 86.4112 48.0557 87.0157 48.5842 87.3956L55.8655 92.6305C56.394 93.0105 57.0329 93.1349 57.6417 92.9764C58.2504 92.8178 58.7792 92.3893 59.1116 91.7852L60.8566 88.6135C61.0692 88.2269 61.192 87.7848 61.2136 87.3288C61.2352 86.8729 61.1548 86.4182 60.98 86.0076Z" fill="#575A89"/>
<path d="M62.7308 67.7649C63.2311 66.9296 63.0118 65.769 63.3699 64.8431C63.9321 63.3892 65.5902 63.0908 66.9783 62.9952C67.8989 62.8859 68.828 62.9145 69.742 63.0802C70.1457 63.1684 70.526 63.3626 70.8528 63.6475C71.1796 63.9325 71.444 64.3003 71.6253 64.722C71.8202 65.1975 71.7997 63.7239 71.7085 61.8304C71.6164 59.8982 70.9901 58.0493 69.9198 56.5501C68.8495 55.0509 67.3906 53.9788 65.7531 53.4883C65.7336 53.4825 65.7143 53.4768 65.6952 53.4712C64.018 52.9797 62.2859 52.6042 60.5619 52.7875C58.838 52.9708 57.1065 53.7716 56.0008 55.2946C55.4954 55.9907 55.1309 56.818 54.5697 57.4558C53.5837 58.5763 52.1492 58.9543 50.8283 59.4503C49.3151 59.9622 47.9141 60.8352 46.7178 62.0116C45.5174 63.206 44.7772 64.893 44.6576 66.7071C44.5855 68.8022 45.706 70.9975 47.5765 71.4627C47.902 71.5369 48.2075 71.6978 48.4683 71.9323C50.2291 73.5724 48.1468 75.1808 48.1231 76.9717C48.1032 78.4661 49.5376 79.4802 50.8418 79.586C52.0619 79.6449 53.262 79.2169 54.2363 78.3752C55.2106 77.5336 55.8985 76.3308 56.182 74.9729C56.4049 73.7522 56.2795 72.4886 56.1777 71.2471C56.0612 69.8259 58.8016 66.5629 56.9862 68.96C56.6322 69.4153 56.388 69.9682 56.2776 70.5641C55.9427 72.5099 57.4842 73.2103 58.4421 74.3201C58.9677 74.9474 59.329 75.7305 59.485 76.5806C59.641 77.4307 59.5854 78.3138 59.3247 79.1296C60.1512 78.3144 60.703 77.1949 60.8846 75.9643C61.0663 74.7337 60.8664 73.4692 60.3196 72.3891C60.0153 71.8264 59.6185 71.3332 59.3308 70.7592C58.882 69.8636 58.7937 67.9401 60.1012 68.0291C61.0345 68.0926 61.986 69.0084 62.7308 67.7649Z" fill="#2F2E41"/>
<path d="M314.483 71.8387C319.904 71.8387 324.299 66.8146 324.299 60.6171C324.299 54.4196 319.904 49.3955 314.483 49.3955C309.061 49.3955 304.666 54.4196 304.666 60.6171C304.666 66.8146 309.061 71.8387 314.483 71.8387Z" fill="#FFB8B8"/>
<path opacity="0.2" d="M333.258 88.5453L329.881 129.707C329.881 129.707 329.749 131.621 329.502 134.173C322.336 136.131 302.549 137.628 302.549 137.628L301.587 129.707L323.53 122.886C323.53 122.886 320.835 105.723 323.915 98.6822C324.669 96.9693 325.343 95.2121 325.935 93.4178C326.475 91.7633 327.499 90.3735 328.834 89.4852C330.169 88.5968 331.732 88.2647 333.258 88.5453V88.5453Z" fill="black"/>
<path d="M303.703 128.606C303.703 128.606 288.498 125.085 290.422 132.567C292.347 140.048 305.051 135.207 305.051 135.207L303.703 128.606Z" fill="#FFB8B8"/>
<path d="M327.763 85.9199L333.73 87.0201C333.73 87.0201 337.965 100.222 337.195 109.243C336.425 118.264 336.617 129.926 331.42 132.126C326.223 134.327 302.933 136.087 302.933 136.087L301.971 128.166L323.913 121.345C323.913 121.345 321.219 104.182 324.298 97.1415C327.378 90.1005 327.763 85.9199 327.763 85.9199Z" fill="#575A89"/>
<path d="M306.112 49.2191L304.225 48.3556C304.225 48.3556 308.17 43.3906 313.659 43.8224L312.115 41.8796C312.115 41.8796 315.889 40.1527 319.319 44.6858C321.122 47.0688 323.209 49.8699 324.51 53.0253H326.53L325.687 55.148L328.638 57.2707L325.609 56.8894C325.789 58.0518 325.817 59.2385 325.691 60.4103C325.561 61.5824 325.038 62.651 324.232 63.3904C324.232 63.3904 321.892 57.8537 321.892 56.9902V59.1489C321.892 59.1489 320.005 57.2061 320.005 55.9109L318.976 57.422H312.115L313.144 55.4792L309.199 56.1268L310.743 53.7522L304.635 63.5576C304.635 63.5576 301.138 52.457 306.112 49.2191Z" fill="#2F2E41"/>
<path d="M188.002 179.253C207.849 179.253 223.939 160.86 223.939 138.172C223.939 115.484 207.849 97.0918 188.002 97.0918C168.155 97.0918 152.065 115.484 152.065 138.172C152.065 160.86 168.155 179.253 188.002 179.253Z" fill="#2CC597"/>
<path d="M205.637 146.337C205.637 148.858 197.541 155.181 188.168 155.181C178.796 155.181 171.697 148.858 171.697 146.337C171.697 143.816 178.796 147.193 188.168 147.193C197.541 147.193 205.637 143.816 205.637 146.337Z" fill="#D0CDE1"/>
<path d="M200.979 130.945C203.185 130.945 204.972 128.902 204.972 126.381C204.972 123.86 203.185 121.816 200.979 121.816C198.774 121.816 196.986 123.86 196.986 126.381C196.986 128.902 198.774 130.945 200.979 130.945Z" fill="#3F3D56"/>
<path d="M175.025 130.945C177.23 130.945 179.018 128.902 179.018 126.381C179.018 123.86 177.23 121.816 175.025 121.816C172.82 121.816 171.032 123.86 171.032 126.381C171.032 128.902 172.82 130.945 175.025 130.945Z" fill="#3F3D56"/>
<path d="M177.354 126.381C178.457 126.381 179.35 125.359 179.35 124.099C179.35 122.838 178.457 121.816 177.354 121.816C176.251 121.816 175.357 122.838 175.357 124.099C175.357 125.359 176.251 126.381 177.354 126.381Z" fill="#D0CDE1"/>
<path d="M197.652 126.381C198.754 126.381 199.648 125.359 199.648 124.099C199.648 122.838 198.754 121.816 197.652 121.816C196.549 121.816 195.655 122.838 195.655 124.099C195.655 125.359 196.549 126.381 197.652 126.381Z" fill="#D0CDE1"/>
<path d="M188.667 99.7542C196.57 99.7542 202.976 92.4313 202.976 83.3981C202.976 74.3649 196.57 67.042 188.667 67.042C180.765 67.042 174.359 74.3649 174.359 83.3981C174.359 92.4313 180.765 99.7542 188.667 99.7542Z" fill="#2CC597"/>
<path d="M184.072 85.0909C189.125 88.5297 189.306 98.8347 189.306 98.8347C189.306 98.8347 181.295 103.564 176.242 100.126C171.189 96.6868 171.008 86.3818 171.008 86.3818C171.008 86.3818 179.019 81.6521 184.072 85.0909Z" fill="#3F3D56"/>
<path d="M201.949 98.2613C197.382 102.497 188.859 99.1366 188.859 99.1366C188.859 99.1366 187.739 88.9093 192.305 84.6738C196.872 80.4383 205.396 83.7985 205.396 83.7985C205.396 83.7985 206.516 94.0258 201.949 98.2613Z" fill="#3F3D56"/>
</g>
<defs>
<clipPath id="clip0">
<rect width="378" height="263" fill="white"/>
</clipPath>
</defs>
</svg>
