<svg width="332" height="280" viewBox="0 0 332 280" fill="none" xmlns="http://www.w3.org/2000/svg">
<path opacity="0.1" d="M269.125 287.695C292.572 287.695 311.579 284.295 311.579 280.102C311.579 275.908 292.572 272.508 269.125 272.508C245.679 272.508 226.672 275.908 226.672 280.102C226.672 284.295 245.679 287.695 269.125 287.695Z" fill="#2CC597"/>
<path opacity="0.1" d="M140.587 277.297C175.299 277.297 203.439 275.227 203.439 272.674C203.439 270.121 175.299 268.051 140.587 268.051C105.875 268.051 77.7354 270.121 77.7354 272.674C77.7354 275.227 105.875 277.297 140.587 277.297Z" fill="#2CC597"/>
<path opacity="0.1" d="M102.718 11.8858C113.974 1.45516 131.644 -0.668847 147.714 0.162931C198.224 2.76224 243.816 28.1278 283.256 56.8055C297.54 67.2028 311.589 78.3761 320.856 92.6759C339.722 121.781 334.126 162.115 307.893 186.076C298.965 194.246 288.148 200.488 277.038 206.032C257.29 215.891 235.971 223.804 213.565 226.054C197.581 227.662 181.397 226.355 165.505 224.115C121.109 217.855 77.5306 204.008 41.0123 180.321C24.9923 169.924 9.89 157.016 3.287 140.217C-3.31601 123.418 0.9122 102.111 17.2679 92.1635C24.0531 88.0492 32.1238 86.1925 40.0446 84.4473C51.7007 81.8777 63.5461 79.3452 74.0666 74.1243C84.9371 68.7252 97.7932 58.2946 95.6505 46.36C93.3293 33.5454 91.4759 22.3016 102.718 11.8858Z" fill="#2CC597"/>
<g opacity="0.1">
<path opacity="0.1" d="M145.219 240.006C146.591 242.431 148.741 243.995 151.162 243.995C155.297 243.995 158.661 239.438 158.661 233.813C158.661 228.187 155.286 223.668 151.162 223.668C149.215 223.668 147.441 224.678 146.109 226.338C145.603 226.973 145.175 227.67 144.834 228.414L144.762 228.855C144.762 228.855 143.166 230.274 140.991 228.971V195.989H110.022C109.772 195.648 109.607 195.248 109.541 194.824C109.476 194.4 109.512 193.966 109.647 193.561C109.879 192.807 110.378 192.173 111.044 191.789C113.376 190.363 114.883 188.128 114.883 185.61C114.883 181.31 110.497 177.812 105.091 177.812C99.684 177.812 95.2987 181.299 95.2987 185.61C95.2987 187.634 96.2736 189.483 97.8699 190.868C98.48 191.392 99.1492 191.836 99.8626 192.19L99.9054 192.265C100.374 192.736 100.684 193.351 100.792 194.019C100.899 194.688 100.797 195.374 100.502 195.978H86.5352V257.054C86.5352 260.895 88.0025 264.579 90.6144 267.294C93.2263 270.01 96.7688 271.536 100.463 271.536H141.002V239.126C141.332 238.8 141.743 238.576 142.189 238.477C142.634 238.379 143.097 238.411 143.527 238.569C144.247 238.806 144.852 239.32 145.219 240.006Z" fill="black"/>
<path opacity="0.1" d="M93.0987 194.704H97.9483C96.7692 193.762 95.812 192.553 95.1493 191.169C94.4866 189.785 94.1358 188.262 94.1236 186.716C94.1236 180.927 98.9803 176.238 104.969 176.238C110.958 176.238 115.818 180.927 115.818 186.716C115.806 188.262 115.455 189.785 114.792 191.169C114.13 192.553 113.173 193.762 111.993 194.704H141.062V162.164C141.395 161.841 141.805 161.619 142.25 161.521C142.695 161.422 143.157 161.452 143.587 161.607C144.314 161.846 144.925 162.366 145.294 163.059C146.662 165.484 148.812 167.047 151.237 167.047C155.372 167.047 158.736 162.491 158.736 156.869C158.736 151.247 155.386 146.687 151.237 146.687C149.287 146.687 147.512 147.701 146.18 149.357C145.676 149.993 145.248 150.69 144.905 151.433L144.837 151.477C144.358 151.997 143.724 152.332 143.038 152.427C142.352 152.522 141.655 152.372 141.062 152.001V119.027H111.247C110.997 118.686 110.831 118.285 110.766 117.862C110.7 117.438 110.737 117.004 110.872 116.598C111.102 115.844 111.602 115.209 112.268 114.827C114.6 113.405 116.104 111.166 116.104 108.648C116.104 104.348 111.722 100.85 106.315 100.85C100.909 100.85 96.5234 104.337 96.5234 108.648C96.5234 110.676 97.4983 112.521 99.091 113.906C99.7028 114.43 100.373 114.875 101.087 115.232L101.13 115.302C101.598 115.774 101.909 116.389 102.016 117.057C102.124 117.725 102.022 118.412 101.726 119.016H93.0987V117.345H99.4696C98.2929 116.404 97.3374 115.198 96.6753 113.816C96.0133 112.435 95.6622 110.915 95.6485 109.372C95.6485 103.583 100.505 98.8896 106.498 98.8896C112.49 98.8896 117.343 103.583 117.343 109.372C117.329 110.919 116.976 112.442 116.31 113.825C115.645 115.209 114.685 116.416 113.504 117.356H141.037V84.4189C141.369 84.0932 141.78 83.8689 142.226 83.7706C142.672 83.6723 143.136 83.7039 143.566 83.8619C144.291 84.1018 144.901 84.6213 145.269 85.3138C146.637 87.7386 148.79 89.3019 151.212 89.3019C155.347 89.3019 158.711 84.7457 158.711 79.12C158.711 73.4944 155.361 68.9419 151.212 68.9419C149.262 68.9419 147.487 69.9519 146.155 71.6118C145.65 72.2468 145.222 72.9439 144.88 73.6875L144.812 74.1294C144.812 74.1294 143.216 75.5479 141.037 74.2445V43.5244H100.516C96.8221 43.5244 93.2796 45.0502 90.6678 47.766C88.0559 50.4819 86.5885 54.1654 86.5885 58.0063V73.6838H86.3778C86.1609 73.6838 85.9529 73.7734 85.7996 73.9328C85.6462 74.0923 85.56 74.3086 85.56 74.5341V81.9607C85.561 82.1859 85.6474 82.4017 85.8006 82.5609C85.9538 82.7202 86.1612 82.8101 86.3778 82.8111H86.5885V90.3936H86.3135C86.0963 90.3936 85.8879 90.4831 85.734 90.6424C85.5801 90.8018 85.4931 91.0181 85.4922 91.244V105.425C85.4931 105.651 85.5801 105.867 85.734 106.027C85.8879 106.186 86.0963 106.275 86.3135 106.275H86.5885V111.845H86.3635C86.1467 111.845 85.9386 111.935 85.7853 112.094C85.6319 112.254 85.5458 112.47 85.5458 112.696V117.263H85.3672V126.888C85.3667 127 85.3876 127.11 85.4285 127.214C85.4694 127.317 85.5296 127.411 85.6057 127.49C85.6817 127.569 85.772 127.632 85.8715 127.674C85.9709 127.717 86.0775 127.739 86.185 127.738H86.4278V194.704H93.0987Z" fill="black"/>
<path opacity="0.1" d="M199.063 96.1153C199.063 95.8895 198.977 95.6728 198.824 95.5127C198.671 95.3527 198.463 95.2623 198.245 95.2613H197.753V94.3292H197.485V57.2891C197.485 55.4603 197.139 53.6494 196.466 51.9597C195.794 50.2701 194.807 48.7348 193.564 47.4417C192.32 46.1485 190.843 45.1228 189.218 44.4232C187.593 43.7236 185.852 43.3638 184.093 43.3643H143.918V71.5853C144.836 70.3189 146.022 69.2899 147.385 68.5782C148.747 67.8665 150.25 67.4914 151.774 67.4821C157.385 67.4821 161.934 72.5359 161.934 78.7668C161.934 84.9977 157.385 90.0515 151.774 90.0515C150.249 90.0428 148.747 89.6679 147.384 88.9562C146.022 88.2445 144.835 87.2151 143.918 85.9483V117.263H176.415C175.238 116.318 174.282 115.107 173.621 113.722C172.959 112.337 172.61 110.814 172.598 109.268C172.598 103.471 177.444 98.774 183.425 98.774C186.084 98.7587 188.662 99.7244 190.7 101.5C191.818 102.429 192.722 103.608 193.342 104.95C193.963 106.292 194.285 107.762 194.285 109.251C194.285 110.74 193.963 112.21 193.342 113.552C192.722 114.894 191.818 116.073 190.7 117.003V117.251H197.753V117.225H199.063V96.1153Z" fill="black"/>
<path opacity="0.1" d="M188.277 193.035V189.322C188.424 189.099 188.559 188.867 188.68 188.628C189.159 187.723 189.411 186.708 189.416 185.675C189.415 184.987 189.301 184.304 189.08 183.655C188.885 183.078 188.615 182.53 188.277 182.029C186.63 179.567 183.377 177.889 179.627 177.889C174.217 177.889 169.835 181.375 169.835 185.687C169.835 187.714 170.81 189.56 172.403 190.945C173.015 191.468 173.685 191.913 174.399 192.27L174.442 192.341C174.91 192.812 175.22 193.427 175.328 194.095C175.435 194.764 175.334 195.45 175.039 196.054H143.534V226.503C144.439 225.244 145.612 224.221 146.96 223.512C148.309 222.803 149.797 222.429 151.308 222.419C156.876 222.419 161.386 227.469 161.386 233.696C161.386 239.923 156.876 244.977 151.308 244.977C149.797 244.966 148.309 244.592 146.96 243.883C145.612 243.175 144.439 242.151 143.534 240.892V265.47H179.685C181.96 265.47 184.142 264.532 185.753 262.862C187.363 261.191 188.271 258.924 188.277 256.559V196.065V256.518C188.277 258.887 187.372 261.16 185.76 262.835C184.149 264.511 181.963 265.452 179.685 265.452H143.534V271.393H181.031C184.725 271.393 188.267 269.867 190.879 267.152C193.491 264.436 194.958 260.752 194.958 256.911V196.065V194.469H188.277V193.035Z" fill="black"/>
</g>
<path d="M102.166 264.089C99.8875 264.089 97.702 263.148 96.0907 261.472C94.4794 259.797 93.5741 257.524 93.5741 255.155V194.502H86.8926V255.567C86.8926 259.408 88.3599 263.091 90.9718 265.807C93.5837 268.523 97.1262 270.049 100.82 270.049H141.359V264.108L102.166 264.089Z" fill="#3A3768"/>
<path d="M143.861 237.083C144.588 237.321 145.198 237.841 145.565 238.535C146.936 240.96 149.086 242.523 151.507 242.523C155.642 242.523 159.006 237.967 159.006 232.341C159.006 226.716 155.646 222.182 151.521 222.182C149.575 222.182 147.8 223.192 146.468 224.851C145.963 225.486 145.535 226.184 145.193 226.927L145.122 227.369C145.122 227.369 143.525 228.788 141.351 227.484V194.503H110.382C110.131 194.162 109.966 193.761 109.901 193.338C109.835 192.914 109.872 192.48 110.007 192.074C110.238 191.32 110.738 190.687 111.403 190.303C113.735 188.877 115.242 186.642 115.242 184.124C115.242 179.824 110.857 176.326 105.45 176.326C100.043 176.326 95.6581 179.813 95.6581 184.124C95.6581 186.148 96.6331 187.997 98.2293 189.382C98.8394 189.905 99.5086 190.349 100.222 190.704L100.265 190.778C100.733 191.25 101.044 191.864 101.151 192.533C101.259 193.201 101.157 193.888 100.861 194.492H93.5762V255.156C93.5762 257.525 94.4814 259.798 96.0927 261.473C97.7041 263.149 99.8895 264.09 102.168 264.09H141.361V237.64C141.689 237.319 142.096 237.097 142.536 236.999C142.977 236.901 143.435 236.93 143.861 237.083Z" fill="#2CC597"/>
<path d="M86.7755 115.748H85.7148V117.545H86.7755V115.748Z" fill="#3A3768"/>
<path d="M93.4561 115.748H87.6602V117.545H93.4561V115.748Z" fill="#3A3768"/>
<path d="M87.662 115.748H86.7764V117.545H87.662V115.748Z" fill="#3A3768"/>
<path d="M86.5297 126.223H86.7725V117.541H85.7012V125.372C85.7007 125.485 85.7219 125.597 85.7635 125.701C85.8051 125.805 85.8662 125.9 85.9434 125.979C86.0206 126.058 86.1122 126.12 86.2129 126.162C86.3135 126.204 86.4213 126.225 86.5297 126.223Z" fill="#3A3768"/>
<path d="M93.4579 117.541H87.662V125.372C87.662 125.484 87.6407 125.595 87.5994 125.699C87.5581 125.802 87.4975 125.896 87.4212 125.975C87.3449 126.054 87.2543 126.117 87.1547 126.159C87.0551 126.202 86.9483 126.223 86.8406 126.223H86.7764V193.218H93.4579V117.541Z" fill="#3A3768"/>
<path d="M86.7764 126.223H86.8406C86.9483 126.223 87.0551 126.202 87.1547 126.159C87.2543 126.117 87.3449 126.054 87.4212 125.975C87.4975 125.896 87.5581 125.802 87.5994 125.699C87.6407 125.595 87.662 125.484 87.662 125.372V117.541H86.7764V126.223Z" fill="#3A3768"/>
<path d="M94.481 185.216C94.481 179.427 99.3377 174.737 105.326 174.737C111.315 174.737 116.176 179.427 116.176 185.216C116.165 186.764 115.816 188.29 115.153 189.676C114.49 191.063 113.532 192.274 112.351 193.218H141.42V160.678C141.752 160.355 142.163 160.133 142.608 160.035C143.053 159.936 143.515 159.966 143.945 160.121C144.671 160.36 145.283 160.88 145.652 161.573C147.019 163.998 149.169 165.561 151.594 165.561C155.729 165.561 159.093 161.005 159.093 155.383C159.093 149.761 155.744 145.201 151.594 145.201C149.644 145.201 147.869 146.215 146.537 147.871C146.034 148.507 145.606 149.204 145.262 149.947L145.194 149.991C144.716 150.511 144.081 150.846 143.395 150.941C142.709 151.036 142.013 150.886 141.42 150.515V117.541H111.605C111.354 117.2 111.189 116.799 111.123 116.376C111.058 115.952 111.094 115.518 111.23 115.112C111.459 114.358 111.959 113.723 112.626 113.341C114.958 111.919 116.461 109.68 116.461 107.162C116.461 102.862 112.079 99.3643 106.673 99.3643C101.266 99.3643 96.8808 102.851 96.8808 107.162C96.8808 109.19 97.8557 111.035 99.4484 112.42C100.06 112.944 100.73 113.389 101.445 113.746L101.488 113.816C101.956 114.288 102.266 114.903 102.374 115.571C102.481 116.239 102.38 116.926 102.084 117.53H93.4561V193.218H98.3056C97.1247 192.274 96.1664 191.063 95.5036 189.676C94.8408 188.29 94.4911 186.764 94.481 185.216Z" fill="#2CC597"/>
<path d="M87.8388 111.057C87.8388 110.945 87.8175 110.835 87.7762 110.731C87.7349 110.628 87.6743 110.534 87.598 110.455C87.5217 110.376 87.4311 110.313 87.3315 110.271C87.2318 110.228 87.1251 110.207 87.0174 110.207H86.9531V115.747H87.8388V111.057Z" fill="#3A3768"/>
<path d="M86.9231 72.1904H86.7446C86.6372 72.1904 86.5308 72.2124 86.4316 72.2552C86.3324 72.2979 86.2422 72.3605 86.1663 72.4395C86.0904 72.5184 86.0301 72.6122 85.989 72.7154C85.9479 72.8185 85.9268 72.9291 85.9268 73.0408V80.4674C85.9277 80.6926 86.0142 80.9083 86.1673 81.0676C86.3205 81.2268 86.528 81.3167 86.7446 81.3177H86.9553V72.1941L86.9231 72.1904Z" fill="#3A3768"/>
<path d="M86.6788 88.8926C86.4616 88.8926 86.2532 88.9821 86.0993 89.1414C85.9453 89.3008 85.8584 89.5171 85.8574 89.7429V103.924C85.8584 104.15 85.9453 104.366 86.0993 104.526C86.2532 104.685 86.4616 104.774 86.6788 104.774H86.9538V88.8926H86.6788Z" fill="#3A3768"/>
<path d="M86.9532 110.329H86.7211C86.5042 110.329 86.2962 110.419 86.1429 110.578C85.9895 110.738 85.9033 110.954 85.9033 111.179V115.869H86.9747L86.9532 110.329Z" fill="#3A3768"/>
<path d="M86.9544 56.5162V72.1938C87.1654 72.2015 87.3652 72.294 87.5118 72.452C87.6583 72.6099 87.7402 72.8209 87.7401 73.0404V80.467C87.7393 80.6862 87.6572 80.8966 87.5108 81.0544C87.3644 81.2121 87.1651 81.305 86.9544 81.3136V88.8961H87.0794C87.1868 88.8961 87.2931 88.9181 87.3923 88.9609C87.4916 89.0036 87.5817 89.0662 87.6577 89.1452C87.7336 89.2242 87.7938 89.3179 87.8349 89.4211C87.876 89.5243 87.8972 89.6348 87.8972 89.7465V103.928C87.8972 104.153 87.811 104.369 87.6577 104.529C87.5043 104.688 87.2963 104.778 87.0794 104.778H86.9473V110.348H87.0115C87.2288 110.348 87.4371 110.437 87.5911 110.597C87.745 110.756 87.832 110.972 87.8329 111.198V115.87H93.6288V56.9395C93.6288 54.5707 94.5336 52.2988 96.1441 50.6234C97.7547 48.948 99.9392 48.0063 102.217 48.0054H113.863V49.5575C113.863 51.5084 114.608 53.3795 115.935 54.759C117.262 56.1385 119.061 56.9135 120.937 56.9135H141.425V52.0566H131.993C131.629 52.0546 131.279 51.9036 131.021 51.6361C130.762 51.3687 130.615 51.0062 130.611 50.6269V50.315C130.612 49.9342 130.758 49.5692 131.017 49.3C131.276 49.0307 131.627 48.879 131.993 48.878H141.407V42.0381H100.875C97.1827 42.0401 93.6426 43.5662 91.0324 46.281C88.4221 48.9959 86.9554 52.6773 86.9544 56.5162Z" fill="#3A3768"/>
<path d="M87.7388 80.4636V73.0371C87.7389 72.8176 87.6571 72.6066 87.5105 72.4487C87.3639 72.2907 87.1641 72.1981 86.9531 72.1904V81.3066C87.1632 81.298 87.362 81.2056 87.5083 81.0487C87.6545 80.8917 87.7371 80.6822 87.7388 80.4636Z" fill="#3A3768"/>
<path d="M87.9031 103.924V89.7429C87.9031 89.6313 87.8819 89.5207 87.8408 89.4175C87.7997 89.3143 87.7395 89.2206 87.6635 89.1416C87.5876 89.0627 87.4974 89 87.3982 88.9573C87.299 88.9146 87.1927 88.8926 87.0853 88.8926H86.9531V104.774H87.0781C87.1861 104.775 87.2932 104.754 87.3933 104.712C87.4933 104.669 87.5843 104.607 87.661 104.528C87.7377 104.449 87.7986 104.355 87.8401 104.251C87.8817 104.147 87.9031 104.036 87.9031 103.924Z" fill="#3A3768"/>
<path d="M96.005 107.886C96.005 102.097 100.862 97.4032 106.854 97.4032C112.846 97.4032 117.7 102.097 117.7 107.886C117.685 109.432 117.332 110.955 116.667 112.339C116.002 113.722 115.042 114.93 113.861 115.869H141.394V82.9325C141.725 82.6068 142.137 82.3825 142.583 82.2842C143.029 82.1859 143.492 82.2175 143.922 82.3755C144.648 82.6154 145.257 83.1349 145.626 83.8274C146.994 86.2522 149.147 87.8155 151.568 87.8155C155.703 87.8155 159.067 83.2593 159.067 77.6337C159.067 72.008 155.718 67.4555 151.568 67.4555C149.618 67.4555 147.843 68.4655 146.511 70.1254C146.006 70.7604 145.578 71.4575 145.237 72.2011L145.169 72.643C145.169 72.643 143.572 74.0615 141.394 72.7581V56.9023H120.917C119.044 56.8974 117.249 56.1202 115.926 54.7412C114.604 53.3623 113.861 51.494 113.861 49.5463V47.9941H102.222C101.093 47.9946 99.9756 48.2264 98.9329 48.6763C97.8902 49.1262 96.9429 49.7854 96.1453 50.6162C95.3477 51.4469 94.7154 52.4329 94.2844 53.5179C93.8535 54.6029 93.6324 55.7656 93.6338 56.9395V115.869H99.8261C98.648 114.928 97.6917 113.719 97.0296 112.336C96.3675 110.953 96.0171 109.431 96.005 107.886Z" fill="#2CC597"/>
<path d="M131.991 48.8672C131.625 48.8682 131.274 49.0199 131.015 49.2892C130.756 49.5585 130.61 49.9234 130.609 50.3042V50.6273C130.61 51.0085 130.756 51.3738 131.015 51.6437C131.274 51.9135 131.625 52.0661 131.991 52.068H141.405V48.8783L131.991 48.8672Z" fill="#E6E8EC"/>
<path d="M195.701 93.7312V115.773H198.112V92.8438H196.808C196.198 92.8438 195.701 93.2411 195.701 93.7312Z" fill="#3A3768"/>
<path d="M147.132 41.8789H144.275V48.5628H147.132V41.8789Z" fill="#3A3768"/>
<path d="M147.132 51.9043H144.275V56.7316H147.132V51.9043Z" fill="#3A3768"/>
<path d="M147.132 48.5625H144.275V51.9045H147.132V48.5625Z" fill="#E6E8EC"/>
<path d="M198.604 93.7754H197.933V115.747H199.422V94.6294C199.422 94.4036 199.336 94.1869 199.182 94.0268C199.029 93.8668 198.821 93.7764 198.604 93.7754Z" fill="#3A3768"/>
<path d="M147.131 48.5628C147.892 48.7411 148.559 50.1818 148.559 50.1818V50.4937C148.559 50.4937 147.888 51.9308 147.131 51.9048V56.7321H163.269C165.145 56.7311 166.945 55.9553 168.271 54.5751C169.598 53.195 170.343 51.3236 170.343 49.3723V47.8202H182.485C184.76 47.8251 186.94 48.7682 188.546 50.4424C190.153 52.1167 191.056 54.3854 191.056 56.7507V100.014C192.174 100.944 193.078 102.123 193.698 103.465C194.319 104.807 194.641 106.277 194.641 107.766C194.641 109.255 194.319 110.725 193.698 112.067C193.078 113.408 192.174 114.588 191.056 115.517V115.766H196.055V93.9727C196.055 93.9583 196.058 93.9439 196.063 93.9306C196.069 93.9173 196.077 93.9053 196.087 93.8952C196.097 93.8852 196.109 93.8773 196.122 93.8721C196.135 93.8669 196.148 93.8645 196.162 93.865H197.841V55.8038C197.841 53.975 197.495 52.164 196.822 50.4744C196.15 48.7847 195.163 47.2495 193.92 45.9563C192.676 44.6632 191.199 43.6375 189.574 42.9379C187.949 42.2383 186.208 41.8784 184.449 41.8789H146.777V48.5628H147.131ZM152.538 48.5294C152.882 48.5294 153.218 48.6355 153.504 48.8342C153.79 49.0329 154.013 49.3153 154.144 49.6458C154.276 49.9762 154.31 50.3398 154.243 50.6906C154.176 51.0414 154.011 51.3636 153.767 51.6165C153.524 51.8694 153.214 52.0416 152.877 52.1114C152.539 52.1812 152.19 52.1454 151.872 52.0085C151.554 51.8716 151.283 51.6399 151.092 51.3425C150.9 51.0451 150.798 50.6955 150.798 50.3378C150.798 49.8582 150.982 49.3982 151.308 49.0591C151.634 48.7199 152.076 48.5294 152.538 48.5294Z" fill="#3A3768"/>
<path d="M152.116 65.9922C157.726 65.9922 162.276 71.046 162.276 77.2769C162.276 83.5078 157.726 88.5616 152.116 88.5616C150.591 88.5529 149.089 88.178 147.726 87.4663C146.363 86.7546 145.177 85.7252 144.26 84.4584V115.773H176.757C175.579 114.828 174.624 113.618 173.963 112.232C173.301 110.847 172.951 109.324 172.939 107.778C172.939 101.981 177.785 97.2841 183.767 97.2841C186.432 97.2654 189.017 98.2328 191.059 100.013V56.7498C191.059 54.3845 190.157 52.1158 188.55 50.4416C186.943 48.7673 184.763 47.8243 182.489 47.8193H170.347V49.3715C170.347 51.3228 169.602 53.1942 168.275 54.5743C166.948 55.9544 165.149 56.7303 163.272 56.7312H144.278V70.0991C145.193 68.8345 146.376 67.8063 147.736 67.094C149.095 66.3818 150.594 66.0048 152.116 65.9922Z" fill="#2CC597"/>
<path d="M147.131 51.9045C147.497 51.9049 147.85 51.7587 148.116 51.496C148.382 51.2333 148.541 50.8743 148.559 50.4934V50.1815C148.518 49.7887 148.357 49.4199 148.1 49.1287C147.843 48.8375 147.503 48.6392 147.131 48.5625H146.773V51.9045H147.131Z" fill="#E6E8EC"/>
<path d="M152.816 52.1143C153.764 51.9542 154.408 51.0253 154.254 50.0395C154.1 49.0537 153.207 48.3842 152.259 48.5442C151.311 48.7043 150.667 49.6332 150.821 50.619C150.975 51.6048 151.868 52.2743 152.816 52.1143Z" fill="#E6E8EC"/>
<path d="M188.633 191.551V187.838C189.373 186.778 189.772 185.501 189.772 184.191C189.772 182.881 189.373 181.605 188.633 180.545V191.551Z" fill="#3A3768"/>
<path d="M195.314 192.984H188.633V194.581H195.314V192.984Z" fill="#3A3768"/>
<path d="M185.936 190.378C185.27 190.761 184.771 191.395 184.54 192.149C184.404 192.555 184.367 192.99 184.433 193.414C184.498 193.839 184.664 194.24 184.915 194.581H188.633V192.984H187.204C187.722 192.554 188.2 192.074 188.633 191.551V187.838C187.922 188.878 187.002 189.745 185.936 190.378Z" fill="#2CC597"/>
<path d="M187.196 192.984H188.625V191.551C188.192 192.074 187.714 192.553 187.196 192.984Z" fill="#2CC597"/>
<path d="M189.772 184.197C189.763 182.889 189.365 181.615 188.633 180.551V187.84C189.364 186.777 189.762 185.504 189.772 184.197Z" fill="#3A3768"/>
<path d="M195.315 194.58V255.445C195.315 259.286 193.847 262.969 191.236 265.685C188.624 268.401 185.081 269.927 181.387 269.927H143.891V263.985H180.041C182.32 263.985 184.505 263.044 186.117 261.369C187.728 259.693 188.633 257.421 188.633 255.051V194.58H195.315Z" fill="#3A3768"/>
<path d="M184.541 192.149C184.771 191.395 185.271 190.761 185.937 190.378C187.002 189.746 187.922 188.88 188.633 187.842V180.552C186.987 178.091 183.734 176.412 179.984 176.412C174.574 176.412 170.192 179.899 170.192 184.21C170.192 186.237 171.167 188.083 172.76 189.468C173.371 189.992 174.042 190.437 174.756 190.794L174.799 190.864C175.267 191.336 175.577 191.951 175.684 192.619C175.791 193.287 175.69 193.974 175.395 194.578H143.891V225.027C144.795 223.768 145.968 222.744 147.317 222.036C148.666 221.327 150.154 220.953 151.665 220.942C157.232 220.942 161.743 225.992 161.743 232.219C161.743 238.446 157.232 243.5 151.665 243.5C150.154 243.49 148.666 243.115 147.317 242.407C145.968 241.698 144.795 240.674 143.891 239.416V263.994H180.041C182.316 263.994 184.498 263.056 186.109 261.385C187.72 259.714 188.628 257.448 188.633 255.082V194.581H184.926C184.674 194.241 184.506 193.84 184.439 193.416C184.371 192.991 184.406 192.556 184.541 192.149Z" fill="#2CC597"/>
<path d="M252.486 99.9392C254.479 99.0071 255.954 97.4364 256.457 95.4238C256.518 95.1796 256.564 94.9315 256.593 94.6811C256.682 94.4494 256.758 94.2126 256.822 93.9719C257.325 91.9519 256.772 89.8613 255.458 88.0752L252.847 98.4724L252.486 99.9392Z" fill="url(#paint0_linear)"/>
<path d="M312.744 96.037C312.337 93.5528 304.795 88.1722 304.795 88.1722C304.795 88.1722 301.463 86.3156 299.699 84.1693C298.571 82.8028 298.217 82.8176 298.11 83.0033C298.037 82.9548 297.953 82.9255 297.867 82.9179C297.796 82.8659 297.728 82.8176 297.664 82.7619C297.674 82.6571 297.652 82.5514 297.602 82.4601C297.551 82.3688 297.474 82.2964 297.381 82.2532C297.296 82.2012 297.21 82.1344 297.124 82.0713C296.553 81.0724 296.349 79.6576 296.281 78.4248C296.196 76.8689 294.496 77.2588 293.914 77.4334C293.514 76.6536 293.125 75.8441 292.757 75.0346C292.919 74.7718 293.055 74.4917 293.16 74.1991C294.21 71.8263 293.982 69.1044 294.439 66.5943C294.767 64.7785 295.453 62.881 295.317 61.1134C295.317 61.0726 295.317 61.028 295.317 60.9835C295.317 60.9835 295.317 61.002 295.317 61.0095C295.28 60.5667 295.183 60.1316 295.028 59.7172C294.724 58.9226 294.196 58.2319 293.957 57.4113C293.575 56.2119 293.817 54.8899 293.5 53.6757C293.103 52.1384 291.853 50.9501 290.439 50.2706C289.025 49.5911 287.45 49.3571 285.9 49.1566C282.026 48.6516 277.908 48.3508 274.373 50.0441C274.048 50.2438 273.678 50.3478 273.301 50.3449C272.952 50.2447 272.622 50.0854 272.323 49.8733C271.373 49.3831 270.18 49.695 269.33 50.3486C268.48 51.0021 267.902 51.9453 267.341 52.8588C266.78 53.7722 266.166 54.7154 265.288 55.3133C264.256 56.0299 262.892 56.2713 262.074 57.2367C261.709 57.6945 261.479 58.2512 261.409 58.8409C261.409 58.8409 261.409 58.8223 261.409 58.8149C261.406 58.8854 261.406 58.956 261.409 59.0266C261.409 59.0823 261.409 59.1417 261.409 59.1974C261.409 59.2531 261.409 59.2902 261.409 59.3348C261.409 59.4944 261.409 59.6504 261.409 59.8063C261.524 60.7135 261.756 61.6003 262.099 62.4428C262.264 63.0714 262.587 63.6431 263.034 64.0989C264.277 65.1498 266.248 64.1583 267.748 64.745C267.88 64.7933 268.005 64.8564 268.13 64.9158C268.13 64.9753 268.091 65.0347 268.073 65.0978C267.752 66.2324 267.59 67.4092 267.591 68.592C267.591 75.5656 273.158 81.2172 280.026 81.2172C280.283 81.2172 280.536 81.2172 280.79 81.1875C280.826 81.3249 280.865 81.466 280.897 81.5997C281.279 83.1406 281.4 84.7389 281.254 86.323L281.179 85.6323C281.012 85.5492 280.839 85.4809 280.661 85.4281C280.164 85.256 279.643 85.1732 279.119 85.183C277.43 85.1607 274.887 85.8662 272.173 89.2899C272.173 89.2899 268.709 91.2914 267.691 91.7741C267.608 91.8266 267.542 91.9043 267.502 91.9969C267.502 91.9969 262.87 99.2713 262.392 102.038C261.913 104.804 261.32 107.979 261.32 107.979C261.32 107.979 260.163 111.566 259.417 113.155C258.67 114.745 257.988 116.26 257.924 116.95C257.86 117.641 258.195 119.156 256.767 120.121C255.339 121.087 254.981 123.708 254.981 123.708C254.981 123.708 254.267 124.407 253.257 125.29H253.221L256.953 110.411L257.621 110.586C257.78 110.627 257.948 110.619 258.104 110.564C258.26 110.509 258.397 110.408 258.499 110.274C258.568 110.183 258.618 110.078 258.645 109.966L259.399 106.95L259.702 105.751L259.763 105.506L260.202 103.757L258.717 103.386L256.978 102.936L252.064 101.648L252.492 99.9396L252.849 98.4915L255.096 89.5276L255.453 88.0831C254.024 86.1596 251.75 84.5963 248.953 83.8722C243.561 82.4797 238.34 84.7448 237.29 88.9297C237.228 89.1738 237.181 89.4219 237.151 89.6724C237.06 89.9019 236.985 90.1376 236.926 90.3779C236.744 91.1046 236.695 91.8605 236.783 92.6059C236.797 92.7272 236.815 92.851 236.837 92.9772C237.051 94.1334 237.519 95.2225 238.204 96.1595C238.687 96.829 239.247 97.4339 239.872 97.9605L239.897 98.0421C240.162 98.4926 240.322 99.0012 240.365 99.5275C240.365 99.6017 240.365 99.6797 240.365 99.7577C240.245 99.9817 240.101 100.191 239.936 100.382L206.989 91.8669L206.632 93.3114L199.211 122.962C200.179 122.189 201.265 121.592 202.425 121.198C202.881 121.041 203.346 120.917 203.818 120.827L203.986 120.797C205.314 120.573 206.672 120.631 207.978 120.968C212.142 122.045 215.021 125.732 215.556 130.069C215.626 130.617 215.655 131.169 215.646 131.722C215.635 132.426 215.564 133.129 215.431 133.82C213.646 139.457 208.16 142.862 202.832 141.484C201.339 141.092 199.953 140.347 198.782 139.307C197.612 138.267 196.688 136.96 196.083 135.487L195.726 136.935L188.069 167.366L217.249 174.911L217.563 173.452H217.61C216.745 172.339 216.119 171.047 215.772 169.663C215.424 168.279 215.364 166.834 215.596 165.424C215.596 165.375 215.624 165.331 215.642 165.282C215.678 165.175 215.717 165.071 215.756 164.967C215.956 164.459 216.195 163.968 216.47 163.5C216.613 163.259 216.763 163.025 216.924 162.798C217.024 162.657 217.128 162.52 217.235 162.386C217.749 161.739 218.335 161.158 218.981 160.656L219.188 160.5C219.424 160.325 219.667 160.158 219.902 160.002C220.049 159.913 220.199 159.824 220.349 159.742C222.077 158.793 224.008 158.314 225.963 158.35C226.902 158.363 227.836 158.487 228.748 158.721C231.563 159.424 234.022 161.202 235.637 163.701C235.85 164.036 236.046 164.383 236.222 164.74C236.748 165.801 237.09 166.95 237.233 168.134C237.345 169.08 237.321 170.037 237.162 170.975C236.467 173.052 235.141 174.836 233.383 176.058L233.026 177.455H233.065L233.012 177.495L232.655 178.888L239.319 180.611L248.757 143.088C251.303 142.78 252.607 141.603 252.607 141.432C252.607 141.261 255.667 139.497 257.363 139.015C258.206 138.777 259.181 138.606 259.956 138.435C259.042 143.155 258.17 147.719 258.249 147.986C258.274 148.09 258.438 147.927 258.688 147.57C258.664 147.707 258.653 147.847 258.656 147.986C258.656 148.057 258.753 148.005 258.878 147.86L258.86 147.949C258.86 147.949 253.56 158.61 253.146 159.831C252.732 161.053 253.246 164.18 254.878 165.216C255.194 165.424 255.476 165.683 255.714 165.984L255.521 166.382C254.914 167.663 254.374 169.089 254.471 169.976C254.598 171.099 254.346 172.234 253.757 173.184C253.757 173.184 249.168 187.93 249.271 192.174C249.375 196.418 247.639 205.731 247.639 205.731C247.639 205.731 245.754 211.732 246.875 213.44C247.996 215.148 249.271 222.601 249.271 222.601C249.271 222.601 250.139 224.309 250.085 225.757C250.032 227.205 250.903 229.842 250.903 229.842L253.76 240.551C253.76 240.551 253.453 243.399 254.524 245.415C255.596 247.432 255.492 246.812 254.981 250.332C254.471 253.852 255.596 257.109 257.428 258.13C258.142 258.531 258.178 259.143 257.956 259.741C257.488 259.552 257.099 260.558 256.867 261.371L256.631 261.605L256.788 261.646C256.688 262.018 256.631 262.329 256.631 262.329C256.631 262.329 251.842 266.47 251.535 267.97C251.228 269.47 247.864 270.246 247.864 270.246C247.864 270.246 242.768 271.694 241.436 272.418C241.055 272.599 240.725 272.878 240.479 273.23C240.232 273.582 240.077 273.995 240.029 274.427C239.969 275.109 240.032 275.797 240.215 276.455C240.722 278.575 247.857 278.783 251.285 278.215C254.714 277.647 261.781 275.575 261.781 275.575C261.781 275.575 269.223 274.832 271.423 273.919C273.623 273.005 271.88 270.606 271.88 270.606C271.88 270.606 271.88 270.528 271.88 270.384C271.934 269.518 272.087 266.381 271.559 265.556C271.162 264.918 271.173 263.328 271.23 262.318C272.719 259.533 269.523 251.178 269.523 251.178C269.523 251.178 270.134 243.009 269.727 241.814C269.32 240.618 267.584 230.48 267.584 230.48C267.584 230.48 266.513 225.876 266.923 225.1C267.334 224.324 266.666 222.096 266.666 222.096C266.666 222.096 264.92 219.619 265.077 218.839C265.234 218.06 264.566 216.667 264.566 216.667C264.566 216.667 269.766 208.594 269.305 207.094C268.845 205.594 269.512 203.162 269.512 203.162C269.512 203.162 270.166 202.018 270.941 200.648C271.905 198.969 273.083 196.961 273.469 196.333C273.969 195.535 275.173 192.137 275.844 190.18C276.13 189.348 276.322 188.776 276.322 188.776C276.322 188.776 277.137 204.001 277.851 205.542C278.565 207.083 279.636 219.359 279.636 219.359C280.033 220.449 280.207 221.612 280.147 222.775C280.047 224.688 281.779 233.02 281.779 233.02C281.779 233.02 282.543 238.917 282.033 240.469C281.522 242.021 281.933 253.466 281.933 253.466C281.933 253.466 279.129 255.694 278.415 257.398C277.701 259.103 278.515 263.763 278.515 263.763L278.844 263.922C278.581 264.57 278.386 265.244 278.262 265.935C278.162 266.919 276.63 271.371 276.783 271.991C276.937 272.612 276.122 274.528 276.019 275.508C275.915 276.488 274.644 277.94 274.54 278.46C274.379 278.925 274.192 279.38 273.98 279.823C273.703 280.503 273.482 281.206 273.319 281.925C272.809 284.101 278.872 284.461 278.872 284.461C287.843 286.169 289.475 279.184 289.475 279.184C289.475 279.184 290.596 272.975 291.003 272.5C291.053 272.412 291.085 272.314 291.097 272.212C291.108 272.111 291.1 272.008 291.071 271.91C290.838 270.854 290.398 269.859 289.778 268.987C289.493 268.642 289.475 267.755 289.521 266.96C289.781 266.934 290.038 266.884 290.289 266.811C293.907 265.727 292.432 259.463 292.432 259.463C292.432 259.463 294.878 255.326 294.878 253.722C294.878 252.118 295.746 247.201 295.746 247.201C298.856 241.405 297.631 227.332 298.142 226.192C298.653 225.052 297.071 220.811 295.796 218.895C294.521 216.979 295.032 211.806 295.796 210.306C296.56 208.806 295.032 203.622 295.032 203.622C295.032 203.622 296.51 193.596 296.46 192.029C296.41 190.462 297.735 185.873 297.735 185.873C297.735 185.873 299.06 183.492 298.753 182.768C298.446 182.044 299.77 180.169 299.417 179.352C299.063 178.535 299.72 175.988 300.385 174.488C300.724 173.719 301.145 171.603 301.456 169.72C301.492 169.512 301.527 169.304 301.56 169.1C303.045 170.076 304.417 170.804 304.902 170.607C305.813 170.236 304.363 165.409 303.37 162.401C303.542 162.267 303.613 162.167 303.542 162.122C302.931 161.707 303.609 159.843 303.609 159.843C307.213 157.637 305.988 155.981 304.834 155.015C303.681 154.05 304.427 151.302 304.084 150.188C303.742 149.074 304.495 144.05 305.106 140.392C305.232 139.598 305.226 138.786 305.088 137.993C305.741 136.957 306.416 135.873 307.009 134.871C309.045 131.421 313.394 115.001 313.394 115.001L313.366 114.915C313.791 114.043 314.109 113.333 314.28 112.862C315.598 109.297 313.151 98.5286 312.744 96.037ZM281.076 86.5829L281.168 86.5384C281.168 86.5643 281.168 86.5903 281.168 86.6163L281.076 86.5829ZM261.302 262.723C261.08 262.725 260.86 262.679 260.656 262.589L261.302 262.723Z" fill="url(#paint1_linear)"/>
<path d="M223.549 143.048C226.488 144.206 233.319 144.333 236.355 144.333C237.276 144.333 237.847 144.333 237.847 144.333L239.794 140.211L237.847 136.776C237.847 136.776 236.062 136.264 233.69 135.818C230.191 135.164 225.402 134.652 223.12 136.123C219.292 138.584 219.72 141.537 223.549 143.048Z" fill="#FEC2BE"/>
<path opacity="0.1" d="M236.351 144.333C237.272 144.333 237.844 144.333 237.844 144.333L239.79 140.211L237.847 136.776C237.847 136.776 236.062 136.264 233.69 135.818C235.615 137.289 240.243 140.49 236.351 144.333Z" fill="black"/>
<path d="M268.587 93.7462L267.73 92.7139C267.73 92.7139 263.305 99.9919 262.841 102.74C262.377 105.488 261.77 108.644 261.77 108.644C261.77 108.644 260.648 112.216 259.92 113.794C259.191 115.372 258.534 116.884 258.47 117.571C258.406 118.258 258.734 119.769 257.345 120.731C255.956 121.692 255.631 124.303 255.631 124.303C255.631 124.303 250.61 129.383 247.967 129.501C245.325 129.62 237.732 131.013 237.997 132.387C238.261 133.761 234.829 134.581 233.44 134.927C232.051 135.272 242.368 139.383 236.347 144.678C236.347 144.678 240.175 145.502 240.571 146.46C240.968 147.418 244.996 145.914 244.996 145.914C244.996 145.914 245.857 143.783 248.828 143.645C251.799 143.508 253.317 142.134 253.317 141.93C253.317 141.726 256.288 140.006 257.959 139.527C259.63 139.048 261.787 138.84 261.855 138.358C261.923 137.875 271.762 93.7276 271.762 93.7276L268.587 93.7462Z" fill="#4C4981"/>
<path opacity="0.05" d="M268.587 93.7462L267.73 92.7139C267.73 92.7139 263.305 99.9919 262.841 102.74C262.377 105.488 261.77 108.644 261.77 108.644C261.77 108.644 260.648 112.216 259.92 113.794C259.191 115.372 258.534 116.884 258.47 117.571C258.406 118.258 258.734 119.769 257.345 120.731C255.956 121.692 255.631 124.303 255.631 124.303C255.631 124.303 250.61 129.383 247.967 129.501C245.325 129.62 237.732 131.013 237.997 132.387C238.261 133.761 234.829 134.581 233.44 134.927C232.051 135.272 242.368 139.383 236.347 144.678C236.347 144.678 240.175 145.502 240.571 146.46C240.968 147.418 244.996 145.914 244.996 145.914C244.996 145.914 245.857 143.783 248.828 143.645C251.799 143.508 253.317 142.134 253.317 141.93C253.317 141.726 256.288 140.006 257.959 139.527C259.63 139.048 261.787 138.84 261.855 138.358C261.923 137.875 271.762 93.7276 271.762 93.7276L268.587 93.7462Z" fill="black"/>
<path d="M278.874 284.294C287.591 285.994 289.177 279.039 289.177 279.039C289.177 279.039 290.266 272.861 290.662 272.396C290.712 272.309 290.743 272.211 290.755 272.11C290.766 272.009 290.758 271.907 290.73 271.81C290.501 270.762 290.074 269.772 289.473 268.898C288.93 268.23 289.373 265.449 289.373 265.449L279.27 262.771C279.27 262.771 278.378 264.881 278.281 265.861C278.185 266.841 276.696 271.268 276.853 271.888C277.01 272.508 276.21 274.409 276.11 275.389C276.01 276.37 274.774 277.81 274.682 278.323C274.526 278.787 274.344 279.241 274.135 279.682C273.867 280.36 273.652 281.059 273.492 281.772C272.982 283.934 278.874 284.294 278.874 284.294Z" fill="#CA8496"/>
<path opacity="0.1" d="M278.871 284.293C287.588 285.993 289.174 279.038 289.174 279.038C289.174 279.038 290.263 272.859 290.659 272.395C290.709 272.308 290.74 272.21 290.752 272.109C290.764 272.008 290.755 271.906 290.727 271.809L288.627 278.062C288.627 278.062 286.895 281.82 280.457 281.255C276.793 280.932 274.989 280.227 274.114 279.677C273.846 280.355 273.631 281.054 273.472 281.768C272.979 283.932 278.871 284.293 278.871 284.293Z" fill="black"/>
<path opacity="0.1" d="M285.656 274.51C285.656 274.51 283.478 274.562 283.328 272.709L285.656 274.51Z" fill="black"/>
<path d="M217.894 173.438L219.276 173.805L218.972 175.264L217.69 174.927L217.894 173.438Z" fill="#2CC597"/>
<path opacity="0.1" d="M217.894 173.438L219.276 173.805L218.972 175.264L217.69 174.927L217.894 173.438Z" fill="black"/>
<path d="M258.909 105.491L258.482 107.232L259.926 107.614L260.352 105.873L258.909 105.491Z" fill="#3A3768"/>
<path d="M252.429 103.774L252.003 105.516L256.789 106.782L257.216 105.041L252.429 103.774Z" fill="#3A3768"/>
<path d="M257.214 105.045L256.788 106.787L258.48 107.235L258.907 105.493L257.214 105.045Z" fill="#3A3768"/>
<path d="M252.502 103.549C252.388 103.604 252.277 103.664 252.166 103.712L252.445 103.786L252.016 105.528L249.899 104.967C249.738 104.572 249.674 104.142 249.712 103.715C249.75 103.288 249.889 102.878 250.116 102.52C250.52 101.843 251.16 101.356 251.902 101.161C252.355 101.025 252.798 100.854 253.227 100.648L252.502 103.549Z" fill="#2CC597"/>
<path d="M257.555 111.068L258.201 111.243C258.305 111.271 258.414 111.277 258.521 111.261C258.627 111.245 258.73 111.207 258.822 111.15C258.915 111.093 258.996 111.017 259.06 110.927C259.124 110.837 259.171 110.735 259.197 110.627L259.919 107.626L258.49 107.255L257.555 111.068Z" fill="#3A3768"/>
<path d="M257.065 96.1561C256.572 98.1612 255.14 99.7245 253.204 100.649L255.74 90.2891C257.025 92.0677 257.565 94.1509 257.065 96.1561Z" fill="#3A3768"/>
<path d="M256.655 110.831C256.446 110.775 256.266 110.635 256.156 110.441C256.045 110.248 256.013 110.017 256.066 109.799L256.802 106.795L252.017 105.528L237.421 165.142C238.483 167.29 238.752 169.767 238.179 172.107C237.606 174.447 236.231 176.489 234.311 177.848L233.972 179.237L240.446 180.964L257.555 111.083L256.655 110.831Z" fill="#3A3768"/>
<path d="M256.068 109.798C256.015 110.016 256.047 110.247 256.158 110.441C256.268 110.634 256.448 110.774 256.657 110.83L257.557 111.068L258.493 107.243L256.804 106.794L256.068 109.798Z" fill="#3A3768"/>
<path d="M250.116 102.521C250.521 101.846 251.161 101.36 251.901 101.162C252.353 101.025 252.795 100.854 253.223 100.649L255.762 90.289C254.173 88.1897 251.945 86.713 249.445 86.1004C244.206 84.7116 239.128 86.9656 238.11 91.1319C237.628 93.0962 238.135 95.1348 239.353 96.8875C239.819 97.5521 240.362 98.1545 240.97 98.681L240.995 98.7627C241.339 99.3416 241.495 100.02 241.44 100.698C241.385 101.376 241.121 102.018 240.688 102.528L208.669 94.0506L201.445 123.564C202.617 122.577 203.992 121.885 205.463 121.541C206.934 121.197 208.461 121.211 209.927 121.581C215.322 123.011 218.497 129.063 217.019 135.097C215.54 141.131 209.984 144.871 204.588 143.46C203.125 143.059 201.772 142.312 200.634 141.277C199.496 140.241 198.604 138.946 198.028 137.492L190.61 167.778L218.972 175.283C218.052 174.068 217.411 172.652 217.096 171.141C216.782 169.63 216.803 168.065 217.158 166.564C218.533 160.957 224.35 157.652 230.157 159.189C231.707 159.584 233.158 160.319 234.411 161.346C235.665 162.373 236.692 163.667 237.424 165.142L252.019 105.528L249.923 104.968C249.759 104.575 249.69 104.146 249.724 103.719C249.758 103.292 249.892 102.88 250.116 102.521Z" fill="#2CC597"/>
<path d="M252.443 103.786L252.504 103.549C252.393 103.605 252.282 103.664 252.168 103.716L252.443 103.786Z" fill="#2CC597"/>
<g opacity="0.1">
<path opacity="0.1" d="M258.919 105.502L257.23 105.053L252.448 103.787L252.509 103.549L253.223 100.649C252.794 100.855 252.351 101.026 251.898 101.162C251.156 101.357 250.516 101.844 250.112 102.521C250.007 102.707 249.919 102.904 249.848 103.107C249.918 102.904 250.005 102.708 250.109 102.521C250.514 101.846 251.154 101.36 251.894 101.162C252.346 101.025 252.788 100.854 253.216 100.649L255.755 90.289C254.165 88.1897 251.938 86.713 249.437 86.1004C244.199 84.7116 239.12 86.9656 238.103 91.1319C237.621 93.0962 238.128 95.1348 239.345 96.8875C239.812 97.5521 240.355 98.1545 240.963 98.6811L240.988 98.7627C241.332 99.3416 241.488 100.02 241.433 100.698C241.378 101.376 241.114 102.018 240.681 102.528L208.662 94.0506L201.438 123.564C202.611 122.576 203.987 121.883 205.459 121.539C206.931 121.195 208.46 121.209 209.927 121.581C215.323 123.011 218.497 129.063 217.019 135.097C215.54 141.131 209.984 144.871 204.588 143.46C203.125 143.059 201.772 142.312 200.634 141.277C199.496 140.241 198.604 138.946 198.028 137.492L190.61 167.778L218.972 175.283C218.052 174.068 217.411 172.652 217.096 171.141C216.782 169.63 216.803 168.065 217.158 166.564C218.533 160.957 224.35 157.652 230.157 159.189C231.707 159.584 233.158 160.319 234.411 161.346C235.665 162.373 236.692 163.667 237.424 165.142C238.485 167.29 238.755 169.767 238.182 172.107C237.609 174.448 236.233 176.489 234.314 177.848L233.974 179.237L240.449 180.964L257.558 111.083L258.204 111.258C258.309 111.286 258.417 111.292 258.524 111.276C258.631 111.26 258.733 111.222 258.826 111.165C258.918 111.108 258.999 111.032 259.064 110.942C259.128 110.852 259.175 110.75 259.201 110.642L259.922 107.626L260.347 105.885L258.919 105.502ZM252.334 103.646C252.28 103.672 252.226 103.701 252.173 103.724L252.334 103.646ZM249.905 104.979L252.023 105.54L249.905 104.979Z" fill="black"/>
<path opacity="0.1" d="M257.067 96.1561C257.557 94.1509 257.017 92.0714 255.743 90.2891L253.207 100.649C255.153 99.7246 256.585 98.1575 257.067 96.1561Z" fill="black"/>
</g>
<path d="M259.26 104.055L258.834 105.797L260.277 106.179L260.703 104.437L259.26 104.055Z" fill="#3A3768"/>
<path d="M252.78 102.338L252.354 104.08L257.14 105.347L257.566 103.605L252.78 102.338Z" fill="#3A3768"/>
<path d="M257.565 103.602L257.139 105.344L258.831 105.792L259.257 104.05L257.565 103.602Z" fill="#3A3768"/>
<path d="M252.858 102.109L252.522 102.276L252.797 102.346L252.372 104.099L250.254 103.538C250.091 103.144 250.026 102.714 250.063 102.287C250.1 101.859 250.24 101.448 250.469 101.091C250.873 100.416 251.513 99.9292 252.254 99.7322C252.707 99.5966 253.148 99.4253 253.576 99.2197L252.858 102.109Z" fill="#2CC597"/>
<path d="M257.906 109.632L258.556 109.803C258.661 109.832 258.771 109.839 258.879 109.824C258.987 109.809 259.091 109.772 259.184 109.714C259.278 109.657 259.36 109.581 259.425 109.49C259.49 109.399 259.537 109.296 259.563 109.186L260.299 106.186L258.87 105.814L257.906 109.632Z" fill="#3A3768"/>
<path d="M257.419 94.7184C256.93 96.7198 255.498 98.2831 253.559 99.2077L256.098 88.8477C257.376 90.6263 257.915 92.7095 257.419 94.7184Z" fill="#3A3768"/>
<path d="M257.011 109.394C256.907 109.366 256.809 109.317 256.723 109.25C256.637 109.183 256.565 109.099 256.51 109.003C256.455 108.907 256.419 108.8 256.404 108.689C256.389 108.579 256.395 108.466 256.422 108.358L257.136 105.357L252.372 104.099L237.781 163.704C238.844 165.851 239.115 168.329 238.542 170.669C237.969 173.01 236.592 175.051 234.67 176.408L234.331 177.796L240.809 179.512L257.915 109.631L257.011 109.394Z" fill="#3A3768"/>
<path d="M256.421 108.358C256.395 108.466 256.389 108.579 256.404 108.689C256.419 108.8 256.455 108.907 256.509 109.003C256.564 109.099 256.637 109.183 256.723 109.25C256.809 109.317 256.906 109.366 257.011 109.394L257.907 109.631L258.85 105.803L257.157 105.357L256.421 108.358Z" fill="#3A3768"/>
<path d="M250.468 101.08C250.872 100.405 251.512 99.9177 252.253 99.7206C252.705 99.5851 253.147 99.4137 253.574 99.2082L256.11 88.8481C254.522 86.7493 252.296 85.2726 249.796 84.6595C244.554 83.2744 239.479 85.5247 238.458 89.6947C237.979 91.6553 238.483 93.694 239.704 95.4466C240.171 96.1124 240.714 96.716 241.322 97.2439L241.347 97.3218C241.69 97.901 241.845 98.5793 241.79 99.2571C241.735 99.9348 241.472 100.576 241.04 101.087L209.018 92.6134L201.782 122.123C202.956 121.134 204.334 120.44 205.809 120.097C207.283 119.753 208.814 119.769 210.282 120.144C215.674 121.57 218.852 127.622 217.374 133.66C215.895 139.698 210.335 143.43 204.925 142.004C203.465 141.601 202.114 140.852 200.978 139.816C199.842 138.78 198.951 137.486 198.376 136.033L190.962 166.319L219.32 173.827C218.401 172.612 217.76 171.196 217.446 169.685C217.133 168.174 217.154 166.609 217.51 165.108C218.881 159.497 224.702 156.196 230.509 157.733C232.061 158.128 233.515 158.866 234.769 159.896C236.024 160.926 237.05 162.225 237.779 163.704L252.371 104.099L250.253 103.538C250.09 103.142 250.025 102.71 250.062 102.281C250.099 101.852 250.239 101.439 250.468 101.08Z" fill="#2CC597"/>
<path d="M252.795 102.35L252.853 102.108C252.742 102.164 252.631 102.224 252.521 102.275L252.795 102.35Z" fill="#2CC597"/>
<path d="M247.779 213.642C248.851 215.339 250.108 222.758 250.108 222.758C250.108 222.758 250.95 224.455 250.9 225.899C250.851 227.344 251.693 229.984 251.693 229.984L254.468 240.645C254.468 240.645 254.168 243.478 255.211 245.472C256.254 247.466 256.15 246.861 255.657 250.362C255.164 253.864 256.25 257.109 258.032 258.16C259.814 259.211 257.239 261.61 257.239 261.61C257.239 261.61 268.631 264.803 271.009 262.846C273.388 260.89 269.77 251.205 269.77 251.205C269.77 251.205 270.367 243.069 269.97 241.885C269.574 240.7 267.888 230.608 267.888 230.608C267.888 230.608 266.849 226.022 267.246 225.249C267.642 224.477 266.999 222.279 266.999 222.279C266.999 222.279 265.314 219.806 265.464 219.033C265.614 218.261 264.967 216.872 264.967 216.872C264.967 216.872 270.01 208.814 269.563 207.303C269.117 205.792 269.76 203.389 269.76 203.389L271.167 200.886C272.106 199.215 273.241 197.214 273.624 196.59C274.109 195.796 275.281 192.416 275.934 190.467L276.398 189.071C276.398 189.071 277.191 204.214 277.884 205.758C278.577 207.303 279.616 219.497 279.616 219.497C280.001 220.583 280.17 221.739 280.112 222.895C280.012 224.8 281.698 233.092 281.698 233.092C281.698 233.092 282.441 238.963 281.944 240.518C281.448 242.074 281.844 253.448 281.844 253.448C281.844 253.448 279.119 255.676 278.427 257.362C277.734 259.048 278.527 263.675 278.527 263.675C278.527 263.675 286.451 267.796 289.954 266.716C293.458 265.635 292.033 259.401 292.033 259.401C292.033 259.401 294.411 255.282 294.411 253.686C294.411 252.089 295.275 247.213 295.275 247.213C298.296 241.447 297.107 227.44 297.604 226.308C298.1 225.175 296.561 220.949 295.325 219.044C294.09 217.14 294.582 211.989 295.325 210.504C296.068 209.019 294.561 203.853 294.561 203.853C294.561 203.853 295.989 193.861 295.947 192.316C295.904 190.771 297.186 186.189 297.186 186.189C297.186 186.189 298.471 183.82 298.175 183.096C297.879 182.372 299.164 180.523 298.818 179.698C298.471 178.874 299.118 176.356 299.761 174.871C300.089 174.106 300.5 171.997 300.832 170.129C301.135 168.351 301.36 166.787 301.36 166.787L293.186 159.936L272.781 154.366L265.106 151.793L257.625 164.047C257.096 164.94 256.611 165.861 256.171 166.806C255.582 168.079 255.057 169.498 255.15 170.382C255.275 171.497 255.03 172.623 254.457 173.575C254.457 173.575 249.997 188.25 250.097 192.476C250.197 196.702 248.511 205.966 248.511 205.966C248.511 205.966 246.679 211.937 247.779 213.642Z" fill="#CEDDF9"/>
<path d="M277.941 94.2587C278.256 94.125 299.8 84.8715 296.833 83.0334C295.072 81.9417 292.904 77.315 291.419 73.6945C290.383 71.1657 289.68 69.1271 289.68 69.1271C289.68 69.1271 272.388 65.9337 278.577 76.9548C279.553 78.6454 280.288 80.474 280.759 82.3836C282.523 89.8919 278.084 94.1213 277.941 94.2587Z" fill="#FEC2BE"/>
<path opacity="0.1" d="M278.577 76.9548C279.553 78.6454 280.288 80.474 280.759 82.3836C282.953 82.2249 285.063 81.4461 286.863 80.1314C288.662 78.8167 290.082 77.016 290.969 74.9236C291.14 74.5228 291.291 74.1125 291.419 73.6945C290.383 71.1657 289.68 69.1271 289.68 69.1271C289.68 69.1271 272.388 65.9337 278.577 76.9548Z" fill="black"/>
<path d="M267.825 69.4348C267.826 72.614 268.987 75.6746 271.072 77.9993C273.158 80.3241 276.014 81.7401 279.064 81.9618C282.114 82.1835 285.131 81.1945 287.508 79.1941C289.884 77.1937 291.443 74.3308 291.869 71.1827C292.296 68.0345 291.558 64.8353 289.806 62.2301C288.054 59.6249 285.416 57.8076 282.426 57.1445C279.436 56.4814 276.315 57.0219 273.693 58.657C271.071 60.2922 269.142 62.9003 268.297 65.9554C267.984 67.0866 267.825 68.2578 267.825 69.4348Z" fill="#FEC2BE"/>
<path opacity="0.1" d="M256.173 166.8C257.437 167.996 257.923 170.272 257.923 170.272C257.923 170.272 263.869 174.494 263.472 171.817C263.076 169.14 266.543 158.323 266.543 158.323L266.147 173.054C266.147 173.054 285.163 172.125 286.552 170.684C287.942 169.244 296.062 166.481 296.062 166.481C296.062 166.481 298.562 168.557 300.833 170.131C301.137 168.353 301.362 166.789 301.362 166.789L293.188 159.938L272.782 154.368L265.108 151.795L257.626 164.049C257.098 164.94 256.613 165.858 256.173 166.8Z" fill="black"/>
<path d="M255.545 165.639C257.131 166.667 257.723 169.449 257.723 169.449C257.723 169.449 263.666 173.671 263.269 170.993C262.873 168.316 266.34 157.499 266.34 157.499L265.944 172.23C265.944 172.23 284.964 171.309 286.346 169.861C287.728 168.413 295.856 165.639 295.856 165.639C295.856 165.639 302.891 171.509 304.177 170.993C305.462 170.477 301.898 160.488 301.898 160.488L298.238 101.985C298.238 101.985 299.227 84.5775 297.741 83.9574C297.512 83.8609 297.301 83.724 297.116 83.5526C296.138 82.6391 295.845 80.7825 295.759 79.2229C295.663 77.3663 293.285 78.2946 293.285 78.2946L294.67 80.1512L282.396 87.912L282.289 87.9789C281.811 87.7171 281.319 87.4852 280.814 87.2845C279.743 86.85 278.282 86.4416 277.336 86.8463C276.807 87.126 276.358 87.5462 276.036 88.0643C275.336 89.1582 274.774 90.3413 274.365 91.5845L269.919 99.4084C269.919 99.4084 267.64 109.806 267.64 110.225C267.64 110.645 266.948 120.114 266.155 121.142C265.362 122.171 264.569 127.321 264.866 128.866C265.162 130.411 264.369 136.181 264.369 136.181C261.102 138.962 259.42 148.435 259.42 148.435C259.42 148.435 254.256 159.055 253.849 160.28C253.442 161.506 253.959 164.625 255.545 165.639Z" fill="white"/>
<path opacity="0.1" d="M282.396 88.3209C283.599 90.1775 287.077 92.7768 287.077 92.7768L297.116 83.9578C296.137 83.0443 295.844 81.1877 295.759 79.6244C295.662 77.7677 293.284 78.6998 293.284 78.6998L293.573 79.0711C293.711 79.2562 293.81 79.4694 293.863 79.697C293.916 79.9245 293.923 80.1611 293.882 80.3914C293.841 80.6217 293.754 80.8404 293.626 81.0333C293.499 81.2262 293.333 81.3889 293.141 81.5107L282.396 88.3209Z" fill="black"/>
<path d="M282.396 87.9089C283.599 89.7655 287.077 92.3648 287.077 92.3648L297.116 83.5458C296.137 82.6323 295.844 80.7757 295.759 79.2161C295.662 77.3594 293.284 78.2877 293.284 78.2877L293.573 78.6591C293.711 78.8438 293.81 79.0568 293.863 79.2841C293.916 79.5113 293.923 79.7477 293.882 79.9777C293.841 80.2077 293.754 80.4261 293.626 80.6186C293.499 80.8112 293.333 80.9735 293.141 81.095L282.396 87.9089Z" fill="white"/>
<path opacity="0.1" d="M277.757 89.2973C279.053 90.9088 280.892 92.7395 280.807 91.8223C280.721 90.9051 281.903 88.8814 282.656 87.9753C281.479 87.5875 280.211 87.6241 279.057 88.0793C278.527 88.3578 278.078 88.7782 277.757 89.2973Z" fill="black"/>
<path d="M277.558 88.6767C278.854 90.292 280.689 92.119 280.604 91.2055C280.518 90.292 281.579 88.803 282.332 87.8969C281.261 87.4625 279.804 87.054 278.854 87.4625C278.325 87.7399 277.878 88.1591 277.558 88.6767Z" fill="white"/>
<path d="M280.805 97.2473C281.242 97.2473 281.597 96.8783 281.597 96.423C281.597 95.9677 281.242 95.5986 280.805 95.5986C280.367 95.5986 280.012 95.9677 280.012 96.423C280.012 96.8783 280.367 97.2473 280.805 97.2473Z" fill="#FF718D"/>
<path d="M274.795 119.494C275.233 119.494 275.588 119.125 275.588 118.67C275.588 118.215 275.233 117.846 274.795 117.846C274.357 117.846 274.002 118.215 274.002 118.67C274.002 119.125 274.357 119.494 274.795 119.494Z" fill="#FF718D"/>
<path d="M267.993 142.018C268.431 142.018 268.786 141.649 268.786 141.193C268.786 140.738 268.431 140.369 267.993 140.369C267.555 140.369 267.2 140.738 267.2 141.193C267.2 141.649 267.555 142.018 267.993 142.018Z" fill="#FF718D"/>
<path d="M267.795 166.53C268.233 166.53 268.588 166.16 268.588 165.705C268.588 165.25 268.233 164.881 267.795 164.881C267.357 164.881 267.002 165.25 267.002 165.705C267.002 166.16 267.357 166.53 267.795 166.53Z" fill="#FF718D"/>
<path d="M277.303 107.752C277.74 107.752 278.095 107.383 278.095 106.928C278.095 106.473 277.74 106.104 277.303 106.104C276.865 106.104 276.51 106.473 276.51 106.928C276.51 107.383 276.865 107.752 277.303 107.752Z" fill="#FF718D"/>
<path d="M271.957 130.619C272.395 130.619 272.75 130.25 272.75 129.795C272.75 129.34 272.395 128.971 271.957 128.971C271.519 128.971 271.164 129.34 271.164 129.795C271.164 130.25 271.519 130.619 271.957 130.619Z" fill="#FF718D"/>
<path d="M266.736 153.073C267.174 153.073 267.529 152.703 267.529 152.248C267.529 151.793 267.174 151.424 266.736 151.424C266.298 151.424 265.943 151.793 265.943 152.248C265.943 152.703 266.298 153.073 266.736 153.073Z" fill="#FF718D"/>
<path d="M267.929 169.278C268.366 169.278 268.721 168.909 268.721 168.453C268.721 167.998 268.366 167.629 267.929 167.629C267.491 167.629 267.136 167.998 267.136 168.453C267.136 168.909 267.491 169.278 267.929 169.278Z" fill="#FF718D"/>
<path opacity="0.1" d="M297.115 84.0471C297.115 84.0471 296.983 82.8106 298.697 84.942C300.411 87.0735 303.65 88.9227 303.65 88.9227C303.65 88.9227 310.981 94.281 311.378 96.7503C311.774 99.2197 314.149 109.936 312.896 113.505C311.642 117.073 302.057 134.177 302.057 134.177C302.057 134.177 304.557 137.27 303.975 140.909C303.393 144.548 302.654 149.561 302.982 150.66C303.311 151.759 302.586 154.503 303.696 155.465C304.807 156.427 306.007 158.064 302.507 160.27C302.507 160.27 301.847 162.127 302.439 162.539C303.032 162.951 293.658 167.206 289.94 164.941C286.223 162.676 279.584 144.548 279.441 140.497C279.298 136.445 281.487 123.044 282.677 119.895C283.866 116.746 287.433 104.444 288.951 101.7C290.469 98.956 297.115 84.0471 297.115 84.0471Z" fill="black"/>
<path d="M297.51 84.0471C297.51 84.0471 297.378 82.8106 299.096 84.942C300.814 87.0735 304.049 88.9227 304.049 88.9227C304.049 88.9227 311.381 94.281 311.777 96.7503C312.173 99.2197 314.548 109.936 313.295 113.505C312.041 117.073 302.463 134.177 302.463 134.177C302.463 134.177 304.963 137.27 304.381 140.909C303.799 144.548 303.06 149.561 303.388 150.66C303.717 151.759 302.992 154.503 304.103 155.465C305.213 156.427 306.413 158.064 302.913 160.27C302.913 160.27 302.253 162.127 302.846 162.539C303.438 162.951 294.064 167.206 290.347 164.941C286.629 162.676 279.99 144.548 279.847 140.497C279.705 136.445 281.894 123.044 283.083 119.895C284.272 116.746 287.84 104.444 289.357 101.7C290.875 98.956 297.51 84.0471 297.51 84.0471Z" fill="#4C4981"/>
<path opacity="0.1" d="M300.153 95.7363C300.153 95.7363 294.475 102.261 294.671 106.587C294.671 106.587 294.607 99.5796 300.153 95.7363Z" fill="black"/>
<path opacity="0.1" d="M292.297 106.449C292.297 106.653 288.465 121.484 288.665 123.341C288.865 125.198 287.54 130.686 287.54 130.686L285.755 130.207C285.755 130.207 287.14 122.583 287.405 119.769C287.669 116.954 292.297 106.449 292.297 106.449Z" fill="black"/>
<path opacity="0.1" d="M290.775 148.748C290.908 148.952 299.825 159.457 297.314 160.215C294.804 160.972 290.775 148.748 290.775 148.748Z" fill="black"/>
<path opacity="0.1" d="M298.107 146.059C298.304 146.196 301.679 153.611 302.068 151.629C302.457 149.646 299.164 157.054 298.636 151.562L298.107 146.059Z" fill="black"/>
<path opacity="0.1" d="M280.987 86.397C280.987 86.397 277.305 84.0613 272.681 90.036C272.681 90.036 269.313 92.0263 268.324 92.509C267.335 92.9918 266.21 105.762 266.21 105.762C266.21 105.762 264.032 111.254 264.624 114.414C265.217 117.574 262.91 128.42 262.91 128.42C262.91 128.42 259.075 147.915 259.203 148.472C259.332 149.029 263.099 142.36 263.035 139.063C262.971 135.765 266.203 125.468 266.667 124.848C267.131 124.228 270.299 106.586 270.299 106.586C270.299 106.586 272.874 99.1001 274.523 96.6271C276.173 94.154 278.223 89.4864 279.08 88.6621C279.697 88.1069 280.386 87.6444 281.126 87.2882L280.987 86.397Z" fill="black"/>
<path d="M281.037 86.397C281.037 86.397 276.909 84.0613 272.288 90.036C272.288 90.036 268.917 92.0263 267.927 92.509C266.938 92.9918 265.813 105.762 265.813 105.762C265.813 105.762 263.635 111.254 264.228 114.414C264.821 117.574 262.514 128.42 262.514 128.42C262.514 128.42 258.682 147.923 258.814 148.472C258.946 149.022 262.71 142.36 262.646 139.063C262.581 135.765 265.813 125.468 266.278 124.848C266.742 124.228 269.92 106.586 269.92 106.586C269.92 106.586 272.495 99.1001 274.145 96.6271C275.795 94.154 277.844 89.4864 278.701 88.6621C279.559 87.8377 281.144 87.2882 281.144 87.2882L281.037 86.397Z" fill="#4C4981"/>
<path d="M262.911 129.311C262.911 129.311 255.054 123.957 251.254 126.601C247.455 129.244 241.255 132.987 247.358 135.698C253.461 138.409 261.918 137.889 261.918 137.889L262.911 129.311Z" fill="#FEC2BE"/>
<path opacity="0.1" d="M268.374 180.986C269.546 183.586 270.517 196.723 271.167 200.886C272.106 199.215 273.242 197.213 273.624 196.59C274.11 195.795 275.281 192.416 275.935 190.466C275.188 188.58 273.128 183.173 273.128 181.183C273.128 178.762 269.364 175.725 269.364 175.725C269.364 175.725 266.989 177.897 268.374 180.986Z" fill="black"/>
<path opacity="0.1" d="M293.631 221.308C293.631 221.308 284.914 217.446 282.339 220.194C279.765 222.942 293.631 221.308 293.631 221.308Z" fill="black"/>
<path opacity="0.1" d="M288.729 222.854C288.729 222.854 297.546 228.004 294.524 228.865C291.503 229.727 288.729 222.854 288.729 222.854Z" fill="black"/>
<path opacity="0.1" d="M262.382 218.375C262.382 218.375 266.146 218.631 264.71 219.404C263.275 220.176 262.382 218.375 262.382 218.375Z" fill="black"/>
<path opacity="0.1" d="M257.675 219.561C257.725 219.817 268.62 223.474 266.492 225.13C264.363 226.787 257.675 219.561 257.675 219.561Z" fill="black"/>
<path opacity="0.1" d="M292.342 251.079C290.71 250.819 281.597 246.441 285.161 249.594C288.724 252.746 292.342 251.079 292.342 251.079Z" fill="black"/>
<path opacity="0.1" d="M287.839 254.527C287.839 254.527 287.046 257.721 284.025 257.309C281.004 256.896 287.839 254.527 287.839 254.527Z" fill="black"/>
<path opacity="0.1" d="M290.365 261.015C289.818 260.863 283.33 257.773 283.183 259.214C283.037 260.655 289.372 263.18 289.868 262.407C290.153 261.999 290.325 261.517 290.365 261.015Z" fill="black"/>
<path opacity="0.1" d="M269.363 257.309C268.57 257.257 261.149 254.784 259.656 256.997L269.363 257.309Z" fill="black"/>
<path opacity="0.1" d="M262.627 258.75C262.627 258.75 261.338 257.565 260.052 258.182C258.767 258.798 262.627 258.75 262.627 258.75Z" fill="black"/>
<path opacity="0.1" d="M279.072 271.523C278.989 271.961 278.785 272.364 278.486 272.684C278.187 273.003 277.805 273.226 277.387 273.324L279.072 271.523Z" fill="black"/>
<path d="M241.281 276.362C241.777 278.475 248.713 278.679 252.03 278.114C255.348 277.55 262.233 275.485 262.233 275.485C262.233 275.485 269.464 274.765 271.593 273.84C273.721 272.916 272.039 270.543 272.039 270.543C272.039 270.543 272.039 270.461 272.039 270.32C272.089 269.459 272.239 266.336 271.728 265.493C271.136 264.513 271.482 261.319 271.482 261.319C271.482 261.319 261.229 263.38 261.029 262.403C260.829 261.427 259.244 260.034 258.505 259.726C257.765 259.418 257.215 262.3 257.215 262.3C257.215 262.3 252.573 266.421 252.262 267.914C251.952 269.407 248.691 270.179 248.691 270.179C248.691 270.179 243.738 271.62 242.449 272.34C242.075 272.523 241.752 272.804 241.513 273.154C241.274 273.505 241.127 273.914 241.085 274.342C241.031 275.022 241.097 275.707 241.281 276.362Z" fill="#CA8496"/>
<path opacity="0.1" d="M241.28 276.362C241.776 278.475 248.711 278.679 252.029 278.115C255.346 277.55 262.231 275.486 262.231 275.486C262.231 275.486 269.463 274.765 271.591 273.841C273.72 272.916 272.038 270.543 272.038 270.543C272.038 270.543 272.038 270.461 272.038 270.32L261.681 272.708C261.681 272.708 256.578 274.973 253.311 274.973C250.454 274.973 244.061 276.187 241.097 274.346C241.039 275.024 241.101 275.707 241.28 276.362Z" fill="black"/>
<path opacity="0.1" d="M255.296 268.227C255.296 268.227 255.792 271.624 257.774 272.757L255.296 268.227Z" fill="black"/>
<path opacity="0.1" d="M268.296 65.9556C268.484 66.0593 268.682 66.145 268.885 66.2118C269.814 66.4718 270.721 65.8182 271.546 65.2984C272.371 64.7785 273.51 64.3923 274.224 65.0681C275.156 65.9482 274.481 67.8271 275.442 68.6775C276.049 69.2159 277.013 69.0302 277.688 69.4721C278.363 69.914 278.566 70.8832 278.738 71.7186C278.909 72.5541 279.252 73.5085 280.038 73.7535C280.823 73.9986 281.555 73.4602 282.33 73.4899C282.491 73.4899 282.687 73.5159 282.787 73.3971C282.858 73.2883 282.885 73.1549 282.862 73.0257C282.766 72.0278 282.852 71.0197 283.116 70.0551C283.434 69.1045 284.187 68.2467 285.13 68.0945C286.519 67.8717 287.687 69.1379 288.505 70.3224C289.365 71.5768 290.147 72.8865 290.847 74.2437C290.892 74.3316 290.931 74.4221 290.965 74.5148C291.636 72.939 291.988 71.2365 291.999 69.5132C292.011 67.7899 291.681 66.0827 291.031 64.4976C290.38 62.9125 289.423 61.4834 288.219 60.2992C287.015 59.1149 285.59 58.2009 284.032 57.6139C282.473 57.0268 280.816 56.7793 279.162 56.8867C277.508 56.9942 275.892 57.4542 274.417 58.2384C272.941 59.0225 271.636 60.1138 270.583 61.4446C269.53 62.7755 268.751 64.3172 268.296 65.9742V65.9556Z" fill="black"/>
<path d="M288.508 70.1143C287.69 68.9187 286.522 67.6561 285.129 67.8864C284.176 68.0386 283.44 68.8964 283.119 69.8433C282.854 70.8078 282.769 71.8162 282.869 72.8139C282.889 72.9436 282.861 73.0762 282.79 73.1852C282.68 73.3078 282.494 73.2892 282.333 73.2818C281.558 73.2521 280.787 73.7757 280.04 73.5454C279.294 73.3152 278.912 72.346 278.741 71.5105C278.569 70.6751 278.383 69.7207 277.691 69.264C276.998 68.8073 276.052 69.0078 275.444 68.4656C274.484 67.619 275.162 65.7364 274.227 64.8563C273.512 64.1842 272.373 64.5704 271.548 65.0903C270.723 65.6101 269.816 66.2599 268.884 66C268.57 65.9109 268.288 65.7252 267.981 65.6027C266.513 65.0197 264.61 66.0074 263.403 64.9603C262.965 64.5046 262.649 63.9374 262.488 63.3153C262.157 62.4741 261.933 61.5915 261.821 60.69C261.714 59.7787 261.955 58.8602 262.492 58.1316C263.278 57.1698 264.606 56.9284 265.61 56.2192C266.463 55.6102 267.038 54.6856 267.602 53.7759C268.167 52.8661 268.713 51.9192 269.538 51.2768C270.363 50.6344 271.52 50.3151 272.441 50.8015C272.732 51.0123 273.054 51.1716 273.395 51.2731C273.766 51.278 274.131 51.1738 274.448 50.9723C277.884 49.2902 281.883 49.5873 285.651 50.0886C287.158 50.2891 288.686 50.523 290.061 51.2025C291.436 51.8821 292.65 53.0592 293.036 54.5891C293.343 55.7996 293.107 57.1178 293.479 58.3024C293.729 59.1119 294.243 59.7877 294.55 60.6009C295.353 62.7732 294.393 65.1571 293.986 67.4445C293.543 69.9435 293.764 72.6431 292.743 75.0122C292.543 75.4763 292.318 76.2895 291.814 75.9851C291.457 75.7585 291.079 74.4403 290.865 74.0282C290.16 72.6726 289.373 71.3653 288.508 70.1143Z" fill="#9A5E7F"/>
<path opacity="0.1" d="M310.275 110.362L312.061 115.65C312.061 115.65 307.832 131.989 305.85 135.423C303.869 138.858 300.965 143.251 300.965 143.251C300.965 143.251 296.08 145.795 290.398 144.625C284.717 143.455 268.136 140.37 268.136 140.37C268.136 140.37 266.747 140.644 266.022 139.545C265.297 138.446 261.522 137.889 261.522 137.889C261.522 137.889 257.165 131.298 262.515 128.55C262.515 128.55 263.176 130.061 266.015 129.033C268.854 128.004 269.711 129.853 269.711 129.853C269.711 129.853 274.353 130.815 276.91 130.474C279.467 130.132 285.892 129.991 286.552 129.441C286.72 129.289 286.938 129.211 287.161 129.224C287.383 129.237 287.592 129.34 287.741 129.512C287.741 129.512 289.323 128.895 289.852 128.275C290.38 127.655 291.109 128.962 291.109 128.962C291.109 128.962 292.034 128.413 291.77 127.726C291.505 127.039 292.627 124.432 292.627 124.432C292.627 124.432 293.155 122.713 292.827 121.339C292.498 119.965 294.476 115.026 294.476 115.026C294.502 114.193 294.413 113.36 294.212 112.553C293.88 111.32 296.712 108.84 296.712 108.84C296.712 108.84 299.483 94.8297 305.361 99.4305C311.239 104.031 310.275 110.362 310.275 110.362Z" fill="black"/>
<path d="M310.651 110.362L312.436 115.65C312.436 115.65 308.208 131.989 306.226 135.423C304.244 138.858 301.345 143.251 301.345 143.251C301.345 143.251 296.459 145.795 290.778 144.625C285.096 143.455 268.522 140.37 268.522 140.37C268.522 140.37 267.137 140.644 266.412 139.545C265.687 138.446 261.916 137.889 261.916 137.889C261.916 137.889 257.559 131.298 262.909 128.55C262.909 128.55 263.569 130.061 266.408 129.033C269.247 128.004 270.104 129.853 270.104 129.853C270.104 129.853 274.747 130.815 277.304 130.474C279.861 130.132 286.285 129.991 286.946 129.441C287.113 129.289 287.332 129.211 287.554 129.224C287.777 129.237 287.985 129.34 288.135 129.512C288.135 129.512 289.717 128.895 290.245 128.275C290.774 127.655 291.502 128.962 291.502 128.962C291.502 128.962 292.427 128.413 292.163 127.726C291.899 127.039 293.02 124.432 293.02 124.432C293.02 124.432 293.549 122.713 293.217 121.339C292.885 119.965 294.87 115.026 294.87 115.026C294.896 114.193 294.807 113.36 294.606 112.553C294.274 111.32 297.106 108.84 297.106 108.84C297.106 108.84 299.877 94.8297 305.755 99.4305C311.633 104.031 310.651 110.362 310.651 110.362Z" fill="#4C4981"/>
<path opacity="0.1" d="M267.73 132.473C267.795 132.955 269.248 134.875 268.719 135.22C268.191 135.566 267.334 135.358 268.127 136.457C268.919 137.556 268.841 139.201 268.323 138.997C267.805 138.793 266.938 136.32 266.938 135.358C266.938 134.396 267.73 132.473 267.73 132.473Z" fill="black"/>
<path opacity="0.1" d="M287.344 131.373C287.344 131.373 287.74 136.182 290.99 137.556C294.24 138.93 287.344 131.373 287.344 131.373Z" fill="black"/>
<path opacity="0.1" d="M294.078 129.721C294.275 129.791 298.699 132.264 296.721 133.705C294.742 135.146 294.078 129.721 294.078 129.721Z" fill="black"/>
<path opacity="0.1" d="M294.342 126.293C294.342 126.293 300.813 127.667 298.627 128.833C296.442 129.999 294.342 126.293 294.342 126.293Z" fill="black"/>
<g opacity="0.1">
<path opacity="0.1" d="M283.132 68.6666C283.454 67.7197 284.204 66.862 285.143 66.7097C286.536 66.4869 287.703 67.7532 288.521 68.9377C289.381 70.1921 290.163 71.5018 290.864 72.8589C291.078 73.2711 291.442 74.5856 291.814 74.8121C292.317 75.1203 292.528 74.3071 292.742 73.843C293.764 71.4813 293.542 68.7743 293.985 66.2753C294.246 64.8159 294.728 63.3046 294.835 61.8564C294.989 63.6537 294.31 65.5437 293.985 67.3707C293.542 69.8697 293.764 72.5693 292.742 74.9421C292.542 75.4063 292.317 76.2195 291.814 75.9113C291.457 75.6848 291.078 74.3703 290.864 73.9581C290.163 72.6009 289.381 71.2912 288.521 70.0368C287.703 68.8449 286.536 67.5786 285.143 67.8089C284.189 67.9611 283.454 68.8189 283.132 69.7658C282.973 70.2647 282.884 70.785 282.868 71.3105C282.797 70.4198 282.887 69.5232 283.132 68.6666Z" fill="black"/>
<path opacity="0.1" d="M262.488 62.1385C262.648 62.762 262.963 63.3307 263.402 63.7872C264.609 64.8343 266.513 63.8466 267.98 64.4296C268.288 64.5484 268.57 64.7378 268.884 64.8269C269.816 65.0831 270.727 64.4333 271.548 63.9134C272.369 63.3936 273.516 63.0111 274.226 63.6832C275.162 64.5633 274.483 66.4422 275.444 67.2925C276.051 67.831 277.015 67.6639 277.69 68.0909C278.365 68.5179 278.569 69.4982 278.74 70.3189C278.912 71.1395 279.251 72.1087 280.04 72.3537C280.829 72.5988 281.558 72.0641 282.333 72.0938C282.493 72.0938 282.69 72.1198 282.79 71.9973C282.813 71.966 282.831 71.9309 282.843 71.8933C282.843 72.1718 282.843 72.4466 282.868 72.7214C282.888 72.851 282.86 72.9835 282.79 73.0927C282.679 73.2115 282.493 73.193 282.333 73.1855C281.558 73.1595 280.786 73.6794 280.04 73.4492C279.294 73.2189 278.912 72.2535 278.74 71.4143C278.569 70.5751 278.383 69.6245 277.69 69.1863C276.997 68.7481 276.051 68.9264 275.444 68.3879C274.483 67.5376 275.162 65.655 274.226 64.7786C273.512 64.1028 272.373 64.489 271.548 65.0088C270.723 65.5287 269.816 66.1785 268.884 65.9223C268.57 65.8332 268.288 65.6438 267.98 65.525C266.513 64.942 264.609 65.9297 263.402 64.8826C262.964 64.4256 262.649 63.8571 262.488 63.2339C262.157 62.3938 261.933 61.5126 261.82 60.6123C261.795 60.3054 261.802 59.9967 261.842 59.6914C261.966 60.5302 262.183 61.3513 262.488 62.1385Z" fill="black"/>
</g>
<path d="M35.6319 269.8C35.6319 269.8 20.5332 268.853 22.3116 279.852C22.3116 279.852 21.9545 281.797 23.6544 282.681C23.6544 282.681 23.6794 281.864 25.2042 282.139C25.7456 282.233 26.2957 282.262 26.8434 282.224C27.5835 282.171 28.2867 281.869 28.8468 281.363C28.8468 281.363 33.0928 279.54 34.7427 272.325C34.7427 272.325 35.964 270.754 35.914 270.349L33.3678 271.463C33.3678 271.463 34.2392 273.376 33.5535 274.965C33.5535 274.965 33.4714 271.534 32.9821 271.623C32.8821 271.623 31.6573 272.284 31.6573 272.284C31.6573 272.284 33.1571 275.626 32.0144 278.036C32.0144 278.036 32.4429 273.933 31.1787 272.525L29.3932 273.613C29.3932 273.613 31.143 277.052 29.9574 279.859C29.9574 279.859 30.2609 275.555 29.0146 273.881L27.3898 275.199C27.3898 275.199 29.0361 278.585 28.0326 280.914C28.0326 280.914 27.9004 275.904 27.0398 275.526C27.0398 275.526 25.6113 276.829 25.4006 277.382C25.4006 277.382 26.5256 279.844 25.8256 281.144C25.8256 281.144 25.3971 277.802 25.0471 277.802C25.0471 277.802 23.6187 280.011 23.483 281.515C23.483 281.515 23.5437 279.261 24.7043 277.575C23.8873 277.737 23.1337 278.143 22.5366 278.745C22.5366 278.745 22.7545 277.182 25.0543 277.044C25.0543 277.044 26.2256 275.366 26.5363 275.266C26.5363 275.266 24.2508 275.065 22.8652 275.704C22.8652 275.704 24.0865 274.219 26.9577 274.902L28.5611 273.539C28.5611 273.539 25.5506 273.112 24.2757 273.584C24.2757 273.584 25.7435 272.28 28.9932 273.231L30.7395 272.143C30.7395 272.143 28.1754 271.567 26.647 271.771C26.647 271.771 28.2575 270.869 31.2537 271.849L32.5 271.266C32.5 271.266 30.6216 270.895 30.0717 270.821C29.5217 270.747 29.4896 270.602 29.4896 270.602C30.6805 270.395 31.9032 270.537 33.0214 271.01C33.0214 271.01 35.6748 269.971 35.6319 269.8Z" fill="#2CC597"/>
<path d="M64.5774 240.81C64.5774 240.81 56.0639 240.276 57.0781 246.481C57.0269 246.795 57.0725 247.119 57.2084 247.405C57.3444 247.691 57.5637 247.925 57.8351 248.074C57.8351 248.074 57.8351 247.613 58.7101 247.769C59.0157 247.821 59.3259 247.837 59.635 247.817C60.0515 247.785 60.447 247.614 60.7635 247.331C60.7635 247.331 63.149 246.317 64.0917 242.233C64.0917 242.233 64.781 241.345 64.7524 241.119L63.3239 241.754C63.3239 241.754 63.8132 242.834 63.4275 243.729C63.4275 243.729 63.3811 241.794 63.1061 241.839C63.049 241.839 62.3598 242.21 62.3598 242.21C62.3598 242.21 63.2025 244.067 62.5669 245.452C62.5669 245.452 62.8061 243.139 62.0955 242.344L61.0777 242.975C61.0777 242.975 62.0633 244.914 61.3955 246.495C61.3955 246.495 61.567 244.067 60.8635 243.124L59.9492 243.866C59.9492 243.866 60.8742 245.779 60.3064 247.09C60.3064 247.09 60.2314 244.264 59.7457 244.052C59.3988 244.358 59.0883 244.706 58.8208 245.088C58.8208 245.088 59.4564 246.477 59.0636 247.208C59.0636 247.208 58.8208 245.326 58.6243 245.318C58.6243 245.318 57.8244 246.562 57.7423 247.42C57.7793 246.628 58.0157 245.859 58.4279 245.192C57.9679 245.285 57.5436 245.514 57.2066 245.853C57.2066 245.853 57.3316 244.969 58.6351 244.895C58.6351 244.895 59.2922 243.948 59.4707 243.892C59.4707 243.892 58.1815 243.777 57.3995 244.137C57.3995 244.137 58.0887 243.306 59.7064 243.684L60.6099 242.916C60.6099 242.916 58.9136 242.674 58.1958 242.942C58.1958 242.942 59.0243 242.199 60.8563 242.741L61.8384 242.132C61.0815 241.958 60.3058 241.888 59.5314 241.924C59.5314 241.924 60.4421 241.412 62.1276 241.965L62.8419 241.638C62.8419 241.638 61.7705 241.419 61.4741 241.386C61.1777 241.353 61.1456 241.263 61.1456 241.263C61.8175 241.147 62.5072 241.227 63.1383 241.494C63.1383 241.494 64.6167 240.907 64.5774 240.81Z" fill="#2CC597"/>
<path opacity="0.1" d="M58.7305 249.671C62.0578 249.671 64.755 249.197 64.755 248.613C64.755 248.029 62.0578 247.555 58.7305 247.555C55.4033 247.555 52.7061 248.029 52.7061 248.613C52.7061 249.197 55.4033 249.671 58.7305 249.671Z" fill="#2CC597"/>
<path d="M14.3515 246.196C14.3515 246.196 4.07376 245.55 5.29866 253.039C5.23647 253.419 5.2914 253.81 5.4556 254.155C5.6198 254.501 5.88486 254.783 6.21286 254.963C6.21286 254.963 6.21286 254.406 7.26634 254.591C7.63546 254.656 8.01072 254.675 8.38411 254.647C8.88836 254.612 9.36763 254.406 9.74828 254.06C9.74828 254.06 12.6373 252.82 13.7622 247.911C13.7622 247.911 14.5907 246.842 14.5586 246.567L12.798 247.339C12.798 247.339 13.3872 248.639 12.923 249.72C12.923 249.72 12.8659 247.388 12.5337 247.443C12.4659 247.443 11.6338 247.893 11.6338 247.893C11.6338 247.893 12.6516 250.158 11.8838 251.806C11.8838 251.806 12.1731 249.014 11.3124 248.056L10.0947 248.799C10.0947 248.799 11.2839 251.138 10.4768 253.047C10.4768 253.047 10.6839 250.117 9.83756 248.962L8.73051 249.861C8.73051 249.861 9.84827 252.167 9.16618 253.752C9.16618 253.752 9.07691 250.34 8.49124 250.083C8.49124 250.083 7.52347 250.971 7.37348 251.335C7.37348 251.335 8.14127 253.01 7.66631 253.893C7.66631 253.893 7.37348 251.621 7.13421 251.61C7.13421 251.61 6.17001 253.117 6.06288 254.15C6.11068 253.196 6.39753 252.271 6.89495 251.469C6.33784 251.577 5.82369 251.853 5.41651 252.263C5.41651 252.263 5.56649 251.197 7.13421 251.105C7.13421 251.105 7.93058 249.965 8.14127 249.894C8.14127 249.894 6.58784 249.757 5.64149 250.191C5.64149 250.191 6.47356 249.189 8.42696 249.645L9.51973 248.717C9.51973 248.717 7.4699 248.427 6.60212 248.75C6.60212 248.75 7.60203 247.859 9.81612 248.509L11.0053 247.766C11.0053 247.766 9.25903 247.373 8.21983 247.514C8.21983 247.514 9.31617 246.897 11.3553 247.566L12.2052 247.169C12.2052 247.169 10.9267 246.909 10.5518 246.868C10.1768 246.827 10.1554 246.719 10.1554 246.719C10.9655 246.576 11.7978 246.672 12.5587 246.994C12.5587 246.994 14.3836 246.318 14.3515 246.196Z" fill="#2CC597"/>
<path opacity="0.1" d="M7.27437 256.893C11.2919 256.893 14.5487 256.321 14.5487 255.615C14.5487 254.91 11.2919 254.338 7.27437 254.338C3.25685 254.338 0 254.91 0 255.615C0 256.321 3.25685 256.893 7.27437 256.893Z" fill="#2CC597"/>
<defs>
<linearGradient id="paint0_linear" x1="254.747" y1="99.9392" x2="254.747" y2="88.0826" gradientUnits="userSpaceOnUse">
<stop stop-color="#808080" stop-opacity="0.25"/>
<stop offset="0.54" stop-color="#808080" stop-opacity="0.12"/>
<stop offset="1" stop-color="#808080" stop-opacity="0.1"/>
</linearGradient>
<linearGradient id="paint1_linear" x1="106411" y1="190580" x2="106411" y2="40621.3" gradientUnits="userSpaceOnUse">
<stop stop-color="#808080" stop-opacity="0.25"/>
<stop offset="0.54" stop-color="#808080" stop-opacity="0.12"/>
<stop offset="1" stop-color="#808080" stop-opacity="0.1"/>
</linearGradient>
</defs>
</svg>
