<svg width="378" height="304" viewBox="0 0 378 304" fill="none" xmlns="http://www.w3.org/2000/svg">
<g clip-path="url(#clip0)">
<path d="M214.799 268.942C212.191 265.291 208.662 262.62 204.225 261.62C200.356 260.748 196.377 260.897 192.444 260.927L142.712 261.31C138.453 261.343 134.37 265.033 134.567 269.455C134.764 273.84 138.147 277.636 142.712 277.6C157.28 277.488 171.848 277.376 186.416 277.263C189.851 277.237 193.287 277.175 196.722 277.186C197.493 277.189 198.261 277.229 199.032 277.238C199.218 277.24 199.353 277.239 199.448 277.235C199.472 277.242 199.492 277.249 199.523 277.257C199.925 277.367 200.338 277.444 200.742 277.548C200.6 277.553 201.004 277.805 201.207 277.89C201.235 277.945 201.294 278.042 201.393 278.193C201.532 278.453 201.942 279.241 201.959 279.216C202.574 280.773 203.083 282.371 203.479 283.998C204.426 287.585 204.634 288.335 204.77 291.701C204.942 295.952 208.393 300.048 212.915 299.846C217.18 299.655 221.245 296.261 221.06 291.701C220.749 284.017 219.4 275.385 214.799 268.942Z" fill="#E6E6E6"/>
<path d="M145.636 287.322C144.702 281.661 143.786 275.997 142.834 270.34C141.867 264.6 139.894 259.345 135.428 255.578C134.234 254.572 132.997 253.632 131.754 252.695C131.318 252.366 130.881 252.036 130.45 251.7C130.424 251.68 130.407 251.667 130.385 251.65C130.337 251.609 130.28 251.56 130.204 251.495C128.342 249.92 126.544 248.274 124.83 246.525C123.309 244.972 121.854 243.352 120.465 241.666C120.118 241.245 119.776 240.82 119.438 240.392C119.38 240.318 119.066 239.913 118.86 239.649C118.668 239.385 118.317 238.908 118.259 238.824C117.864 238.266 117.476 237.702 117.095 237.133C114.501 233.246 112.254 229.138 110.382 224.857C110.196 224.432 110.015 224.005 109.838 223.575C109.79 223.444 109.729 223.276 109.648 223.052C109.27 222.014 108.894 220.978 108.549 219.928C107.816 217.698 107.185 215.435 106.658 213.139C106.397 212.005 106.163 210.866 105.954 209.721C105.846 209.132 105.746 208.541 105.652 207.95C105.636 207.852 105.545 207.214 105.491 206.853C105.451 206.491 105.377 205.85 105.367 205.751C105.308 205.155 105.255 204.558 105.208 203.961C105.104 202.617 105.034 201.27 104.997 199.922C104.934 197.526 104.977 195.129 105.126 192.733C105.21 191.387 105.331 190.044 105.479 188.704C105.488 188.621 105.495 188.556 105.501 188.497C105.51 188.437 105.521 188.369 105.533 188.284C105.643 187.544 105.758 186.804 105.887 186.067C106.376 183.267 107.011 180.495 107.791 177.762C108.16 176.47 108.561 175.188 108.993 173.916C109.186 173.352 109.385 172.789 109.59 172.229C109.577 172.265 110.192 170.694 110.2 170.641C112.641 164.874 116.634 159.616 116.639 153.065C116.643 148.629 112.89 144.38 108.494 144.585C106.302 144.668 104.228 145.598 102.709 147.18C101.189 148.762 100.343 150.872 100.349 153.065C100.349 153.165 100.349 153.249 100.348 153.332C100.307 153.47 100.273 153.585 100.242 153.687C99.7663 154.722 99.1832 155.705 98.6607 156.713C97.2299 159.474 96.0087 162.326 94.8487 165.219C92.9496 169.931 91.4959 174.81 90.5067 179.792C88.3567 190.71 88.1898 201.925 90.0141 212.902C93.1721 232.151 103.587 250.577 118.065 262.963C119.321 264.038 120.609 265.076 121.908 266.094C122.445 266.515 122.988 266.929 123.532 267.339C123.79 267.533 124.857 268.375 124.388 267.967C125.397 268.828 125.821 269.262 126.081 269.896C126.118 270.043 126.169 270.241 126.239 270.513C126.422 271.228 126.595 271.942 126.739 272.667C127.999 279.006 128.875 285.451 129.928 291.83C130.652 296.214 136.048 299.066 139.947 297.753C144.486 296.223 146.411 292.018 145.636 287.322Z" fill="#E6E6E6"/>
<path d="M215.623 303.762C212.202 303.771 208.918 302.423 206.49 300.013C204.062 297.603 202.689 294.329 202.673 290.908V281.617C192.945 282.706 159.635 282.454 150.086 280.92V290.537C150.061 293.955 148.685 297.224 146.259 299.632C143.833 302.04 140.554 303.391 137.136 303.391C133.718 303.391 130.438 302.04 128.012 299.632C125.587 297.224 124.211 293.955 124.185 290.537V271.655C111.253 264.47 100.472 253.965 92.9548 241.223C85.4379 228.481 81.4573 213.964 81.4238 199.17C81.4238 173.803 92.92 150.14 112.965 134.247C125.998 123.879 141.832 117.644 158.436 116.342C160.689 116.165 162.956 116.076 165.175 116.076C172.99 116.076 208.251 117.283 217.098 119.828L237.271 99.811C237.568 99.5128 237.947 99.3096 238.359 99.2274C238.772 99.1452 239.199 99.1877 239.588 99.3495C239.979 99.5051 240.314 99.7754 240.549 100.125C240.783 100.474 240.907 100.887 240.903 101.308V104.49L244.831 100.6C245.127 100.301 245.506 100.098 245.918 100.016C246.33 99.9332 246.758 99.9757 247.146 100.138C247.537 100.293 247.873 100.564 248.108 100.913C248.343 101.263 248.467 101.675 248.463 102.097V137.662C258.585 146.788 266.301 158.27 270.925 171.09C275.549 183.91 276.939 197.674 274.972 211.16C273.005 224.646 267.741 237.438 259.648 248.404C251.554 259.369 240.881 268.169 228.574 274.023V290.908C228.557 294.329 227.184 297.603 224.756 300.013C222.328 302.423 219.044 303.771 215.623 303.762ZM203.691 280.463V290.908C203.716 294.056 204.985 297.066 207.22 299.283C209.455 301.5 212.475 302.744 215.623 302.744C218.771 302.744 221.791 301.5 224.026 299.283C226.261 297.066 227.53 294.056 227.556 290.908V273.38L227.846 273.242C241.656 266.689 253.379 256.437 261.715 243.624C272.336 227.274 276.753 207.661 274.167 188.336C271.58 169.011 262.161 151.25 247.614 138.268L247.445 138.116V102.097C247.448 101.878 247.385 101.663 247.263 101.481C247.141 101.3 246.966 101.16 246.762 101.081C246.559 100.994 246.335 100.971 246.118 101.014C245.902 101.057 245.704 101.164 245.549 101.322L239.885 106.932V101.308C239.889 101.089 239.825 100.874 239.703 100.692C239.581 100.511 239.406 100.371 239.202 100.292C238.999 100.205 238.774 100.182 238.557 100.225C238.341 100.269 238.142 100.376 237.988 100.534L217.383 120.98L217.09 120.888C208.866 118.314 173.05 117.094 165.175 117.094C162.983 117.094 160.742 117.182 158.516 117.357C142.114 118.643 126.472 124.803 113.597 135.045C93.7976 150.743 82.4419 174.116 82.4419 199.17C82.4757 213.833 86.435 228.22 93.9085 240.835C101.382 253.451 112.097 263.835 124.941 270.91L125.203 271.055V290.537C125.23 293.684 126.498 296.694 128.733 298.91C130.968 301.127 133.988 302.37 137.136 302.37C140.283 302.37 143.303 301.127 145.538 298.91C147.773 296.694 149.042 293.684 149.068 290.537V279.701L149.671 279.814C158.252 281.429 194.383 281.683 203.115 280.538L203.691 280.463Z" fill="#3F3D56"/>
<path d="M146.609 60.6385L90.2355 77.5801C88.4425 78.1211 86.9375 79.3518 86.0513 81.0017C85.165 82.6516 84.9699 84.5859 85.5089 86.3796C86.0479 88.1732 87.2769 89.6796 88.9258 90.5677C90.5748 91.4558 92.5088 91.6531 94.3031 91.1161L143.636 76.2871L144.67 75.9765C144.879 70.651 146.324 65.447 148.89 60.7759C148.568 60.631 148.224 60.5415 147.872 60.5112C147.447 60.47 147.018 60.5133 146.609 60.6385Z" fill="#2CC597"/>
<path d="M93.3284 94.7277C92.58 94.7258 91.8512 94.4889 91.2448 94.0503C90.6385 93.6117 90.1853 92.9937 89.9493 92.2835L86.4241 81.6462C86.2769 81.2019 86.2186 80.7331 86.2526 80.2663C86.2866 79.7995 86.4122 79.3441 86.6222 78.9259C86.8323 78.5077 87.1226 78.1349 87.4767 77.829C87.8308 77.523 88.2418 77.2898 88.686 77.1426L134.569 61.9369C135.013 61.7896 135.482 61.7313 135.948 61.7652C136.415 61.7992 136.87 61.9247 137.289 62.1347C137.707 62.3447 138.08 62.635 138.386 62.989C138.692 63.343 138.925 63.7539 139.072 64.1981L142.597 74.8354C142.89 75.7104 142.832 76.6651 142.433 77.4974C142.035 78.3297 141.328 78.9742 140.463 79.2945C140.42 79.3104 140.377 79.3254 140.334 79.3395L94.4528 94.5447C94.0902 94.6656 93.7106 94.7274 93.3284 94.7277Z" fill="#2F2E41"/>
<path d="M179.256 41.7471C169.995 41.7507 161.099 45.3574 154.451 51.804C147.803 58.2506 143.925 67.0311 143.636 76.287C143.626 76.6484 143.621 77.015 143.621 77.3815C143.621 84.4293 145.711 91.3189 149.627 97.1789C153.542 103.039 159.107 107.606 165.619 110.303C172.13 113.001 179.295 113.706 186.207 112.331C193.12 110.956 199.469 107.562 204.453 102.579C209.436 97.5953 212.83 91.2458 214.205 84.3334C215.58 77.421 214.875 70.2561 212.177 63.7448C209.48 57.2335 204.913 51.6681 199.053 47.7526C193.193 43.837 186.303 41.7471 179.256 41.7471ZM179.256 111.998C170.078 111.988 161.278 108.338 154.789 101.848C148.299 95.3586 144.649 86.5594 144.639 77.3815C144.639 76.9081 144.649 76.4397 144.67 75.9765C144.945 69.1957 147.208 62.6455 151.177 57.1403C155.145 51.6352 160.645 47.4181 166.991 45.0133C173.337 42.6086 180.25 42.1222 186.87 43.6149C193.49 45.1075 199.526 48.5132 204.226 53.4084C208.926 58.3037 212.083 64.4726 213.306 71.1481C214.528 77.8235 213.761 84.711 211.1 90.9541C208.44 97.1971 204.002 102.52 198.341 106.262C192.679 110.003 186.042 111.998 179.256 111.998Z" fill="#3F3D56"/>
<path d="M209.29 77.3813C209.29 85.347 206.126 92.9865 200.493 98.6191C194.861 104.252 187.221 107.416 179.255 107.416C171.29 107.416 163.65 104.252 158.018 98.6191C152.385 92.9865 149.221 85.347 149.221 77.3813C149.221 76.4294 149.266 75.4927 149.353 74.5662C150.077 66.8785 153.734 59.7648 159.564 54.7023C165.395 49.6399 172.951 47.0175 180.665 47.3798C188.378 47.7421 195.655 51.0611 200.986 56.6478C206.316 62.2345 209.29 69.6596 209.29 77.3813Z" fill="#E6E6E6"/>
<path d="M188.199 79.3767C187.471 78.4195 186.514 77.6614 185.415 77.1725C184.06 76.6013 182.66 76.1417 181.23 75.798V67.6225C183.428 67.9538 185.49 68.8937 187.181 70.3358L188.841 66.7978C187.886 65.9474 186.791 65.2704 185.603 64.7972C184.287 64.2642 182.905 63.9098 181.495 63.7434V59.5996H177.652V63.7841C176.168 63.9508 174.736 64.4315 173.452 65.1942C172.292 65.8807 171.316 66.8379 170.606 67.9839C169.929 69.1023 169.578 70.3877 169.593 71.695C169.527 73.1116 169.937 74.5096 170.759 75.6657C171.515 76.6666 172.514 77.4585 173.66 77.9666C175.037 78.5546 176.461 79.0263 177.916 79.3767V87.2112C175.323 87.0156 172.851 86.0295 170.835 84.3859L169.176 87.929C170.303 88.8609 171.585 89.588 172.963 90.0772C174.473 90.6177 176.051 90.9466 177.652 91.0546V95.1628H181.495V90.9783C183.63 90.745 185.632 89.8271 187.202 88.3617C187.893 87.6987 188.439 86.8994 188.805 86.0143C189.172 85.1293 189.35 84.1778 189.33 83.2202C189.393 81.8487 188.995 80.4954 188.199 79.3767ZM177.916 74.9326C176.98 74.6487 176.11 74.1815 175.356 73.5581C175.057 73.2923 174.821 72.9637 174.664 72.5958C174.507 72.2279 174.434 71.8298 174.45 71.4303C174.422 70.5236 174.755 69.6429 175.376 68.9817C176.065 68.2879 176.953 67.8269 177.916 67.6632V74.9326ZM183.643 85.7655C182.994 86.4315 182.148 86.8721 181.23 87.0229V80.2829C182.108 80.5183 182.928 80.9287 183.643 81.4893C183.914 81.7208 184.13 82.0103 184.273 82.3364C184.417 82.6625 184.485 83.0168 184.473 83.3729C184.508 84.2466 184.212 85.1013 183.643 85.7655Z" fill="#2CC597"/>
<path d="M94.964 137.84C94.1771 137.839 93.4125 137.578 92.789 137.098C92.1654 136.618 91.7176 135.945 91.5151 135.185L89.5959 127.921C89.3556 127.008 89.4874 126.037 89.9622 125.22C90.4369 124.404 91.216 123.81 92.1285 123.568L152.677 107.568C153.591 107.329 154.561 107.463 155.377 107.938C156.193 108.414 156.787 109.193 157.03 110.106L158.656 116.26L158.351 116.284C142.822 117.491 127.964 123.121 115.535 132.508L115.447 132.551L95.8681 137.723C95.573 137.801 95.2692 137.84 94.964 137.84Z" fill="#2F2E41"/>
<path d="M84.9365 173.722C77.8339 172.673 71.041 170.104 65.0209 166.192C62.0384 164.255 59.2774 161.997 56.7873 159.458C54.3296 156.951 51.9785 154.102 50.7611 150.763C49.5899 147.675 49.6503 144.254 50.9298 141.209C52.1918 138.182 54.6026 135.779 57.6335 134.527C60.6826 133.311 64.3665 133.181 67.3339 134.512C68.748 135.132 69.9716 136.117 70.8792 137.366C71.3011 137.942 71.6135 138.59 71.8007 139.279C71.9745 139.903 71.9904 140.561 71.8467 141.193C71.6727 141.824 71.3659 142.41 70.9467 142.912C70.5276 143.415 70.0059 143.822 69.4165 144.106C68.1195 144.772 66.7142 145.2 65.2666 145.372C63.8106 145.57 61.7191 145.751 60.5486 144.582C60.3076 144.351 60.1181 144.072 59.9924 143.762C59.9044 143.526 59.8743 143.271 59.9046 143.02C59.8876 143.131 59.9753 142.78 59.9703 142.794C59.9517 142.846 59.8716 142.972 59.9855 142.778C60.0211 142.714 60.0608 142.652 60.1042 142.593C60.0655 142.643 59.9805 142.726 60.1323 142.583C60.2577 142.446 60.4188 142.346 60.5977 142.296C60.6682 142.275 60.7396 142.259 60.8103 142.24C60.9899 142.191 60.6313 142.242 60.815 142.237C60.8859 142.234 60.9577 142.236 61.0283 142.233C61.2085 142.225 60.8505 142.184 61.0232 142.227C61.0903 142.244 61.1567 142.26 61.2228 142.281C61.3664 142.326 61.1211 142.176 61.2184 142.289C61.3324 142.421 61.0987 142.16 61.2283 142.288C61.2928 142.351 61.3536 142.418 61.4104 142.489C61.6351 142.711 61.9383 142.835 62.2541 142.835C62.57 142.835 62.8731 142.711 63.0979 142.489C63.315 142.261 63.4362 141.959 63.4362 141.645C63.4362 141.331 63.315 141.028 63.0979 140.801C61.9213 139.343 59.5971 139.703 58.4068 140.936C56.8887 142.508 57.4899 145 58.9665 146.372C60.6381 147.925 63.0056 148.032 65.1559 147.772C66.9731 147.598 68.744 147.097 70.3835 146.295C72.0126 145.494 73.2867 144.118 73.9592 142.432C74.2628 141.532 74.3718 140.578 74.2791 139.633C74.1864 138.688 73.894 137.773 73.4214 136.95C71.5229 133.381 67.5919 131.551 63.7063 131.234C61.7057 131.077 59.694 131.319 57.7875 131.945C55.881 132.57 54.1175 133.568 52.5991 134.88C49.6725 137.515 47.8704 141.174 47.5654 145.1C47.2262 149.17 48.8055 153.123 51.1081 156.408C53.5186 159.746 56.3951 162.721 59.6499 165.242C66.0128 170.322 73.4766 173.842 81.4439 175.52C82.3915 175.716 83.3443 175.884 84.3021 176.023C84.6069 176.097 84.9284 176.052 85.2011 175.897C85.4738 175.742 85.6772 175.489 85.77 175.19C85.8518 174.885 85.8102 174.56 85.6543 174.285C85.4983 174.01 85.2405 173.808 84.9366 173.722L84.9365 173.722Z" fill="#3F3D56"/>
<path d="M198.654 121.861C188.247 121.714 177.874 121.978 167.533 122.653C163.999 122.884 160.94 124.133 160.94 126.233C160.94 127.988 163.974 130.045 167.533 129.812C177.869 129.138 188.242 128.873 198.654 129.02C207.142 129.14 207.137 121.98 198.654 121.861Z" fill="#CCCCCC"/>
<path d="M183.273 128.665C182.148 128.665 155.729 128.623 155.729 124.974C155.729 121.325 182.148 121.283 183.273 121.283C184.397 121.283 210.816 121.325 210.816 124.974C210.816 128.623 184.397 128.665 183.273 128.665ZM156.763 124.974C157.485 126.081 167.196 127.647 183.273 127.647C199.349 127.647 209.06 126.081 209.783 124.974C209.06 123.868 199.349 122.301 183.273 122.301C167.196 122.301 157.485 123.868 156.763 124.974V124.974Z" fill="#3F3D56"/>
<path d="M267.092 224.598C272.94 224.436 280.218 224.233 285.826 220.137C287.495 218.867 288.867 217.248 289.845 215.392C290.823 213.536 291.383 211.489 291.487 209.394C291.601 206.159 290.432 203.335 288.196 201.446C285.267 198.971 280.99 198.39 276.382 199.745L281.157 164.849L277.651 164.369L272.038 205.393L274.965 204.05C278.359 202.493 283.017 201.701 285.912 204.147C286.623 204.787 287.176 205.582 287.53 206.47C287.884 207.359 288.028 208.317 287.951 209.27C287.865 210.829 287.445 212.351 286.718 213.734C285.991 215.116 284.975 216.325 283.739 217.28C279.375 220.467 273.573 220.878 266.993 221.062L267.092 224.598Z" fill="#3F3D56"/>
<path d="M257.4 167.859H238.345V171.397H257.4V167.859Z" fill="#3F3D56"/>
<path d="M103.587 154.113C102.739 154.11 101.92 153.806 101.276 153.254C100.632 152.702 100.205 151.938 100.073 151.101L98.9096 143.678C98.7644 142.744 98.9953 141.791 99.552 141.028C100.109 140.264 100.945 139.753 101.879 139.605L163.746 129.912C164.679 129.766 165.632 129.997 166.396 130.554C167.159 131.111 167.671 131.947 167.818 132.88L168.981 140.304C169.126 141.237 168.895 142.19 168.339 142.954C167.782 143.717 166.945 144.229 166.012 144.376L104.145 154.069C103.96 154.098 103.774 154.113 103.587 154.113Z" fill="#2F2E41"/>
<path d="M77.9827 67.1227C92.3213 67.1227 103.945 55.499 103.945 41.1605C103.945 26.8219 92.3213 15.1982 77.9827 15.1982C63.6442 15.1982 52.0205 26.8219 52.0205 41.1605C52.0205 55.499 63.6442 67.1227 77.9827 67.1227Z" fill="#2CC597"/>
<path d="M92.6825 47.878C93.5122 47.5878 94.2702 47.1232 94.9055 46.5157C95.3258 46.0825 95.6463 45.5626 95.8446 44.9925C96.0429 44.4225 96.1141 43.8159 96.0533 43.2154C96.018 42.7874 95.8842 42.3733 95.6624 42.0056C95.4405 41.6379 95.1367 41.3264 94.7745 41.0956C93.8349 40.5178 92.5934 40.5396 91.3399 41.1207L91.1952 30.9863L90.1772 31.0008L90.3473 42.9148L91.1222 42.4066C92.0209 41.8182 93.3121 41.3915 94.2411 41.9629C94.4708 42.1142 94.6626 42.3164 94.8015 42.5539C94.9403 42.7913 95.0226 43.0576 95.0418 43.332C95.0846 43.7794 95.0306 44.2307 94.8833 44.6554C94.7361 45.08 94.4991 45.4679 94.1885 45.7927C93.0848 46.8877 91.4513 47.2546 89.5869 47.5902L89.7673 48.5921C90.7584 48.4416 91.7341 48.2026 92.6825 47.878Z" fill="#2F2E41"/>
<path d="M101.679 30.2746L96.2578 31.0957L96.4102 32.1022L101.832 31.2812L101.679 30.2746Z" fill="#2F2E41"/>
<path d="M84.5652 32.8655L79.1436 33.6865L79.296 34.693L84.7176 33.872L84.5652 32.8655Z" fill="#2F2E41"/>
<path d="M95.1402 153.658C94.2065 153.657 93.2956 153.37 92.5286 152.838C91.7616 152.305 91.1749 151.552 90.8466 150.678L72.9463 102.74C70.7585 96.8607 70.9921 90.3536 73.596 84.6464C76.1998 78.9391 80.9613 74.4978 86.8357 72.2969L101.391 66.862C101.953 66.6504 102.553 66.5522 103.154 66.5731C103.754 66.5939 104.345 66.7334 104.892 66.9835C105.438 67.2272 105.929 67.5772 106.338 68.013C106.746 68.4488 107.064 68.9617 107.272 69.5216L140.431 132.128C140.646 132.693 140.748 133.294 140.729 133.898C140.711 134.502 140.574 135.097 140.325 135.647C140.077 136.198 139.721 136.694 139.28 137.107C138.839 137.52 138.321 137.841 137.755 138.053L96.7414 153.367C96.2294 153.559 95.6871 153.658 95.1402 153.658Z" fill="#2F2E41"/>
<path d="M96.9746 68.5109L129.875 112.507L107.613 68.9727C107.429 68.4648 107.147 67.998 106.782 67.5991C106.418 67.2002 105.979 66.877 105.49 66.6479C105 66.4188 104.471 66.2883 103.931 66.264C103.391 66.2396 102.852 66.3218 102.344 66.5058L96.9746 68.5109Z" fill="#E6E6E6"/>
<path d="M149.068 101.924L90.3243 98.1398C89.3983 98.0802 88.4932 97.8388 87.6606 97.4293C86.8279 97.0199 86.0841 96.4505 85.4715 95.7536C84.859 95.0567 84.3897 94.2459 84.0904 93.3676C83.7912 92.4894 83.6679 91.5607 83.7275 90.6348C83.7871 89.7089 84.0286 88.8037 84.438 87.9711C84.8475 87.1385 85.4169 86.3946 86.1138 85.7821C86.8107 85.1695 87.6214 84.7002 88.4997 84.401C89.378 84.1017 90.3066 83.9784 91.2326 84.038L149.976 87.8217C150.41 87.8496 150.834 87.9626 151.224 88.1544C151.614 88.3461 151.962 88.6127 152.249 88.9391C152.536 89.2655 152.755 89.6452 152.896 90.0565C153.036 90.4678 153.093 90.9027 153.066 91.3363L152.583 98.8344C152.526 99.7102 152.124 100.528 151.465 101.107C150.806 101.686 149.944 101.98 149.068 101.924Z" fill="#2CC597"/>
<path d="M133.371 104.349C133.294 104.349 133.216 104.347 133.138 104.342H133.138L84.9009 101.235C84.4339 101.205 83.9774 101.083 83.5574 100.877C83.1375 100.67 82.7623 100.383 82.4533 100.032C82.1444 99.6801 81.9077 99.2712 81.7568 98.8282C81.6059 98.3853 81.5437 97.9169 81.5738 97.4499L82.3987 84.6428C82.4287 84.1758 82.5505 83.7193 82.757 83.2994C82.9636 82.8794 83.2508 82.5043 83.6023 82.1954C83.9538 81.8864 84.3627 81.6498 84.8057 81.4989C85.2487 81.348 85.717 81.2859 86.184 81.316L134.421 84.4228C135.364 84.4846 136.243 84.9178 136.867 85.6273C137.491 86.3369 137.807 87.2649 137.748 88.2077L136.923 101.015C136.878 101.701 136.635 102.36 136.225 102.912C135.814 103.463 135.253 103.885 134.609 104.126C134.213 104.274 133.794 104.35 133.371 104.349Z" fill="#2F2E41"/>
<path d="M77.6854 23.8957C81.1008 20.9582 85.791 23.586 89.7078 23.126C93.4551 22.6859 96.4141 19.3245 97.17 15.7535C98.0518 11.5874 95.8894 7.41345 92.7021 4.81591C89.2112 1.97097 84.5815 1.15426 80.1942 1.68059C75.1658 2.28383 70.5672 4.62774 66.4408 7.46281C62.4579 10.1146 58.7951 13.2183 55.5257 16.7121C52.598 19.9455 50.1175 23.7996 49.3254 28.1506C48.6056 32.1048 49.1552 36.4865 51.4928 39.8362C52.7323 41.5531 54.3934 42.9216 56.3157 43.8096C58.3201 44.7938 60.4582 45.4975 62.4001 46.6103C65.3363 48.2929 68.19 51.7818 67.2702 55.4125C67.073 56.2056 66.6839 56.9381 66.137 57.5455C65.48 58.2748 64.2949 57.311 64.9537 56.5797C66.1107 55.2953 66.0651 53.5824 65.4485 52.049C64.7153 50.321 63.417 48.8933 61.7662 47.9997C59.7335 46.8376 57.4893 46.1202 55.406 45.0616C53.4118 44.0946 51.6809 42.6602 50.3604 40.8803C47.8669 37.4151 47.1211 32.9054 47.6866 28.7335C48.2985 24.2189 50.6181 20.1165 53.5258 16.6787C56.6903 12.9373 60.5773 9.77039 64.5483 6.92533C68.8092 3.87255 73.5167 1.29164 78.7258 0.358167C83.2413 -0.45101 88.1357 0.0471703 92.0843 2.50791C95.77 4.80485 98.5964 8.75603 98.8775 13.1711C98.9784 15.1799 98.5422 17.1794 97.6138 18.9637C96.6854 20.748 95.2983 22.2527 93.5953 23.3229C91.8478 24.3686 89.8162 24.8393 87.7869 24.6685C85.6175 24.5296 83.4459 23.8653 81.2627 24.0497C80.2747 24.1097 79.3332 24.4901 78.5809 25.1333C77.8347 25.7751 76.9453 24.5322 77.6854 23.8957V23.8957Z" fill="#2F2E41"/>
<path d="M376.445 304H0.606334C0.445881 304 0.292163 303.936 0.17887 303.822C0.0655771 303.709 0.00195312 303.555 0.00195312 303.394C0.00195312 303.234 0.0655771 303.08 0.17887 302.966C0.292163 302.853 0.445881 302.789 0.606334 302.788H376.445C376.605 302.788 376.76 302.852 376.873 302.966C376.987 303.079 377.051 303.233 377.051 303.394C377.051 303.555 376.987 303.709 376.873 303.823C376.76 303.936 376.605 304 376.445 304Z" fill="#3F3D56"/>
</g>
<defs>
<clipPath id="clip0">
<rect width="377.051" height="304" fill="white"/>
</clipPath>
</defs>
</svg>
