<svg width="400" height="337" viewBox="0 0 400 337" fill="none" xmlns="http://www.w3.org/2000/svg">
<g clip-path="url(#clip0)">
<path d="M200.791 4.71484L75.2607 77.5294C75.2607 77.5294 75.2607 227.709 200.791 309.626C326.322 227.709 326.322 77.5294 326.322 77.5294L200.791 4.71484Z" fill="#3F3D56"/>
<path opacity="0.04" d="M201.541 4.71484L199.396 5.95954V308.205C200.108 308.68 200.82 309.155 201.541 309.626C327.072 227.709 327.072 77.5294 327.072 77.5294L201.541 4.71484Z" fill="#2CC597"/>
<g opacity="0.7">
<path opacity="0.7" d="M170.4 152.265L194.065 172.712L223.401 132.822L235.233 142.117L194.065 191.301L160.54 155.983L170.4 152.265Z" fill="url(#paint0_linear)"/>
</g>
<path d="M175.986 153.493L195.182 170.079L222.377 132.383L231.975 139.922L195.182 185.158L167.987 156.509L175.986 153.493Z" fill="#3AD29F"/>
<path opacity="0.5" d="M8.97869 163.623C8.59389 163.465 8.28416 163.18 8.10843 162.82C7.93271 162.461 7.90326 162.053 8.02571 161.675C8.04553 161.617 8.05801 161.557 8.0629 161.496C8.0741 161.323 8.02576 161.151 7.92503 161.005C7.82431 160.86 7.67657 160.749 7.50369 160.689C7.33081 160.629 7.14198 160.622 6.96518 160.671C6.78838 160.72 6.63301 160.822 6.52208 160.96C6.48394 161.01 6.45208 161.063 6.42718 161.119C6.25959 161.482 5.95636 161.774 5.57521 161.939C5.19406 162.105 4.7616 162.133 4.36015 162.017C4.2986 161.999 4.23494 161.987 4.17047 161.982C3.98654 161.972 3.80389 162.017 3.64959 162.112C3.49528 162.207 3.37752 162.346 3.31374 162.509C3.24997 162.672 3.24357 162.85 3.2955 163.017C3.34744 163.184 3.45493 163.33 3.60207 163.435C3.65428 163.471 3.7108 163.501 3.77047 163.524C4.15527 163.682 4.46501 163.968 4.64074 164.327C4.81646 164.686 4.8459 165.094 4.72345 165.473C4.70363 165.531 4.69115 165.591 4.68626 165.651C4.67506 165.825 4.72341 165.997 4.82413 166.142C4.92485 166.288 5.07259 166.399 5.24547 166.459C5.41835 166.519 5.60718 166.525 5.78398 166.476C5.96078 166.427 6.11615 166.326 6.22708 166.187C6.26523 166.138 6.29709 166.085 6.32199 166.028C6.48958 165.666 6.7928 165.374 7.17395 165.208C7.5551 165.042 7.98756 165.015 8.38901 165.13C8.45056 165.149 8.51422 165.161 8.57869 165.165C8.76262 165.176 8.94527 165.13 9.09958 165.035C9.25388 164.94 9.37164 164.801 9.43541 164.638C9.49918 164.475 9.50558 164.297 9.45365 164.13C9.40172 163.964 9.29422 163.817 9.14709 163.713C9.09488 163.677 9.03836 163.647 8.97869 163.623Z" fill="#4D8AF0"/>
<path opacity="0.5" d="M348.337 114.067C349.879 114.067 351.129 112.889 351.129 111.435C351.129 109.981 349.879 108.803 348.337 108.803C346.794 108.803 345.544 109.981 345.544 111.435C345.544 112.889 346.794 114.067 348.337 114.067Z" fill="#F55F44"/>
<path opacity="0.5" d="M56.5046 302.278C58.0469 302.278 59.2972 301.1 59.2972 299.646C59.2972 298.192 58.0469 297.014 56.5046 297.014C54.9622 297.014 53.7119 298.192 53.7119 299.646C53.7119 301.1 54.9622 302.278 56.5046 302.278Z" fill="#F55F44"/>
<path opacity="0.5" d="M395.811 215.411C397.354 215.411 398.604 214.233 398.604 212.779C398.604 211.325 397.354 210.146 395.811 210.146C394.269 210.146 393.019 211.325 393.019 212.779C393.019 214.233 394.269 215.411 395.811 215.411Z" fill="#F55F44"/>
<path opacity="0.5" d="M327.806 33.762C327.421 33.604 327.111 33.3182 326.936 32.9589C326.76 32.5997 326.73 32.192 326.853 31.8136C326.873 31.7556 326.885 31.6956 326.89 31.6348C326.901 31.4615 326.853 31.2893 326.752 31.1439C326.651 30.9984 326.504 30.8874 326.331 30.8273C326.158 30.7672 325.969 30.7612 325.792 30.8101C325.616 30.8591 325.46 30.9604 325.349 31.0991C325.311 31.1483 325.279 31.2016 325.254 31.2578C325.087 31.6205 324.784 31.9125 324.402 32.0781C324.021 32.2437 323.589 32.2715 323.187 32.1561C323.126 32.1374 323.062 32.1256 322.998 32.121C322.814 32.1105 322.631 32.156 322.477 32.251C322.322 32.3459 322.205 32.4852 322.141 32.6481C322.077 32.8111 322.071 32.9891 322.123 33.1557C322.175 33.3224 322.282 33.4688 322.429 33.5734C322.481 33.6093 322.538 33.6394 322.598 33.6628C322.982 33.8208 323.292 34.1066 323.468 34.4659C323.644 34.8252 323.673 35.2328 323.551 35.6112C323.531 35.6692 323.518 35.7292 323.513 35.79C323.502 35.9634 323.551 36.1355 323.651 36.281C323.752 36.4264 323.9 36.5374 324.073 36.5975C324.246 36.6576 324.434 36.6637 324.611 36.6147C324.788 36.5658 324.943 36.4644 325.054 36.3258C325.092 36.2765 325.124 36.2233 325.149 36.167C325.317 35.8043 325.62 35.5124 326.001 35.3467C326.382 35.1811 326.815 35.1533 327.216 35.2688C327.278 35.2874 327.341 35.2992 327.406 35.3038C327.59 35.3144 327.772 35.2688 327.927 35.1739C328.081 35.0789 328.199 34.9397 328.263 34.7767C328.326 34.6137 328.333 34.4358 328.281 34.2691C328.229 34.1025 328.121 33.956 327.974 33.8514C327.922 33.8155 327.866 33.7855 327.806 33.762Z" fill="#4D8AF0"/>
<path opacity="0.5" d="M374.35 309.278C373.965 309.12 373.655 308.834 373.48 308.475C373.304 308.115 373.274 307.708 373.397 307.329C373.417 307.271 373.429 307.211 373.434 307.15C373.445 306.977 373.397 306.805 373.296 306.659C373.195 306.514 373.048 306.403 372.875 306.343C372.702 306.283 372.513 306.277 372.336 306.326C372.159 306.375 372.004 306.476 371.893 306.615C371.855 306.664 371.823 306.717 371.798 306.773C371.631 307.136 371.327 307.428 370.946 307.594C370.565 307.759 370.133 307.787 369.731 307.672C369.67 307.653 369.606 307.641 369.542 307.637C369.358 307.626 369.175 307.672 369.021 307.767C368.866 307.862 368.749 308.001 368.685 308.164C368.621 308.327 368.615 308.505 368.667 308.671C368.719 308.838 368.826 308.984 368.973 309.089C369.025 309.125 369.082 309.155 369.142 309.178C369.526 309.336 369.836 309.622 370.012 309.981C370.188 310.341 370.217 310.748 370.095 311.127C370.075 311.185 370.062 311.245 370.057 311.306C370.046 311.479 370.095 311.651 370.195 311.797C370.296 311.942 370.444 312.053 370.617 312.113C370.789 312.173 370.978 312.179 371.155 312.13C371.332 312.081 371.487 311.98 371.598 311.841C371.636 311.792 371.668 311.739 371.693 311.683C371.861 311.32 372.164 311.028 372.545 310.862C372.926 310.697 373.359 310.669 373.76 310.784C373.822 310.803 373.885 310.815 373.95 310.819C374.134 310.83 374.316 310.784 374.471 310.689C374.625 310.594 374.743 310.455 374.807 310.292C374.87 310.129 374.877 309.951 374.825 309.785C374.773 309.618 374.665 309.472 374.518 309.367C374.466 309.331 374.409 309.301 374.35 309.278Z" fill="#4D8AF0"/>
<path opacity="0.5" d="M5.72088 80.2659C5.33608 80.1079 5.02634 79.8221 4.85062 79.4628C4.67489 79.1036 4.64545 78.6959 4.7679 78.3175C4.78771 78.2595 4.80019 78.1995 4.80509 78.1387C4.81628 77.9654 4.76794 77.7932 4.66722 77.6478C4.5665 77.5023 4.41876 77.3913 4.24588 77.3312C4.07299 77.2711 3.88417 77.2651 3.70737 77.314C3.53057 77.363 3.3752 77.4643 3.26427 77.603C3.22612 77.6522 3.19427 77.7055 3.16936 77.7617C3.00178 78.1244 2.69854 78.4164 2.31739 78.582C1.93624 78.7477 1.50378 78.7754 1.10234 78.66C1.04079 78.6413 0.977124 78.6295 0.912653 78.6249C0.728724 78.6144 0.546079 78.6599 0.391773 78.7549C0.237467 78.8498 0.119704 78.9891 0.0559299 79.152C-0.00784423 79.315 -0.0142398 79.493 0.0376918 79.6596C0.0896233 79.8263 0.197122 79.9727 0.34426 80.0773C0.396463 80.1133 0.452987 80.1433 0.512657 80.1667C0.897455 80.3247 1.2072 80.6105 1.38292 80.9698C1.55865 81.3291 1.58808 81.7367 1.46563 82.1151C1.44582 82.1731 1.43334 82.2331 1.42845 82.2939C1.41725 82.4673 1.46559 82.6394 1.56631 82.7849C1.66703 82.9303 1.81478 83.0413 1.98766 83.1014C2.16054 83.1616 2.34937 83.1676 2.52617 83.1186C2.70297 83.0697 2.85834 82.9684 2.96927 82.8297C3.00742 82.7805 3.03927 82.7272 3.06418 82.6709C3.23176 82.3082 3.53499 82.0163 3.91614 81.8506C4.29729 81.685 4.72975 81.6572 5.1312 81.7727C5.19274 81.7913 5.25641 81.8031 5.32088 81.8077C5.50481 81.8183 5.68746 81.7727 5.84176 81.6778C5.99607 81.5828 6.11382 81.4436 6.1776 81.2806C6.24137 81.1177 6.24777 80.9397 6.19584 80.773C6.1439 80.6064 6.03641 80.4599 5.88927 80.3554C5.83707 80.3194 5.78055 80.2894 5.72088 80.2659Z" fill="#4D8AF0"/>
<path opacity="0.5" d="M36.9557 127.229C38.4981 127.229 39.7484 126.051 39.7484 124.597C39.7484 123.143 38.4981 121.965 36.9557 121.965C35.4134 121.965 34.1631 123.143 34.1631 124.597C34.1631 126.051 35.4134 127.229 36.9557 127.229Z" fill="#47E6B1"/>
<path opacity="0.5" d="M397.208 148.288C398.75 148.288 400 147.11 400 145.656C400 144.202 398.75 143.023 397.208 143.023C395.665 143.023 394.415 144.202 394.415 145.656C394.415 147.11 395.665 148.288 397.208 148.288Z" fill="#47E6B1"/>
<g opacity="0.5">
<path opacity="0.5" d="M272.934 0H271.538V7.45824H272.934V0Z" fill="#47E6B1"/>
<path opacity="0.5" d="M276.192 4.38647V3.07031L268.28 3.07031V4.38647H276.192Z" fill="#47E6B1"/>
</g>
<g opacity="0.5">
<path opacity="0.5" d="M278.055 292.188H276.658V299.646H278.055V292.188Z" fill="#47E6B1"/>
<path opacity="0.5" d="M281.312 296.574V295.258H273.4V296.574H281.312Z" fill="#47E6B1"/>
</g>
<g opacity="0.5">
<path opacity="0.5" d="M13.6834 307.98H12.2871V315.439H13.6834V307.98Z" fill="#47E6B1"/>
<path opacity="0.5" d="M16.9414 312.367V311.051H9.0289V312.367H16.9414Z" fill="#47E6B1"/>
</g>
<g opacity="0.5">
<path opacity="0.5" d="M331.58 173.732H330.184V181.191H331.58V173.732Z" fill="#47E6B1"/>
<path opacity="0.5" d="M334.838 178.119V176.803H326.925V178.119H334.838Z" fill="#47E6B1"/>
</g>
<path opacity="0.5" d="M370.307 53.9702L373.306 56.5613L377.555 50.6719L379.054 51.8498L373.306 58.9172L369.058 54.4414L370.307 53.9702Z" fill="#47E6B1"/>
<path d="M284.696 104.973L274.352 105.352L274.867 117.888L285.212 117.51L284.696 104.973Z" fill="#2CC597"/>
<path d="M238.032 148.879C238.032 148.879 223.706 142.428 223.935 148C224.165 153.572 238.376 157.237 238.376 157.237L238.032 148.879Z" fill="#FFB9B9"/>
<path d="M245.891 196.025C245.891 196.025 239.132 211.618 236.635 222.87C234.138 234.122 230.335 249.606 235.226 260.588C240.118 271.57 254.027 303.846 254.17 307.328C254.313 310.81 252.979 314.347 255.934 314.239C258.89 314.131 274.974 309.358 275.627 307.241C276.28 305.125 270.139 299.769 270.139 299.769L254.976 254.983L270.797 225.806L282.208 269.334L284.443 323.66C284.443 323.66 295.412 320.469 297.004 323.201C297.004 323.201 301.918 316.743 302.543 313.93C303.167 311.117 300.222 257.515 300.222 257.515C300.222 257.515 310.29 196.461 302.162 196.758C294.034 197.056 262.198 178.688 245.891 196.025Z" fill="#2CC597"/>
<path d="M255.82 311.452C255.82 311.452 248.323 327.072 247.612 327.796C246.902 328.519 242.016 335.673 245.711 335.538C249.405 335.403 258.129 331.597 264.55 325.782C270.971 319.967 279.437 309.892 278.669 309.222C277.902 308.553 272.643 306.652 272.643 306.652L255.82 311.452Z" fill="#575A89"/>
<path d="M285.777 320.122C285.777 320.122 285.325 327.114 283.961 329.954C282.598 332.794 282.77 336.973 286.465 336.838C290.159 336.703 299.708 334.959 299.708 334.959C299.708 334.959 300.275 330.753 299.507 330.084C298.74 329.414 295.469 321.861 296.861 319.717C298.252 317.574 285.777 320.122 285.777 320.122Z" fill="#575A89"/>
<path d="M291.243 93.2246C291.243 93.2246 299.119 104.795 302.189 107.473C305.259 110.151 296.622 116.047 296.622 116.047L281.162 118.007C281.162 118.007 281.356 104.747 280.56 103.381C279.764 102.015 291.243 93.2246 291.243 93.2246Z" fill="#FFB9B9"/>
<path d="M277.805 108.363C277.805 108.363 280.99 113.827 283.946 113.719C286.901 113.611 302.189 107.472 302.842 105.355C303.495 103.239 307.906 120.516 307.906 120.516L270.498 182.569L261.373 176.625L265.794 140.191L269.425 120.528L277.805 108.363Z" fill="#2CC597"/>
<path d="M304.222 163.898C302.729 166.841 301.797 169.909 301.927 173.05C301.932 173.189 301.938 173.329 301.951 173.468C302.305 179.914 304.825 187.369 305.728 192.791C306.384 196.68 306.198 199.519 303.783 200.186C297.929 201.795 304.637 202.945 281.988 210.051C259.34 217.156 255.388 211.023 255.33 209.63C255.273 208.237 258.538 197.655 257.77 196.985C257.003 196.316 247.03 205.748 244.017 204.463C241.004 203.178 243.674 196.105 243.674 196.105C243.674 196.105 250.461 181.209 250.318 177.727C250.174 174.244 260.599 157.82 260.599 157.82L267.689 114.314C267.689 114.314 270.416 108.634 274.082 107.802C277.748 106.971 280.789 108.952 280.789 108.952L274.655 121.732L268.183 144.29L269.265 152.62C269.265 152.62 276.792 137.697 281.735 131.936C286.678 126.175 297.217 112.537 297.217 112.537C297.217 112.537 299.678 104.711 297.82 102.373C295.962 100.027 305.568 99.6759 309.664 109.292C311.835 114.388 315.359 121.988 317.567 129.064C319.534 135.333 320.463 141.193 318.514 144.542C315.535 149.66 308.042 156.386 304.222 163.898Z" fill="#575A89"/>
<path opacity="0.1" d="M318.515 144.544C315.536 149.661 308.042 156.387 304.222 163.899C303.224 160.511 302.007 157.005 302.007 157.005C302.007 157.005 297.338 133.459 311.148 127.374C313.436 127.166 315.725 127.769 317.567 129.065C319.534 135.334 320.464 141.194 318.515 144.544Z" fill="black"/>
<path d="M263.693 143.059L251.985 146.277L235.729 146.871L234.057 160.185L260.772 161.999C260.772 161.999 267.445 144.317 263.693 143.059Z" fill="#575A89"/>
<path d="M282.784 187.826C282.784 187.826 267.122 190.276 270.697 194.718C274.271 199.161 288.147 194.49 288.147 194.49L282.784 187.826Z" fill="#FFB9B9"/>
<path opacity="0.1" d="M301.951 173.469C302.305 179.915 304.825 187.37 305.729 192.792C300.739 197.243 295.994 201.169 294.206 201.235C290.512 201.37 284.572 200.889 282.384 201.667C280.195 202.444 278.912 189.238 278.912 189.238C278.912 189.238 280.218 185.005 286.043 182.7C289.975 181.14 297.512 176.909 301.951 173.469Z" fill="black"/>
<path d="M310.977 123.195C310.977 123.195 323.481 121.343 322.806 140.899C322.13 160.455 324.124 172.937 319.095 176.609C314.066 180.28 297.73 196.921 294.035 197.056C290.341 197.191 284.401 196.71 282.213 197.488C280.025 198.265 278.741 185.059 278.741 185.059C278.741 185.059 280.047 180.826 285.872 178.521C291.698 176.215 305.422 168.041 305.307 165.255C305.193 162.469 301.836 152.826 301.836 152.826C301.836 152.826 297.167 129.28 310.977 123.195Z" fill="#575A89"/>
<path d="M280.216 110.358C289.201 110.358 296.485 103.493 296.485 95.0237C296.485 86.5548 289.201 79.6895 280.216 79.6895C271.232 79.6895 263.948 86.5548 263.948 95.0237C263.948 103.493 271.232 110.358 280.216 110.358Z" fill="#FFB9B9"/>
<path d="M269.263 73.0441C268.87 73.3628 268.4 73.5851 267.895 73.6912C267.641 73.7338 267.38 73.6801 267.168 73.5417C266.956 73.4033 266.811 73.1916 266.764 72.9526C266.392 73.6802 265.972 74.4556 265.212 74.8289C264.452 75.2023 263.277 74.8892 263.167 74.0881C263.056 74.6964 262.771 75.2644 262.342 75.7306C261.87 76.1544 261.015 76.2613 260.604 75.7854C260.936 77.4997 260.731 79.2626 260.835 81.0026C260.94 82.7425 261.432 84.5872 262.827 85.7313C264.861 87.3999 267.919 86.9881 270.595 86.672C270.999 86.5919 271.419 86.6136 271.812 86.7347C272.814 87.137 272.768 88.4515 272.782 89.4778C272.864 91.2785 273.62 92.9938 274.916 94.3188C276.212 95.6439 277.965 96.4931 279.862 96.7156C280.924 96.8701 282.008 96.6208 282.875 96.0226C283.634 95.4157 284.022 94.4265 284.893 93.9706C286.309 93.2289 288.026 94.3105 289.061 95.4848C290.096 96.6592 291.117 98.1037 292.72 98.3187C294.841 98.603 296.457 96.5655 297.249 94.6895C298.343 92.0601 298.867 89.2509 298.79 86.4276C298.713 83.6043 298.038 80.8241 296.803 78.2508C292.375 69.1512 277.246 67.712 269.263 73.0441Z" fill="#2F2E41"/>
</g>
<defs>
<linearGradient id="paint0_linear" x1="160.54" y1="162.062" x2="235.233" y2="162.062" gradientUnits="userSpaceOnUse">
<stop stop-color="#808080" stop-opacity="0.25"/>
<stop offset="0.53514" stop-color="#808080" stop-opacity="0.12"/>
<stop offset="1" stop-color="#808080" stop-opacity="0.1"/>
</linearGradient>
<clipPath id="clip0">
<rect width="400" height="336.842" fill="white"/>
</clipPath>
</defs>
</svg>
