<svg width="560" height="406" viewBox="0 0 560 406" fill="none" xmlns="http://www.w3.org/2000/svg">
<g clip-path="url(#clip0)">
<path d="M239.728 379.696C344.578 379.696 429.576 294.698 429.576 189.848C429.576 84.9978 344.578 0 239.728 0C134.878 0 49.8799 84.9978 49.8799 189.848C49.8799 294.698 134.878 379.696 239.728 379.696Z" fill="#F2F2F2"/>
<path d="M75.3284 406C116.931 406 150.657 400.604 150.657 393.947C150.657 387.291 116.931 381.895 75.3284 381.895C33.7257 381.895 0 387.291 0 393.947C0 400.604 33.7257 406 75.3284 406Z" fill="#F2F2F2"/>
<path d="M442.809 393.749C507.181 393.749 559.365 385.4 559.365 375.1C559.365 364.801 507.181 356.451 442.809 356.451C378.438 356.451 326.254 364.801 326.254 375.1C326.254 385.4 378.438 393.749 442.809 393.749Z" fill="#F2F2F2"/>
<path d="M416.912 195.846C416.912 195.846 417.904 199.153 412.281 202.13C406.658 205.107 405.004 216.354 411.62 219.661C418.235 222.969 420.22 227.269 416.912 230.246C413.604 233.223 407.65 241.161 415.589 243.146C423.527 245.131 424.52 249.1 422.204 250.754C419.889 252.408 427.497 247.777 427.497 247.777C427.497 247.777 428.82 255.715 435.766 253.731C442.712 251.746 462.228 214.038 452.305 208.746C442.381 203.453 416.912 195.846 416.912 195.846Z" fill="#2F2E41"/>
<path d="M428.901 227.785C428.901 227.785 432.332 239.794 426.327 240.652C422.601 241.233 419.07 242.704 416.034 244.941L427.185 259.523H447.772L460.638 246.656C460.638 246.656 443.483 233.79 446.914 226.07C450.345 218.35 428.901 227.785 428.901 227.785Z" fill="#FFB9B9"/>
<path opacity="0.1" d="M428.901 227.785C428.901 227.785 432.332 239.794 426.327 240.652C422.601 241.233 419.07 242.704 416.034 244.941L427.185 259.523H447.772L460.638 246.656C460.638 246.656 443.483 233.79 446.914 226.07C450.345 218.35 428.901 227.785 428.901 227.785Z" fill="black"/>
<path d="M434.048 377.039L453.777 383.901L467.501 384.758L466.643 372.75L438.336 364.378L434.048 377.039Z" fill="#FFB9B9"/>
<path d="M459.352 374.465C459.352 374.465 459.352 386.474 461.067 386.474C462.783 386.474 485.943 383.901 492.805 386.474C499.667 389.047 509.96 379.612 504.814 374.465C499.667 369.319 491.272 361.599 486.034 363.314C480.796 365.03 459.352 369.319 459.352 369.319V374.465Z" fill="#575A89"/>
<path d="M396.306 363.314C396.306 363.314 386.012 383.901 392.875 385.617C399.737 387.332 407.457 384.759 408.314 383.901C409.172 383.043 421.181 379.612 422.897 381.328C424.612 383.043 424.612 374.466 424.612 374.466L396.306 363.314Z" fill="#575A89"/>
<path d="M404.884 335.008C404.884 335.008 388.586 357.31 400.595 363.314C412.604 369.319 470.075 369.319 474.364 363.314C478.653 357.31 480.368 338.439 474.364 336.723C468.359 335.008 404.884 335.008 404.884 335.008Z" fill="#2F2E41"/>
<path opacity="0.2" d="M404.884 335.008C404.884 335.008 388.586 357.31 400.595 363.314C412.604 369.319 470.075 369.319 474.364 363.314C478.653 357.31 480.368 338.439 474.364 336.723C468.359 335.008 404.884 335.008 404.884 335.008Z" fill="black"/>
<path d="M435.763 233.79C446.659 233.79 455.492 224.957 455.492 214.061C455.492 203.165 446.659 194.332 435.763 194.332C424.867 194.332 416.034 203.165 416.034 214.061C416.034 224.957 424.867 233.79 435.763 233.79Z" fill="#FFB9B9"/>
<path d="M404.884 244.941L422.039 241.51C422.039 241.51 426.328 255.234 440.053 252.661C453.777 250.087 457.208 241.51 457.208 241.51C457.208 241.51 467.501 245.799 468.359 245.799C469.217 245.799 480.368 250.087 480.368 252.661C480.368 255.234 467.501 280.967 467.501 280.967L469.217 327.287L405.742 325.572L410.03 280.11L404.884 244.941Z" fill="#2CC597"/>
<path d="M395.449 267.243C395.449 267.243 390.302 312.705 393.733 316.136C397.164 319.567 410.889 329.003 410.889 329.003V318.71L404.026 305.843L410.889 275.821L395.449 267.243Z" fill="#FFB9B9"/>
<path d="M484.228 265.956C484.228 265.956 481.226 312.705 481.226 314.42C481.226 316.136 473.506 322.14 470.932 322.14C468.359 322.14 466.644 317.851 466.644 317.851L472.648 310.989L468.359 275.82L484.228 265.956Z" fill="#FFB9B9"/>
<path d="M476.078 331.577C476.078 331.577 514.678 310.132 515.536 331.577C516.394 353.021 495.807 361.599 495.807 361.599C495.807 361.599 442.625 377.546 440.481 371.717C438.336 365.888 434.047 356.452 437.478 355.594C440.909 354.737 445.198 353.021 446.914 354.737C448.629 356.452 470.074 341.87 470.074 341.87L476.078 331.577Z" fill="#2F2E41"/>
<path opacity="0.2" d="M494.092 329.003C494.092 329.003 486.372 332.434 483.799 335.007C481.225 337.581 470.074 341.87 470.074 341.87" stroke="black" stroke-width="2" stroke-miterlimit="10"/>
<path d="M410.03 246.656L404.883 244.94C404.883 244.94 386.012 264.669 392.017 269.816C398.021 274.963 401.452 276.678 403.168 278.394C404.883 280.109 413.461 280.967 413.461 280.967L410.03 246.656Z" fill="#2CC597"/>
<path d="M472.648 250.945L480.367 252.661C480.367 252.661 486.372 265.527 488.087 267.243C489.803 268.959 485.514 268.101 482.941 271.532C480.367 274.963 477.794 280.967 472.648 280.967C467.501 280.967 460.639 272.39 460.639 272.39L472.648 250.945Z" fill="#2CC597"/>
<path d="M406.599 339.297C406.599 339.297 374.003 316.137 362.852 333.292C351.701 350.448 410.888 373.608 419.465 377.039C428.043 380.47 435.763 383.901 435.763 383.901C435.763 383.901 443.483 365.03 443.483 361.599C443.483 358.168 437.479 358.168 435.763 358.168C434.048 358.168 426.328 356.452 424.612 353.879C422.897 351.306 406.599 339.297 406.599 339.297Z" fill="#2F2E41"/>
<path opacity="0.2" d="M388.585 333.292C388.585 333.292 397.163 340.154 404.883 341.87C412.603 343.585 415.176 347.874 415.176 347.874" stroke="black" stroke-width="2" stroke-miterlimit="10"/>
<path d="M400.682 301.04L401.368 337.358C401.39 338.558 401.886 339.7 402.747 340.535C403.608 341.371 404.765 341.832 405.965 341.819L473.551 341.059C474.703 341.046 475.807 340.597 476.64 339.802C477.473 339.006 477.973 337.925 478.039 336.775L480.091 301.216C480.126 300.598 480.035 299.979 479.823 299.397C479.611 298.815 479.283 298.283 478.858 297.833C478.433 297.383 477.92 297.024 477.352 296.779C476.783 296.534 476.171 296.407 475.552 296.407H405.228C404.624 296.407 404.026 296.528 403.469 296.762C402.911 296.995 402.406 297.338 401.983 297.769C401.56 298.201 401.227 298.712 401.004 299.273C400.78 299.835 400.671 300.435 400.682 301.04Z" fill="#575A89"/>
<path d="M436.818 189.277C436.818 189.277 437.917 192.942 431.688 196.239C425.459 199.537 423.627 211.996 430.955 215.66C438.284 219.325 440.482 224.088 436.818 227.386C433.154 230.684 426.558 239.478 435.352 241.677C444.147 243.875 445.246 248.272 442.681 250.105C440.116 251.937 448.544 246.807 448.544 246.807C448.544 246.807 450.009 255.601 457.704 253.402C465.399 251.204 473.077 211.239 464.499 200.946C456.524 191.375 436.818 189.277 436.818 189.277Z" fill="#2F2E41"/>
<path d="M434.477 185.507C434.478 180.138 450.539 183.996 457.425 191.491C462.194 196.682 469.436 204.491 463.367 209.995C457.298 215.5 473.77 222.715 478.188 224.903C482.606 227.091 491.328 233.781 483.453 238.269C475.577 242.758 475.704 247.288 478.668 248.361C481.632 249.434 472.133 246.766 472.133 246.766C472.133 246.766 473.093 255.63 465.09 255.588C457.087 255.545 434.127 211.564 439.612 199.339C444.712 187.972 434.477 185.507 434.477 185.507Z" fill="#2F2E41"/>
<path d="M437.955 184.33C416.478 183.036 414.322 199.203 414.322 199.203C414.471 208.559 429.328 204 433.455 205.395C438.433 201.814 448.03 195.037 454.893 190.202C449.91 186.693 444.041 184.658 437.955 184.33Z" fill="#2F2E41"/>
<path d="M431.836 287.495C431.836 287.495 412.57 197.203 291.983 131.703" stroke="#3F3D56" stroke-width="2" stroke-miterlimit="10"/>
<path d="M296.952 129.733L297.193 130.723L292.316 131.906L293.852 136.685L292.882 136.996L291.012 131.175L296.952 129.733Z" fill="#3F3D56"/>
<path d="M34.8519 379.753C34.8519 391.189 28.0538 395.182 19.6671 395.182C19.4729 395.182 19.2789 395.179 19.0852 395.175C18.6966 395.167 18.3118 395.148 17.9315 395.122C10.3628 394.587 4.48242 390.388 4.48242 379.753C4.48242 368.746 18.5477 354.857 19.6042 353.83L19.6061 353.828C19.6468 353.788 19.6672 353.769 19.6672 353.769C19.6672 353.769 34.8519 368.317 34.8519 379.753Z" fill="#2CC597"/>
<path d="M19.1131 393.432L24.6668 385.672L19.0992 394.284L19.0844 395.175C18.6958 395.167 18.311 395.148 17.9307 395.123L18.5293 383.681L18.5247 383.592L18.5349 383.576L18.5913 382.495L13.0098 373.861L18.6089 381.684L18.6218 381.914L19.0742 373.269L14.2958 364.348L19.1325 371.752L19.6034 353.83L19.6053 353.769V353.828L19.5266 367.961L24.2838 362.358L19.5072 369.178L19.3814 376.918L23.8231 369.49L19.3629 378.057L19.2926 382.36L25.741 372.021L19.2685 383.861L19.1131 393.432Z" fill="#3F3D56"/>
<path d="M107.278 376.79L110.526 374.377C110.526 374.377 112.676 386.387 110.277 388.187C107.878 389.986 98.8806 392.985 98.8806 396.584C98.8806 400.183 78.4871 404.981 77.8873 399.583C77.2875 394.185 79.6867 391.186 79.6867 391.186C79.6867 391.186 89.2836 381.589 90.4833 379.789C91.6829 377.99 94.6819 374.391 94.6819 374.391L107.278 376.79Z" fill="#2F2E41"/>
<path d="M59.2939 227.438C59.2939 227.438 59.3839 227.966 59.5398 228.931C59.6839 229.789 59.8817 231.001 60.1217 232.494C62.6409 247.867 69.9886 293.123 69.4907 294.616C68.8909 296.416 64.6922 303.014 69.4907 304.813C69.9526 304.987 70.4504 305.551 70.9842 306.438C72.0146 308.35 72.864 310.355 73.5214 312.425C76.3825 320.726 79.4416 334.012 81.211 343.213C81.9847 347.255 82.5125 350.506 82.6684 352.21C82.7227 352.604 82.7287 353.002 82.6865 353.397C82.0867 355.797 86.2853 364.194 88.0847 366.593C89.8842 368.992 92.8832 371.392 92.2834 373.791C91.6836 376.19 107.279 382.788 109.078 378.589C110.877 374.391 110.877 371.992 111.477 370.792C112.077 369.592 112.677 361.195 109.678 359.995C106.679 358.796 108.478 337.802 105.479 333.604C104.478 332.206 102.948 327.474 101.346 321.782C100.717 319.55 100.081 317.175 99.4571 314.794C96.9259 305.035 94.6826 295.216 94.6826 295.216L95.2824 225.038L62.293 220.84L61.4473 222.705L59.7618 226.406L59.2939 227.438Z" fill="#2F2E41"/>
<path d="M57.4939 342.6C57.4939 342.6 52.6954 337.802 50.2962 342.6C47.897 347.399 45.4977 365.993 41.2991 370.192C37.1004 374.39 31.7021 395.384 37.7002 396.583C43.6983 397.783 50.2962 394.784 50.896 391.185C51.4958 387.586 64.0917 368.992 64.0917 367.193C64.0917 365.393 55.6944 358.795 55.6944 358.795L57.4939 342.6Z" fill="#2F2E41"/>
<path d="M131.27 194.448C131.27 194.448 123.473 264.626 121.673 271.224C119.874 277.822 110.277 303.013 107.278 307.212C104.279 311.411 85.0851 345.6 82.6859 347.399C80.2867 349.199 75.4882 353.997 75.4882 353.997C75.4882 353.997 66.4911 362.994 65.2915 364.794C64.0919 366.593 53.8951 361.195 53.2953 357.596C52.6955 353.997 53.8951 347.999 54.4949 345.6C55.0947 343.201 53.2953 339.602 55.0947 337.802C56.8942 336.003 65.8913 327.006 65.8913 322.807C65.8913 318.608 81.4863 294.016 87.4844 288.618C93.4824 283.22 92.2828 274.223 92.2828 274.223V237.634L59.2934 227.438C59.2934 227.438 61.0928 198.647 65.2915 198.647C69.4901 198.647 124.672 189.05 131.27 194.448Z" fill="#2F2E41"/>
<path d="M82.6862 94.2807C93.618 94.2807 102.48 85.4188 102.48 74.487C102.48 63.5553 93.618 54.6934 82.6862 54.6934C71.7545 54.6934 62.8926 63.5553 62.8926 74.487C62.8926 85.4188 71.7545 94.2807 82.6862 94.2807Z" fill="#9F616A"/>
<path d="M89.2841 90.082C89.2841 90.082 91.6834 99.0791 94.6824 101.478C97.6814 103.878 86.8849 114.074 86.8849 114.074L66.4914 115.274L62.8926 103.878C62.8926 103.878 69.4905 90.6818 67.691 82.2845C65.8916 73.8871 89.2841 90.082 89.2841 90.082Z" fill="#9F616A"/>
<path d="M97.6817 100.278C97.6817 100.278 92.2834 100.878 91.0838 102.678C89.8842 104.477 81.4869 109.875 74.889 108.676C68.2911 107.476 64.0924 105.677 62.8928 106.276C61.6932 106.876 59.2939 119.472 59.2939 119.472L65.8918 138.666L64.6922 191.449L62.8928 205.845C62.8928 205.845 59.2939 201.046 73.6893 204.045C88.0847 207.044 106.679 201.646 112.677 201.046C118.675 200.446 128.872 198.647 129.472 195.048C130.071 191.449 127.672 178.253 127.672 178.253L118.075 138.066L112.077 116.473L97.6817 100.278Z" fill="#2CC597"/>
<path d="M92.0078 97.5716C92.0078 97.5716 97.0815 94.8805 98.881 97.2798C100.68 99.679 123.473 103.278 123.473 105.077C123.473 106.877 128.272 155.461 127.072 159.66C125.872 163.859 129.471 168.657 129.471 168.657L133.67 186.651C133.67 186.651 145.066 220.84 140.268 222.04C135.469 223.24 131.271 222.04 129.471 222.04C127.672 222.04 128.272 199.247 123.473 193.249C118.675 187.251 112.077 172.256 110.877 169.257C109.678 166.258 94.6823 124.871 95.2821 120.073C95.8819 115.274 92.0078 97.5716 92.0078 97.5716Z" fill="#D0CDE1"/>
<path d="M67.0913 100.278C67.0913 100.278 62.2929 100.278 61.6931 101.478C61.0933 102.678 55.0952 110.475 52.6959 112.274C50.2967 114.074 41.8994 121.871 41.8994 123.671C41.8994 125.47 59.2938 138.666 59.2938 138.666C59.2938 138.666 66.4915 174.055 62.8927 186.051C59.2938 198.047 53.8956 226.838 56.2948 228.637C58.694 230.437 64.0923 231.037 64.0923 228.637C64.0923 226.238 67.6912 200.446 70.6902 195.048C73.6892 189.65 82.6864 155.461 79.0875 145.864C75.4887 136.267 67.0913 100.278 67.0913 100.278Z" fill="#D0CDE1"/>
<path d="M146.266 159.659C146.266 159.659 146.866 178.253 140.268 187.85C133.67 197.447 129.471 208.244 129.471 208.244C129.471 208.244 118.675 205.245 116.875 201.646C115.076 198.047 103.68 201.046 103.68 199.846C103.68 198.647 117.475 192.649 118.675 191.449C119.875 190.249 124.073 190.249 126.472 187.85C128.872 185.451 129.471 180.053 129.471 180.053L131.871 164.458L146.266 159.659Z" fill="#9F616A"/>
<path d="M96.3195 62.2826C97.8422 62.1443 99.4127 61.9921 100.759 61.2663C103.774 59.6401 104.574 55.0091 102.278 52.4658C101.645 51.8187 100.937 51.2495 100.169 50.7702L95.61 47.6669C93.5935 46.2943 91.5293 44.8993 89.1775 44.2523C87.0502 43.6671 84.8035 43.7272 82.6015 43.8641C78.3268 44.1298 74.0256 44.6786 70.005 46.1545C65.9844 47.6304 62.2339 50.0995 59.7988 53.6228C55.9385 59.2084 55.8854 66.7416 58.0116 73.1899C60.1377 79.6382 64.1765 85.2533 68.156 90.7547L70.2209 80.6796C70.4048 79.7822 70.6426 78.7987 71.389 78.2676C73.244 76.9476 75.513 79.6578 77.7897 79.6403C79.2525 79.629 80.4807 78.4258 81.035 77.072C81.5894 75.7183 81.6259 74.2191 81.7542 72.7618C82.0258 69.6753 83.1047 65.3806 86.0276 63.6784C88.7514 62.0922 93.2579 62.5607 96.3195 62.2826Z" fill="#2F2E41"/>
<path opacity="0.1" d="M95.2088 227.921C95.2088 227.921 93.183 286.518 91.9834 288.318C90.7837 290.117 91.9834 227.737 91.9834 227.737L95.2088 227.921Z" fill="black"/>
<path d="M118.675 105.077H123.473C123.473 105.077 143.867 132.668 141.468 134.468C139.068 136.267 141.468 141.066 141.468 141.066L146.266 150.063C146.266 150.063 152.264 155.461 150.465 156.661C148.665 157.86 146.266 162.659 146.266 162.659C146.266 162.659 134.27 160.859 130.671 168.057L122.892 158.236L118.675 105.077Z" fill="#D0CDE1"/>
<path d="M120.371 113.952L103.905 120.751L116.576 151.435L133.042 144.636L120.371 113.952Z" fill="#2F2E41"/>
<path d="M118.441 131.948C120.26 131.197 121.175 129.234 120.485 127.563C119.795 125.893 117.761 125.147 115.943 125.898C114.124 126.649 113.209 128.612 113.899 130.283C114.589 131.954 116.622 132.699 118.441 131.948Z" fill="#2CC597"/>
<path d="M106.679 153.062C106.679 153.062 63.4924 189.05 56.2947 177.654C49.097 166.258 64.0922 156.661 64.0922 156.661C64.0922 156.661 77.288 157.26 92.2832 147.664L107.278 141.066C107.278 141.066 120.968 121.522 125.633 128.964C130.298 136.406 117.67 149.359 106.679 153.062Z" fill="#9F616A"/>
<path d="M48.4971 121.271L41.8992 123.671V141.665L39.5 145.264C39.5 145.264 40.0998 152.462 41.8992 154.261C43.6987 156.06 47.2975 155.461 46.0979 159.659C45.3769 162.397 45.1735 165.244 45.4981 168.056C45.4981 168.056 56.2946 181.852 56.8944 180.053C57.4942 178.253 65.8916 156.06 67.0912 156.06C68.2908 156.06 55.095 121.271 55.095 121.271H48.4971Z" fill="#D0CDE1"/>
<path d="M127.373 212.142C127.373 212.142 133.575 206.144 130.474 205.844C127.373 205.544 116.576 199.546 114.777 202.545C112.977 205.544 127.373 212.142 127.373 212.142Z" fill="#2F2E41"/>
<path d="M245.326 97.7231C250.105 97.7231 253.979 95.6722 253.979 93.1423C253.979 90.6124 250.105 88.5615 245.326 88.5615C240.548 88.5615 236.674 90.6124 236.674 93.1423C236.674 95.6722 240.548 97.7231 245.326 97.7231Z" fill="#57B894"/>
<path d="M278.41 108.412C258.899 101.043 239.389 101.043 219.878 108.412V84.4903C238.964 78.7311 259.324 78.7311 278.41 84.4903V108.412Z" stroke="#3F3D56" stroke-width="2" stroke-miterlimit="10"/>
<path d="M270.266 103.465C256.185 98.1465 242.103 98.1465 228.021 103.465V86.1995C241.796 82.0429 256.492 82.0429 270.266 86.1995V103.465Z" stroke="#3F3D56" stroke-width="2" stroke-miterlimit="10"/>
<path d="M248.38 95.6879C253.159 95.6879 257.033 93.637 257.033 91.1072C257.033 88.5773 253.159 86.5264 248.38 86.5264C243.601 86.5264 239.728 88.5773 239.728 91.1072C239.728 93.637 243.601 95.6879 248.38 95.6879Z" stroke="#3F3D56" stroke-width="2" stroke-miterlimit="10"/>
<path d="M251.689 126.411C256.371 125.456 259.756 122.671 259.251 120.193C258.745 117.714 254.539 116.479 249.857 117.435C245.175 118.39 241.789 121.174 242.295 123.653C242.801 126.132 247.007 127.367 251.689 126.411Z" fill="#57B894"/>
<path d="M286.241 130.268C265.651 126.95 246.534 130.851 228.891 141.973L224.107 118.534C241.656 109.075 261.605 105.003 281.457 106.829L286.241 130.268Z" stroke="#3F3D56" stroke-width="2" stroke-miterlimit="10"/>
<path d="M277.273 127.049C262.412 124.654 248.615 127.47 235.881 135.497L232.429 118.581C245.094 111.753 259.492 108.815 273.82 110.133L277.273 127.049Z" stroke="#3F3D56" stroke-width="2" stroke-miterlimit="10"/>
<path d="M254.274 123.806C258.956 122.85 262.341 120.066 261.836 117.587C261.33 115.108 257.124 113.874 252.442 114.829C247.76 115.785 244.374 118.569 244.88 121.048C245.386 123.527 249.592 124.761 254.274 123.806Z" stroke="#3F3D56" stroke-width="2" stroke-miterlimit="10"/>
<path d="M257.61 150.996C257.785 148.472 254.063 146.157 249.296 145.825C244.529 145.494 240.522 147.271 240.346 149.795C240.171 152.318 243.893 154.633 248.66 154.965C253.427 155.297 257.434 153.52 257.61 150.996Z" fill="#57B894"/>
<path d="M280.921 167.924C261.969 159.218 242.505 157.864 222.53 163.861L224.191 139.996C243.63 135.576 263.942 136.989 282.582 144.06L280.921 167.924Z" stroke="#3F3D56" stroke-width="2" stroke-miterlimit="10"/>
<path d="M273.141 162.424C259.463 156.141 245.415 155.163 230.998 159.491L232.197 142.267C246.227 139.077 260.887 140.097 274.34 145.2L273.141 162.424Z" stroke="#3F3D56" stroke-width="2" stroke-miterlimit="10"/>
<path d="M260.798 149.176C260.974 146.653 257.252 144.338 252.484 144.006C247.717 143.674 243.71 145.451 243.535 147.975C243.359 150.499 247.081 152.814 251.848 153.146C256.616 153.477 260.623 151.7 260.798 149.176Z" stroke="#3F3D56" stroke-width="2" stroke-miterlimit="10"/>
<path d="M211.185 108.968C211.185 108.968 173.777 103.85 147.063 119.506" stroke="#3F3D56" stroke-width="2" stroke-miterlimit="10"/>
<path d="M147.963 114.244L148.935 114.552L147.416 119.335L152.299 120.5L152.062 121.491L146.115 120.071L147.963 114.244Z" fill="#3F3D56"/>
</g>
<defs>
<clipPath id="clip0">
<rect width="559.364" height="406" fill="white"/>
</clipPath>
</defs>
</svg>
